<svg xmlns="http://www.w3.org/2000/svg" width="100" height="100" viewBox="0 0 100 100">
  <g id="Group_132137" data-name="Group 132137" transform="translate(0.408)" opacity="0.4">
    <rect id="Rectangle_110162" data-name="Rectangle 110162" width="100" height="100" rx="8" transform="translate(-0.408)" fill="#fff" opacity="0"/>
    <g id="Group_131170" data-name="Group 131170" transform="translate(9.599 31.786)">
      <path id="Path_148466" data-name="Path 148466" d="M1132.108,371.715c0-.361.222-.471.494-.248l1.609,1.344a.52.52,0,0,1,0,.826l-1.609,1.342c-.272.228-.494.116-.494-.245Z" transform="translate(-1118.141 -362.413)" fill="#fff"/>
      <path id="Path_148467" data-name="Path 148467" d="M1140.984,376.141h.344v-2.5h-.344Zm-13.358,0h.344v-2.5h-.344Z" transform="translate(-1119.628 -361.654)" fill="#fff"/>
      <path id="Path_148468" data-name="Path 148468" d="M1141.752,367.148a1.606,1.606,0,0,0,1.975,0,1.212,1.212,0,0,0,.421-1,1.231,1.231,0,0,0-.4-.955,1.566,1.566,0,0,0-2.01,0,1.231,1.231,0,0,0-.4.955,1.213,1.213,0,0,0,.421,1" transform="translate(-1115.081 -364.575)" fill="#fff"/>
      <path id="Path_148469" data-name="Path 148469" d="M1149.71,376.458a1.354,1.354,0,0,0-.954.358,1.209,1.209,0,0,0-.386.93,1.153,1.153,0,0,0,.4.947,1.555,1.555,0,0,0,1.889,0,1.153,1.153,0,0,0,.4-.947,1.222,1.222,0,0,0-.378-.93,1.345,1.345,0,0,0-.962-.358" transform="translate(-1112.746 -360.717)" fill="#fff"/>
      <path id="Path_148470" data-name="Path 148470" d="M1146.912,376.458a1.353,1.353,0,0,0-.953.358,1.208,1.208,0,0,0-.386.93,1.152,1.152,0,0,0,.4.947,1.554,1.554,0,0,0,1.888,0,1.152,1.152,0,0,0,.4-.947,1.208,1.208,0,0,0-.386-.93,1.354,1.354,0,0,0-.954-.358" transform="translate(-1113.674 -360.717)" fill="#fff"/>
      <path id="Path_148471" data-name="Path 148471" d="M1192.614,376.045a.571.571,0,0,1-.558.582h-6.842a3.4,3.4,0,0,1-2.137-.593.607.607,0,0,1-.226-.551c.017-.141.034-.29.046-.438.023-.254.035-.526.035-.811v-5.412a.986.986,0,0,0-.965-1h-.457a.985.985,0,0,0-.966,1v5.732a2.446,2.446,0,0,1-.515,1.643,1.912,1.912,0,0,1-1.545.607,2.079,2.079,0,0,1-1.572-.617,2.652,2.652,0,0,1-.592-1.9v-3.32a.985.985,0,0,0-.966-1h-.473a.984.984,0,0,0-.965,1v3.426a2.514,2.514,0,0,1-.207,1.089,1.871,1.871,0,0,1-.541.688,1.945,1.945,0,0,1-.737.356,3.261,3.261,0,0,1-.782.1h-1.193a.571.571,0,0,1-.558-.582v-5.078a.985.985,0,0,0-.966-1h-.474a.985.985,0,0,0-.965,1v5.078a.57.57,0,0,1-.557.582h-8.5a.571.571,0,0,1-.558-.582v-5.97a.984.984,0,0,0-.966-1h-.473a.985.985,0,0,0-.965,1v5.97a.571.571,0,0,1-.558.582h-3.983a.571.571,0,0,1-.559-.582v-5.97a.985.985,0,0,0-.966-1h-.473a.985.985,0,0,0-.965,1v5.97a.57.57,0,0,1-.557.582h-6.19c.035-.178.063-.365.085-.554a5.261,5.261,0,0,0,.035-.59,5.727,5.727,0,0,0-.4-2.161,5.321,5.321,0,0,0-1.116-1.734,5.2,5.2,0,0,0-1.666-1.152,4.988,4.988,0,0,0-2.035-.418,4.747,4.747,0,0,0-2,.426,5.185,5.185,0,0,0-1.63,1.172,5.513,5.513,0,0,0-1.1,1.734,5.582,5.582,0,0,0-.4,2.133c0,.2.008.4.027.59a3.271,3.271,0,0,0,.093.554h-6a.57.57,0,0,1-.558-.582v-10.4a.984.984,0,0,0-.966-1h-.474a.984.984,0,0,0-.966,1v12.906a.57.57,0,0,0,.56.579h9.449a.55.55,0,0,1,.387.168,5.369,5.369,0,0,0,1.522,1.075,4.723,4.723,0,0,0,2.06.457,5.085,5.085,0,0,0,3.652-1.527.547.547,0,0,1,.39-.172h31.308a4.875,4.875,0,0,0,1.971-.377,4.794,4.794,0,0,0,1.187-.738.531.531,0,0,1,.761.052,3.072,3.072,0,0,0,.351.357,3.471,3.471,0,0,0,.834.53,4.059,4.059,0,0,0,.927.277,5.952,5.952,0,0,0,.979.077,4.028,4.028,0,0,0,3.657-1.661,3.474,3.474,0,0,0,.387.537,2.438,2.438,0,0,0,.592.483,3.279,3.279,0,0,0,.875.34,5.068,5.068,0,0,0,.858.108v.015h9.607a.569.569,0,0,0,.558-.579V367.719a.57.57,0,0,1,.558-.579.57.57,0,0,0,.558-.582v-1.34a.567.567,0,0,0-.558-.578h-2.4a.568.568,0,0,0-.558.578Z" transform="translate(-1121.445 -364.637)" fill="#fff"/>
      <path id="Path_148472" data-name="Path 148472" d="M1179.9,365.642v12.9a.568.568,0,0,0,.558.581h1.288a.569.569,0,0,0,.558-.581v-12.9a.985.985,0,0,0-.966-1h-.473a.984.984,0,0,0-.965,1" transform="translate(-1102.288 -364.638)" fill="#fff"/>
      <path id="Path_148473" data-name="Path 148473" d="M1138.115,377.809a.471.471,0,0,1,0-.076,1.061,1.061,0,0,1,0-.177,5.748,5.748,0,0,0-.346-7.49,5.205,5.205,0,0,0-7.574,0,5.743,5.743,0,0,0,0,7.885,5.208,5.208,0,0,0,7.357.212,1.873,1.873,0,0,0,1.785,1.418v-.657a1.241,1.241,0,0,1-1.214-1.116m-.8-.325a4.6,4.6,0,0,1-6.689,0,5.054,5.054,0,0,1,0-6.954,4.6,4.6,0,0,1,6.689,0,5.058,5.058,0,0,1,0,6.954" transform="translate(-1119.297 -363.38)" fill="#fff"/>
      <path id="Path_148474" data-name="Path 148474" d="M1124.5,380.809a1.4,1.4,0,0,0,.93-.324,1.3,1.3,0,0,0,.008-1.848,1.451,1.451,0,0,0-1.875,0,1.3,1.3,0,0,0,.007,1.848,1.41,1.41,0,0,0,.931.324" transform="translate(-1121.102 -360.109)" fill="#fff"/>
      <path id="Path_148475" data-name="Path 148475" d="M1127.256,380.809a1.407,1.407,0,0,0,.93-.324,1.159,1.159,0,0,0,.389-.941,1.177,1.177,0,0,0-.371-.907,1.465,1.465,0,0,0-1.886,0,1.3,1.3,0,0,0,.009,1.848,1.407,1.407,0,0,0,.929.324" transform="translate(-1120.188 -360.109)" fill="#fff"/>
      <path id="Path_148476" data-name="Path 148476" d="M1136.186,382.04h-.223a1.094,1.094,0,0,0-1.07,1.116v5.752a.564.564,0,0,1-.552.573h-3.685a.562.562,0,0,1-.548-.573v-7.177a.559.559,0,0,0-.549-.57h-1.268a.558.558,0,0,0-.55.57v.309h-.338a7.364,7.364,0,0,0-2.442.377,5.37,5.37,0,0,0-1.818,1.037,4.384,4.384,0,0,0-1.135,1.566,4.99,4.99,0,0,0-.389,1.978,5.176,5.176,0,0,0,.431,2.183,4.226,4.226,0,0,0,1.2,1.547,5.141,5.141,0,0,0,1.829.916,8.589,8.589,0,0,0,2.324.3h9.3a.562.562,0,0,0,.551-.57v-8.215a1.094,1.094,0,0,0-1.073-1.116m-8.445,6.868a.564.564,0,0,1-.552.573h-.481a3.279,3.279,0,0,1-1.013-.157,2.682,2.682,0,0,1-.872-.478,2.3,2.3,0,0,1-.837-1.847,2.225,2.225,0,0,1,.246-1.061,2.368,2.368,0,0,1,.648-.783,3,3,0,0,1,.914-.486,3.3,3.3,0,0,1,1.032-.166h.362a.563.563,0,0,1,.552.571Z" transform="translate(-1121.62 -359.156)" fill="#fff"/>
      <path id="Path_148477" data-name="Path 148477" d="M1133.425,390.181a1.327,1.327,0,0,0-.939.353,1.183,1.183,0,0,0-.379.912,1.131,1.131,0,0,0,.389.933,1.516,1.516,0,0,0,1.859,0,1.131,1.131,0,0,0,.389-.933,1.2,1.2,0,0,0-.372-.912,1.321,1.321,0,0,0-.947-.353" transform="translate(-1118.141 -356.168)" fill="#fff"/>
      <path id="Path_148478" data-name="Path 148478" d="M1130.672,390.181a1.33,1.33,0,0,0-.94.353,1.189,1.189,0,0,0-.379.912,1.13,1.13,0,0,0,.389.933,1.518,1.518,0,0,0,1.86,0,1.134,1.134,0,0,0,.389-.933,1.184,1.184,0,0,0-.381-.912,1.326,1.326,0,0,0-.937-.353" transform="translate(-1119.055 -356.168)" fill="#fff"/>
      <path id="Path_148479" data-name="Path 148479" d="M1142.059,383.139a3.7,3.7,0,0,0-1.505-1.012,5.985,5.985,0,0,0-2.012-.306.793.793,0,0,0-.778.807v.846a.794.794,0,0,0,.778.808h.237a1.888,1.888,0,0,1,.838.185,1.593,1.593,0,0,1,.6.483,1.958,1.958,0,0,1,.347.7,3.465,3.465,0,0,1,.11.922v2.12a.563.563,0,0,1-.55.573h-4.8a.559.559,0,0,0-.549.57v1.321a.56.56,0,0,0,.549.57h7.168a.559.559,0,0,0,.548-.57v-4.479a8.738,8.738,0,0,0-.218-2.011,3.414,3.414,0,0,0-.762-1.523" transform="translate(-1117.256 -358.94)" fill="#fff"/>
      <path id="Path_148480" data-name="Path 148480" d="M1186.383,389.775a.56.56,0,0,1-.55.571h-.751a3.353,3.353,0,0,1-2.107-.582.6.6,0,0,1-.221-.542c.017-.14.032-.286.046-.433.022-.25.033-.519.033-.8v-5.378a.922.922,0,0,0-.9-.938h-.546a.922.922,0,0,0-.9.938v5.7a2.424,2.424,0,0,1-.507,1.618,1.891,1.891,0,0,1-1.522.6,2.054,2.054,0,0,1-1.546-.607,2.624,2.624,0,0,1-.584-1.874v-3.32a.922.922,0,0,0-.9-.939h-.563a.922.922,0,0,0-.9.939v3.427a2.463,2.463,0,0,1-.2,1.071,1.864,1.864,0,0,1-.532.676,1.938,1.938,0,0,1-.728.354,3.26,3.26,0,0,1-.768.095h-1.174a.56.56,0,0,1-.55-.571v-5.051a.922.922,0,0,0-.9-.939h-.563a.922.922,0,0,0-.9.939v5.051a.56.56,0,0,1-.55.571h-5.13a.569.569,0,0,1-.514-.774l1.611-4.428a.593.593,0,0,0-.152-.639,11.723,11.723,0,0,0-2.164-1.547,5.677,5.677,0,0,0-2.755-.7,5.394,5.394,0,0,0-1.4.184,6.427,6.427,0,0,0-1.309.518,9.6,9.6,0,0,0-1.252.794q-.463.344-.923.738a.586.586,0,0,0-.16.647l1.66,4.431a.569.569,0,0,1-.511.779h-2.754a.558.558,0,0,1-.548-.573l.013-6.168a.684.684,0,0,0-.67-.7h-2a7.565,7.565,0,0,0-2.333.343,5.536,5.536,0,0,0-1.833.976,4.433,4.433,0,0,0-1.2,1.547,4.813,4.813,0,0,0-.431,2.076,5.218,5.218,0,0,0,.449,2.26,4.121,4.121,0,0,0,1.234,1.541,5.3,5.3,0,0,0,1.842.88,8.916,8.916,0,0,0,2.275.281h.27a1.925,1.925,0,0,1-.21.736,1.151,1.151,0,0,1-.423.433,1.614,1.614,0,0,1-.634.192,7.156,7.156,0,0,1-.863.044,6.706,6.706,0,0,1-1.183-.105c-.176-.029-.358-.071-.546-.119a.56.56,0,0,0-.685.594l.087,1.267a.572.572,0,0,0,.406.511l.314.087c.2.047.4.087.583.124s.375.063.566.077.4.027.626.027a5.777,5.777,0,0,0,1.929-.281,3.4,3.4,0,0,0,1.3-.792,3.261,3.261,0,0,0,.761-1.221,5.771,5.771,0,0,0,.268-1.1.548.548,0,0,1,.539-.471h20.322a4.792,4.792,0,0,0,1.939-.373,4.706,4.706,0,0,0,1.6-1.14,3.2,3.2,0,0,0,.668.816,3.362,3.362,0,0,0,.82.519,3.9,3.9,0,0,0,.914.274,6.07,6.07,0,0,0,.963.076,3.967,3.967,0,0,0,3.6-1.635,3.2,3.2,0,0,0,.381.527,2.384,2.384,0,0,0,.584.477,3.269,3.269,0,0,0,.861.334,4.806,4.806,0,0,0,.846.105v.019h3.474a.562.562,0,0,0,.549-.574V381.578a.563.563,0,0,1,.55-.573.559.559,0,0,0,.55-.569v-1.322a.559.559,0,0,0-.55-.569h-2.367a.558.558,0,0,0-.55.569Zm-37.954,0a.559.559,0,0,1-.549.571h-.449a3.589,3.589,0,0,1-1.073-.156,2.475,2.475,0,0,1-.871-.478,2.223,2.223,0,0,1-.583-.78,2.621,2.621,0,0,1-.21-1.083,2.271,2.271,0,0,1,.228-1.021,2.5,2.5,0,0,1,.609-.782,2.8,2.8,0,0,1,1.031-.551,3.635,3.635,0,0,1,1.039-.124h.16a.682.682,0,0,1,.67.7Zm10.194.571h-1.25a.547.547,0,0,1-.518-.38l-1.269-3.745a.588.588,0,0,1,.235-.679,4.384,4.384,0,0,1,.86-.454,3.582,3.582,0,0,1,1.3-.229,3.731,3.731,0,0,1,1.293.21,4.7,4.7,0,0,1,.891.461.587.587,0,0,1,.242.683l-1.266,3.75a.549.549,0,0,1-.518.382" transform="translate(-1114.752 -360.027)" fill="#fff"/>
      <path id="Path_148481" data-name="Path 148481" d="M1180.17,379.115v13.123a.559.559,0,0,0,.548.571h1.268a.56.56,0,0,0,.55-.571V379.115a.562.562,0,0,0-.55-.571h-1.268a.562.562,0,0,0-.548.571" transform="translate(-1102.197 -360.027)" fill="#fff"/>
      <path id="Path_148482" data-name="Path 148482" d="M1139.123,373.963a5.194,5.194,0,1,1-5.189-5.4,5.3,5.3,0,0,1,5.189,5.4" transform="translate(-1119.257 -363.337)" fill="#fff"/>
      <path id="Path_148483" data-name="Path 148483" d="M1131.466,372.117a2.508,2.508,0,0,0-.235.739.35.35,0,0,1-.245.3l-.125.035-.365.1-.344.09a.339.339,0,0,1-.421-.33,3.241,3.241,0,0,1,.625-2.019.333.333,0,0,1,.531-.007l.213.272.3.385.032.036a.375.375,0,0,1,.031.4" transform="translate(-1118.93 -362.562)" fill="#fff"/>
      <path id="Path_148484" data-name="Path 148484" d="M1132.495,374.761l-.015.282-.012.205-.021.4a.346.346,0,0,1-.432.32,2.9,2.9,0,0,1-.932-.474,3.077,3.077,0,0,1-.719-.775.359.359,0,0,1,.157-.529l.349-.138.244-.1.2-.083a.34.34,0,0,1,.37.091,2.322,2.322,0,0,0,.61.468.351.351,0,0,1,.2.336" transform="translate(-1118.74 -361.584)" fill="#fff"/>
      <path id="Path_148485" data-name="Path 148485" d="M1135.363,374.716a3.1,3.1,0,0,1-.719.776,2.944,2.944,0,0,1-.932.475.345.345,0,0,1-.433-.318l-.021-.4-.011-.2-.014-.282a.349.349,0,0,1,.2-.335,2.42,2.42,0,0,0,.6-.458.336.336,0,0,1,.375-.095l.2.081.244.1.35.141a.355.355,0,0,1,.156.525" transform="translate(-1117.768 -361.583)" fill="#fff"/>
      <path id="Path_148486" data-name="Path 148486" d="M1135.893,373.055a.341.341,0,0,1-.422.33l-.344-.091-.365-.1-.125-.035a.358.358,0,0,1-.25-.3,2.372,2.372,0,0,0-.229-.739.372.372,0,0,1,.032-.4l.031-.036.3-.391.209-.265a.334.334,0,0,1,.531,0,3.213,3.213,0,0,1,.489.953,3.143,3.143,0,0,1,.141,1.068" transform="translate(-1117.475 -362.562)" fill="#fff"/>
      <path id="Path_148487" data-name="Path 148487" d="M1134.087,370.345l-.172.278-.3.477v.005a.343.343,0,0,1-.343.154,1.964,1.964,0,0,0-.376-.036,1.916,1.916,0,0,0-.376.036.343.343,0,0,1-.344-.154V371.1l-.3-.477-.172-.278a.36.36,0,0,1,.167-.525,2.948,2.948,0,0,1,2.042,0,.36.36,0,0,1,.167.525" transform="translate(-1118.29 -362.981)" fill="#fff"/>
      <path id="Path_148488" data-name="Path 148488" d="M1131.183,371.921a2.5,2.5,0,0,0-.234.739.351.351,0,0,1-.245.3l-.125.035a2.787,2.787,0,0,1,.542-1.506l.032.036a.375.375,0,0,1,.031.4" transform="translate(-1118.648 -362.366)" fill="#fff"/>
      <path id="Path_148489" data-name="Path 148489" d="M1132.293,374.761l-.015.282a2.693,2.693,0,0,1-1.366-1.093l.2-.083a.34.34,0,0,1,.37.091,2.323,2.323,0,0,0,.61.468.351.351,0,0,1,.2.336" transform="translate(-1118.537 -361.584)" fill="#fff"/>
      <path id="Path_148490" data-name="Path 148490" d="M1132.77,370.658a2.624,2.624,0,0,1,.718.1v.005a.336.336,0,0,1-.345.152,2.129,2.129,0,0,0-.75,0,.333.333,0,0,1-.342-.152v-.005a2.607,2.607,0,0,1,.719-.1" transform="translate(-1118.16 -362.643)" fill="#fff"/>
      <path id="Path_148491" data-name="Path 148491" d="M1134.409,373.872l.2.083a2.724,2.724,0,0,1-1.365,1.088l-.016-.282a.356.356,0,0,1,.2-.336,2.353,2.353,0,0,0,.6-.461.339.339,0,0,1,.375-.092" transform="translate(-1117.768 -361.583)" fill="#fff"/>
      <path id="Path_148492" data-name="Path 148492" d="M1134.762,373l-.125-.031a.363.363,0,0,1-.25-.305,2.386,2.386,0,0,0-.229-.738.372.372,0,0,1,.032-.4l.031-.037a2.786,2.786,0,0,1,.542,1.506" transform="translate(-1117.475 -362.367)" fill="#fff"/>
      <path id="Path_148493" data-name="Path 148493" d="M1133.884,379.1a5.194,5.194,0,1,1,4.987-5.188,5.1,5.1,0,0,1-4.987,5.188m0-10.3a5.113,5.113,0,1,0,4.91,5.11,5.02,5.02,0,0,0-4.91-5.11" transform="translate(-1119.206 -363.284)" fill="#fff"/>
      <path id="Path_148494" data-name="Path 148494" d="M1137.107,376.652v.656a1.876,1.876,0,0,1-1.787-1.418c.152-.132.563-.607.563-.607a.943.943,0,0,0,.005.177c0,.032.005.055.005.076a1.238,1.238,0,0,0,1.213,1.116" transform="translate(-1117.075 -361.108)" fill="#fff"/>
      <path id="Path_148495" data-name="Path 148495" d="M1130.8,373.058l-.125.032-.365.106a.716.716,0,0,1-.005-.106,3.205,3.205,0,0,1,.61-1.891l.3.388.03.037a.372.372,0,0,1,.032.4,2.493,2.493,0,0,0-.234.735.35.35,0,0,1-.245.3" transform="translate(-1118.74 -362.464)" fill="#fff"/>
      <path id="Path_148496" data-name="Path 148496" d="M1132.354,374.761l-.015.282-.012.205a3.025,3.025,0,0,1-1.6-1.2l.244-.1.2-.083a.34.34,0,0,1,.37.091,2.325,2.325,0,0,0,.61.468.351.351,0,0,1,.2.336" transform="translate(-1118.598 -361.584)" fill="#fff"/>
      <path id="Path_148497" data-name="Path 148497" d="M1133.859,370.424l-.3.477v.005a.337.337,0,0,1-.344.153,2.059,2.059,0,0,0-.375-.033,2,2,0,0,0-.374.033.338.338,0,0,1-.344-.153V370.9l-.3-.477a2.882,2.882,0,0,1,2.032,0" transform="translate(-1118.233 -362.781)" fill="#fff"/>
      <path id="Path_148498" data-name="Path 148498" d="M1134.613,373.952l.245.1a3.041,3.041,0,0,1-1.6,1.2l-.01-.208-.016-.282a.353.353,0,0,1,.2-.336,2.318,2.318,0,0,0,.6-.459.342.342,0,0,1,.376-.093Z" transform="translate(-1117.768 -361.583)" fill="#fff"/>
      <path id="Path_148499" data-name="Path 148499" d="M1135.132,373.092a.69.69,0,0,1-.005.1l-.365-.1-.125-.031a.365.365,0,0,1-.25-.3,2.385,2.385,0,0,0-.229-.738.373.373,0,0,1,.032-.4l.031-.037.3-.39a3.217,3.217,0,0,1,.61,1.9" transform="translate(-1117.475 -362.464)" fill="#fff"/>
    </g>
  </g>
</svg>
