<svg xmlns="http://www.w3.org/2000/svg" xmlns:xlink="http://www.w3.org/1999/xlink" width="136" height="136" viewBox="0 0 136 136">
  <defs>
    <filter id="Rectangle_110162" x="0" y="0" width="136" height="136" filterUnits="userSpaceOnUse">
      <feOffset dy="3" input="SourceAlpha"/>
      <feGaussianBlur stdDeviation="6" result="blur"/>
      <feFlood flood-color="#ececec" flood-opacity="0.161"/>
      <feComposite operator="in" in2="blur"/>
      <feComposite in="SourceGraphic"/>
    </filter>
  </defs>
  <g id="Group_131936" data-name="Group 131936" transform="translate(18 15)">
    <g transform="matrix(1, 0, 0, 1, -18, -15)" filter="url(#Rectangle_110162)">
      <rect id="Rectangle_110162-2" data-name="Rectangle 110162" width="100" height="100" rx="8" transform="translate(18 15)" fill="#fff"/>
    </g>
    <g id="Group_131195" data-name="Group 131195" transform="translate(20 16)">
      <path id="Path_148687" data-name="Path 148687" d="M1454.027,506.373a1.476,1.476,0,0,0-1.344,1.2h-.084a1.414,1.414,0,0,0-1.353-1.2,1.477,1.477,0,0,0,0,2.953,1.473,1.473,0,0,0,1.344-1.2h.084a1.412,1.412,0,0,0,1.353,1.2,1.477,1.477,0,0,0,0-2.953" transform="translate(-1423.019 -443.843)" fill="#1c7da9"/>
      <path id="Path_148688" data-name="Path 148688" d="M1448.517,499.3a1.477,1.477,0,1,0-1.418-1.477,1.452,1.452,0,0,0,1.418,1.477" transform="translate(-1423.575 -445.888)" fill="#1c7da9"/>
      <path id="Path_148689" data-name="Path 148689" d="M1471.239,499.551a5.559,5.559,0,0,0-2.06-.381,6.587,6.587,0,0,0-2.127.3,3.985,3.985,0,0,0-2.917,3.858,3.631,3.631,0,0,0,3.948,3.872h.909c0,.558-.212.928-1.017.928H1465.5a.261.261,0,0,0-.254.267v2.189a.258.258,0,0,0,.254.264l2.827,0c1.836,0,3.173-1.338,3.267-3.723.061-1.588.055-5.969.019-6.991a.564.564,0,0,0-.37-.588m-2.264,4.779h-.771c-.784,0-1.3-.406-1.3-1.076a1.2,1.2,0,0,1,1.293-1.123h.634c.113,0,.145.067.145.157Z" transform="translate(-1420.098 -445.312)" fill="#1c7da9"/>
      <path id="Path_148690" data-name="Path 148690" d="M1478.511,501.063a4.194,4.194,0,0,0-3.839-1.781h-2.6a.262.262,0,0,0-.255.267v2.311a.26.26,0,0,0,.255.265h2.773a1.913,1.913,0,0,1,1.374.512,2.261,2.261,0,0,1,.325,1.437.1.1,0,0,1-.1.093l-4.879,0a.261.261,0,0,0-.255.266v2.483a.26.26,0,0,0,.255.266h6.891a.422.422,0,0,0,.419-.266,13.811,13.811,0,0,0,.375-2.914,4.895,4.895,0,0,0-.736-2.936" transform="translate(-1418.634 -445.289)" fill="#1c7da9"/>
      <path id="Path_148691" data-name="Path 148691" d="M1430.7,496.307a1.478,1.478,0,1,0,1.42,1.476,1.451,1.451,0,0,0-1.42-1.476" transform="translate(-1427.212 -445.897)" fill="#1c7da9"/>
      <path id="Path_148692" data-name="Path 148692" d="M1432.086,499.286h-2.066a.26.26,0,0,0-.254.265V506.5c0,1.223-.429,1.617-1.072,1.617h-.875a.26.26,0,0,0-.256.267v2.184a.259.259,0,0,0,.256.265h.926c2.755,0,3.6-1.682,3.6-4.6v-6.674a.261.261,0,0,0-.254-.265" transform="translate(-1427.563 -445.289)" fill="#1c7da9"/>
      <path id="Path_148693" data-name="Path 148693" d="M1465.749,499.184a3.311,3.311,0,0,0-2.5,1.186,9.19,9.19,0,0,0-1.34,2.179c-.435.868-.715,1.645-1.545,1.645h-.644c-.587,0-1.224-.225-1.224-1.536v-3.086a.259.259,0,0,0-.255-.263h-2.06a.26.26,0,0,0-.254.263v3.086c0,1.223-.375,1.536-1.126,1.536h-.772c-.586,0-1.223-.225-1.223-1.536v-3.086a.26.26,0,0,0-.255-.263h-2.06a.26.26,0,0,0-.255.263v3.086c0,1.223-.375,1.536-1.126,1.536H1440c.009-1.681,0-3.452-.026-4.057a.564.564,0,0,0-.368-.588,5.594,5.594,0,0,0-2.06-.381,6.618,6.618,0,0,0-2.126.3,3.984,3.984,0,0,0-2.917,3.859,3.632,3.632,0,0,0,3.949,3.872h.908c0,.556-.212.927-1.016.927h-2.479a.261.261,0,0,0-.256.267v2.189a.259.259,0,0,0,.256.264l2.827,0c1.817,0,3.143-1.314,3.26-3.65H1450.1a2.2,2.2,0,0,0,2.156-1.752h.089a2.052,2.052,0,0,0,1.945,1.752h1.5a2.2,2.2,0,0,0,2.158-1.752h.092a2.049,2.049,0,0,0,1.944,1.752h.691c.823,0,1.544-.295,2.13-1.715h.087a3.633,3.633,0,0,0,3.024,1.815,3.22,3.22,0,0,0,2.4-.985,4.447,4.447,0,0,0,1.248-3.072,3.822,3.822,0,0,0-3.816-4.061m-28.408,5.146h-.773c-.783,0-1.3-.4-1.3-1.079a1.2,1.2,0,0,1,1.292-1.121h.636c.113,0,.147.067.147.157Zm28.221.151a1.252,1.252,0,0,1-1.23-1.262,1.321,1.321,0,0,1,1.293-1.352,1.256,1.256,0,0,1,1.2,1.318,1.229,1.229,0,0,1-1.266,1.3" transform="translate(-1426.555 -445.312)" fill="#1c7da9"/>
      <path id="Path_148694" data-name="Path 148694" d="M1477.413,467.858l-12.1-12.591a2.63,2.63,0,0,0-3.823,0l-10.152,10.561-16.886,17.567a2.907,2.907,0,0,0,0,3.986l12.1,12.593a2.681,2.681,0,0,0,1.918.823,2.651,2.651,0,0,0,1.908-.823l15.141-15.757,11.9-12.38a2.9,2.9,0,0,0,0-3.978" transform="translate(-1426.317 -454.443)" fill="#fff"/>
      <path id="Path_148695" data-name="Path 148695" d="M1463.273,472.179a3.414,3.414,0,0,1-4.956,0,3.741,3.741,0,0,1,0-5.157,3.406,3.406,0,0,1,4.956,0,3.75,3.75,0,0,1,0,5.157m10.64-3.641-12.1-12.584a1.44,1.44,0,0,0-2.114,0l-13.085,13.609,14.211,14.793,13.085-13.62a1.6,1.6,0,0,0,0-2.2" transform="translate(-1423.673 -454.228)" fill="#e22f47"/>
      <path id="Path_148696" data-name="Path 148696" d="M1450.912,480.152a3.4,3.4,0,0,1,4.955,0,3.731,3.731,0,0,1,0,5.157,3.408,3.408,0,0,1-4.955,0,3.747,3.747,0,0,1,0-5.157m-5.329,5.014a3.424,3.424,0,0,1-4.96,0,3.77,3.77,0,0,1,0-5.162,3.418,3.418,0,0,1,4.96,0,3.766,3.766,0,0,1,0,5.162m-10.479-3.63a1.6,1.6,0,0,0,0,2.2l12.1,12.584a1.449,1.449,0,0,0,2.115,0l13.075-13.6-14.218-14.79Z" transform="translate(-1426.113 -451.69)" fill="#1c7da9"/>
      <path id="Path_148697" data-name="Path 148697" d="M1451.84,492.223V490.63h-.553v-.378h1.5v.378h-.543v1.593Z" transform="translate(-1422.72 -447.133)" fill="#1c7da9"/>
      <path id="Path_148698" data-name="Path 148698" d="M1454.4,492.223V490.8l-.536,1.423h-.178l-.53-1.423v1.423h-.4v-1.971h.566l.46,1.225.465-1.225h.567v1.971Z" transform="translate(-1422.422 -447.133)" fill="#1c7da9"/>
    </g>
  </g>
</svg>
