<svg xmlns="http://www.w3.org/2000/svg" width="101" height="100" viewBox="0 0 101 100">
  <g id="Group_132138" data-name="Group 132138" transform="translate(0.443)" opacity="0.4">
    <rect id="Rectangle_110162" data-name="Rectangle 110162" width="101" height="100" rx="8" transform="translate(-0.443)" fill="#fff" opacity="0"/>
    <g id="Group_131177" data-name="Group 131177" transform="translate(14.671 13.198)">
      <path id="Path_148644" data-name="Path 148644" d="M1833.861,303.041c-2.971,0-5.943-.005-8.914,0a3.62,3.62,0,0,1-2.8-1.205c-.187-.205-.273-.226-.481-.005A3.54,3.54,0,0,1,1819,303.04q-12.907,0-25.813,0c-.52,0-.586-.12-.326-.583.654-1.161,1.317-2.321,1.96-3.488a.735.735,0,0,1,.74-.433c2.281.02,4.563,0,6.844.019.35,0,.446-.1.444-.465-.013-3.574-.007-7.15-.006-10.725,0-.7,0-.7.68-.7,3.2,0,6.394-.022,9.59.008a4.119,4.119,0,0,1,3.994,2.7,3.276,3.276,0,0,1,.232,1.329c0,2.461.007,4.922-.009,7.384,0,.363.091.477.443.468.957-.026,1.915-.03,2.873,0,.376.012.467-.1.466-.488-.013-5.54-.005-11.077-.018-16.618a.733.733,0,0,1,.4-.732c1.111-.66,2.206-1.352,3.312-2.023.514-.314.631-.237.631.382q0,9.477-.011,18.945c0,.423.1.547.509.534.928-.033,1.859-.027,2.787,0,.345.009.454-.084.452-.46-.018-2.373-.01-4.747-.008-7.121a4.188,4.188,0,0,1,4.093-4.295c3.322-.019,6.647,0,9.97,0,.479,0,.562.151.323.58-.673,1.2-1.356,2.4-2.021,3.6a.667.667,0,0,1-.679.382c-2.028-.014-4.056-.008-6.084-.008-.891,0-1.216.347-1.217,1.28,0,1.862.006,3.724-.014,5.584,0,.374.107.459.452.457,3.028-.015,6.056-.009,9.084-.009.615,0,.617,0,.618.62q0,1.649,0,3.3c0,.575,0,.576-.573.577h-9.252m-20.845-7.773c0-.967.006-1.934,0-2.9,0-.745-.355-1.126-1.054-1.131-1.478-.007-2.956,0-4.434-.009-.286,0-.352.1-.35.377.009,1.95,0,3.9.005,5.843a1,1,0,0,0,1.057,1.094c1.463.005,2.928-.01,4.391.011.333,0,.4-.12.393-.432-.017-.951-.007-1.9-.006-2.855" transform="translate(-1772.636 -239.65)" fill="#fff"/>
      <path id="Path_148645" data-name="Path 148645" d="M1795.04,269.749q0-4.334-.006-8.667c2.438-1.459,4.871-2.882,7.312-4.334.1-.056.267-.158.267-.158s-.011-.252-.012-.37c0-2.783,0-5.565,0-8.349,0-.163.016-.394.016-.394s.2-.154.32-.222l7.282-4.278v.461c0,2.726-.007,5.449.006,8.173,0,.154,0,.393,0,.393s-.219.146-.344.222c-2.234,1.327-4.452,2.687-6.7,4-.209.12-.568.366-.568.366s.009.395.012.652c.024,2.8.011,5.6.01,8.392q-3.8,2.288-7.6,4.571Z" transform="translate(-1772.418 -242.978)" fill="#fff"/>
      <path id="Path_148646" data-name="Path 148646" d="M1818.194,263.94c1.26.739,2.48,1.527,3.734,2.276,1.12.669,2.267,1.347,3.388,2.014l-7.607,4.582-.369-.221q-3.392-2.057-6.782-4.119c-.124-.078-.338-.225-.338-.225s-.259.141-.414.237c-1.237.775-2.491,1.518-3.742,2.267q-1.491.9-2.988,1.782c-.145.086-.3.153-.452.229l-7.588-4.5q3.8-2.285,7.6-4.572l7.585,4.554s.166-.114.262-.171l6.867-4.087c.181-.1.5-.28.5-.28" transform="translate(-1772.418 -241.038)" fill="#fff"/>
      <path id="Path_148647" data-name="Path 148647" d="M1781.846,285.3l-7.492-4.615,7.5-4.512,7.583,4.563s.221-.145.363-.232c2.285-1.386,4.9-3.029,7.187-4.409l7.429,4.691-7.4,4.516-7.584-4.565s-.233.138-.382.227Z" transform="translate(-1774.354 -239.878)" fill="#fff"/>
      <path id="Path_148648" data-name="Path 148648" d="M1788.094,264.529l.094-9.1q2.416,1.437,4.833,2.874c.891.53,1.776,1.072,2.664,1.61v9.124Z" transform="translate(-1773.068 -241.811)" fill="#fff"/>
      <path id="Path_148649" data-name="Path 148649" d="M1795.051,276.861c0-2.977-.015-6.011-.015-8.987l7.588,4.5-.145,9.178Z" transform="translate(-1772.418 -240.647)" fill="#fff"/>
      <path id="Path_148650" data-name="Path 148650" d="M1781.2,260.273v-.346s.171-.116.274-.178l7.359-4.319-.094,9.1-7.539,4.416Z" transform="translate(-1773.714 -241.811)" fill="#fff"/>
      <path id="Path_148651" data-name="Path 148651" d="M1823.369,259.906V269c-1.121-.667-2.268-1.342-3.388-2.013-1.253-.75-2.474-1.538-3.733-2.276-.245-.174-.346-.23-.346-.23s-.014-.32-.014-.43c.015-2.677-.049-5.357-.052-8.035,0-.159.009-.46,0-.619Z" transform="translate(-1770.471 -241.813)" fill="#fff"/>
      <path id="Path_148653" data-name="Path 148653" d="M1823.806,307.465c0-1.113.009-2.223-.005-3.338,0-.323.056-.47.416-.467,1.365.022,2.729.015,4.094,0,.288,0,.39.082.391.4.007,1.055.017,1.055-.981,1.058-.661,0-1.322.009-1.984,0-.252,0-.337.077-.345.348-.034,1.228-.042,1.228,1.145,1.228.422,0,.844.012,1.266,0,.262-.009.372.074.379.37.025,1.073.034,1.073-.992,1.073-.478,0-.957.014-1.435,0-.282-.012-.374.1-.361.382a9.507,9.507,0,0,1,0,.966c-.015.282.1.347.349.342.859-.008,1.717.008,2.574-.009.3-.006.382.09.383.395,0,1.026.013,1.026-.96,1.026-1.168,0-2.336-.015-3.5.008-.369.009-.446-.125-.439-.474.018-1.1.006-2.2.006-3.3" transform="translate(-1769.725 -237.297)" fill="#fff"/>
      <path id="Path_148654" data-name="Path 148654" d="M1829.287,306.919c0-.966.007-1.931-.006-2.895,0-.271.083-.351.338-.36,1.177-.038,1.177-.046,1.177,1.19,0,1.463,0,2.927,0,4.389,0,.406.052.747.561.715.115-.007.232.035.233.19,0,.323,0,.644,0,.966,0,.154-.108.189-.234.188-.254,0-.508.014-.759-.012a1.306,1.306,0,0,1-1.3-1.43c-.022-.98,0-1.961,0-2.941Z" transform="translate(-1769.212 -237.296)" fill="#fff"/>
    </g>
  </g>
</svg>
