<svg xmlns="http://www.w3.org/2000/svg" xmlns:xlink="http://www.w3.org/1999/xlink" width="136" height="136" viewBox="0 0 136 136">
  <defs>
    <filter id="Rectangle_110162" x="0" y="0" width="136" height="136" filterUnits="userSpaceOnUse">
      <feOffset dy="3" input="SourceAlpha"/>
      <feGaussianBlur stdDeviation="6" result="blur"/>
      <feFlood flood-color="#ececec" flood-opacity="0.161"/>
      <feComposite operator="in" in2="blur"/>
      <feComposite in="SourceGraphic"/>
    </filter>
  </defs>
  <g id="Group_132142" data-name="Group 132142" transform="translate(18 15)" opacity="0.4">
    <g transform="matrix(1, 0, 0, 1, -18, -15)" filter="url(#Rectangle_110162)">
      <rect id="Rectangle_110162-2" data-name="Rectangle 110162" width="100" height="100" rx="8" transform="translate(18 15)" fill="#fff" opacity="0"/>
    </g>
    <g id="Group_131175" data-name="Group 131175" transform="translate(14.433 22.305)">
      <path id="Path_147645" data-name="Path 147645" d="M664.979,259.848a.85.85,0,0,0,.052-.461c0-3.659.008-7.319-.009-10.979,0-.409.13-.5.493-.491,1.321.018,2.644.061,3.961-.01a3.625,3.625,0,0,1,3.022,1.338c.709.778,1.446,1.53,2.176,2.288a.853.853,0,0,0,1.375.014c.869-.883,1.718-1.787,2.586-2.672a2.962,2.962,0,0,1,2.22-.953c1.477.01,2.956.011,4.433-.006.365,0,.476.136.475.5q-.009,10.491-.006,20.978c0,.481-.05.527-.528.528q-2.59,0-5.178,0c-.523,0-.558-.036-.559-.579q0-4.732,0-9.468c0-.109,0-.216,0-.326,0-.08.013-.176-.065-.221-.1-.06-.172.032-.234.1q-1.124,1.163-2.243,2.333c-.462.486-.9,1-1.659.916a1.593,1.593,0,0,1-1.08-.486c-.849-.906-1.718-1.792-2.58-2.681-.091-.1-.193-.179-.3-.271-.133.138-.077.3-.077.434q-.006,4.8,0,9.591c0,.646-.013.661-.639.662-1.176,0-2.354,0-3.53,0a6.658,6.658,0,0,1-3.364-.782,6.123,6.123,0,0,1-2.062-2.077c-1.248-1.894-2.467-3.809-3.68-5.727-.71-1.122-1.384-2.269-2.136-3.364a2.3,2.3,0,0,0-1.342-1.114,1.81,1.81,0,0,0-1.947.915c-.924,1.3-1.717,2.692-2.592,4.024a44.632,44.632,0,0,1-2.813,4.306,10.934,10.934,0,0,1-4.376,3.133,10.631,10.631,0,0,1-3.952.723,9.6,9.6,0,0,1-3.717-.693,10.2,10.2,0,0,1-2.858-1.739.389.389,0,0,0-.6,0c-1.562,1.318-3.242.757-5.237.981a7.877,7.877,0,0,1-4.821-.839,7.218,7.218,0,0,1-3.882-3.456c-.867-1.424-2.041-2.531-2.186-4.24a9.592,9.592,0,0,1,.511-4.623c.442-1.217,1.086-1.573,1.921-2.538,1.051-1.22,1.818-2.557,3.279-3.18a8.13,8.13,0,0,1,6.747-.4,9.828,9.828,0,0,1,1.977.631c.313.182.244-.011-.02.257-1.05,1.05-1.117,2.33-1.71,3.7a11.731,11.731,0,0,0-.378,1.113c-.076.239-.189.251-.379.12a4.115,4.115,0,0,0-3.938-.5c-1.7.639-3.8,2.355-3.861,4.4a6.393,6.393,0,0,0,4.453,5.582c1.415.29,2.79-1.112,3.833-2.13a2.549,2.549,0,0,1,1.607-.841c1.467-.147,2.924-.409,4.39-.646h-.375c-2.5,0-4.845-1.017-7.342-1.011-.812,0-.909.448-1.281-.226-.383-.7-.289-.815.143-1.46.367-.545.333-1.016.988-1.035s1.349.013,2.016.029c.3.007.391-.468.45-.789a9.756,9.756,0,0,1,1.683-3.914,11.129,11.129,0,0,1,4.1-3.586,9.912,9.912,0,0,1,6.459-.829,10.912,10.912,0,0,1,4.488,2.051c.232.172.261.314.1.565-1,1.556-1.979,3.132-2.992,4.679-.325.5-.317.435-.672.108a4.093,4.093,0,0,0-3.884-.977,4.238,4.238,0,0,0-2.662,2.008c-.094.147-.14.27.09.32.173.038.212.176.227.336a11.71,11.71,0,0,1-.142,4.089.653.653,0,0,0,.169.694,4.1,4.1,0,0,0,2.523,1.278,4.272,4.272,0,0,0,4.312-1.63c.613-.825,1.093-1.756,1.641-2.633q2.155-3.451,4.316-6.9a12.329,12.329,0,0,1,2.063-2.653,5.638,5.638,0,0,1,7.864.314,23.484,23.484,0,0,1,2.387,3.323c.913,1.407,1.8,2.831,2.693,4.253.45.714.892,1.435,1.34,2.152a.733.733,0,0,0,.339.365" transform="translate(-614.407 -247.902)" fill="#fff"/>
      <path id="Path_147646" data-name="Path 147646" d="M637.786,287.742c.018-.541-.021-1.179.03-1.818.019-.245.085-.349.325-.324.129.015.262,0,.391.006s.275.006.287.2c.01.152.015.326-.157.377-.258.074-.255.268-.255.479q0,1.673,0,3.345c0,.475-.056.5-.495.493-.574-.012-1.148.019-1.722.032a.89.89,0,0,0-.423.2,1.633,1.633,0,0,1-1.951-.047.9.9,0,0,0-.593-.159,2.018,2.018,0,0,1-1.456-.345.2.2,0,0,0-.284.012,1.478,1.478,0,0,1-1.981-.01.21.21,0,0,0-.287-.01c-.608.5-1.32.333-2,.344-.653.01-1.305.01-1.958.013a.751.751,0,0,0-.4.154,1.669,1.669,0,0,1-2.053-.018.691.691,0,0,0-.441-.139c-.275,0-.551.019-.824-.006-.384-.032-.644.042-.714.517a.874.874,0,0,1-.675.672,1.883,1.883,0,0,1-1.16-.023c-.191-.063-.33-.18-.246-.422s.232-.208.414-.148a1.222,1.222,0,0,0,.847,0,.424.424,0,0,0,.3-.432c-.022-.2-.223-.151-.352-.17a3.131,3.131,0,0,1-.937-.268,1.471,1.471,0,0,1-.83-1.287,1.536,1.536,0,0,1,.636-1.371,2.563,2.563,0,0,1,1.841-.4c.233.011.252.2.253.382,0,.625.011,1.252,0,1.876-.006.313.1.466.41.429.039,0,.078,0,.117,0,.689,0,.667,0,.717-.692a1.67,1.67,0,0,1,1.66-1.717,1.74,1.74,0,0,1,1.723,1.748c.013.661.013.661.674.661.737,0,.737,0,.738-.782,0-.42,0-.843,0-1.263,0-.223.08-.377.317-.371s.258.172.256.369c-.007.529.012,1.06-.011,1.59-.016.367.126.5.459.459.065-.006.131,0,.2,0,.7,0,.891-.2.9-.916,0-.366,0-.733,0-1.1,0-.2.006-.4.274-.4s.3.18.3.416q-.02.594,0,1.185a.825.825,0,0,0,.876.879c.475,0,.742-.315.745-.886,0-.6,0-1.2,0-1.794,0-.206.031-.391.284-.4s.281.186.282.388c0,.613,0,1.223,0,1.836,0,.527.181.732.687.781.1.008.21,0,.314.008.263.03.341-.082.311-.356a1.748,1.748,0,0,1,.485-1.526,1.73,1.73,0,0,1,1.927-.354,1.754,1.754,0,0,1,.95,1.734c-.057.466.116.515.483.508.8-.016.8,0,.8-.811v-1.324m-12.817,1.506a1.117,1.117,0,1,0-1.131,1.17,1.194,1.194,0,0,0,1.131-1.17m8.745.024a1.106,1.106,0,0,0,1.092,1.145,1.178,1.178,0,0,0,1.143-1.194,1.166,1.166,0,0,0-1.151-1.142,1.132,1.132,0,0,0-1.083,1.192m-13.364-.463h0c0-.244,0-.489,0-.732a.27.27,0,0,0-.208-.3,1.277,1.277,0,0,0-1.381.932,1.08,1.08,0,0,0,.942,1.143c.566.09.649.019.651-.556v-.488" transform="translate(-614.512 -249.343)" fill="#fff"/>
      <path id="Path_147647" data-name="Path 147647" d="M672.093,283.992h-12.16a2.262,2.262,0,0,1-1.507-.469,1.492,1.492,0,0,1-.5-1.539,1.51,1.51,0,0,1,1.023-1.185,1.982,1.982,0,0,1,.726-.154.362.362,0,0,0,.349-.143.3.3,0,0,1,.409-.133c.174.076.191.245.191.412,0,.7.022,1.39,0,2.081-.014.4.1.547.506.543q2.844-.033,5.688,0c.377,0,.509-.118.492-.511-.025-.6-.007-1.2,0-1.8,0-.208,0-.429.284-.438s.285.216.285.425c0,.625.01,1.25,0,1.877-.006.3.087.443.4.44q2.138-.019,4.276,0c.29,0,.393-.106.386-.406-.015-.612-.009-1.222,0-1.835,0-.218-.069-.513.287-.5.336.015.28.3.282.521.007.571.017,1.144,0,1.714-.012.362.1.515.468.507q1.511-.033,3.02,0c.36.008.455-.139.431-.483a1.444,1.444,0,0,1,.653-1.469,1.166,1.166,0,0,1,1.761.894,4.914,4.914,0,0,1,.036.772c0,.16.054.265.221.27.144,0,.329.022.35-.172a2.4,2.4,0,0,0-.42-2.076,1.813,1.813,0,0,0-2.187-.268c-.186.074-.345.156-.458-.092-.078-.17-.074-.315.116-.406,1.655-.79,3.457-.2,3.561,2.005,0,.081,0,.164,0,.244,0,.8-.151.772.723.771H683.9c.511,0,.514,0,.516-.554,0-1.074,0-2.151,0-3.226,0-.181-.054-.425.173-.489a.94.94,0,0,1,.8.039.248.248,0,0,1-.046.453c-.313.1-.312.312-.312.566q0,1.571,0,3.143c0,.615-.05.665-.657.666H672.093m-12.081-1.657h0c0-.27,0-.539,0-.81,0-.2-.106-.281-.293-.3a1.224,1.224,0,0,0-1.244,1,1.149,1.149,0,0,0,.957,1.149c.469.089.58-.007.585-.513,0-.174,0-.352,0-.528m18.639,1.06c.632,0,.648-.014.651-.548,0-.57-.253-.954-.637-.954s-.678.4-.675.933c0,.51.075.57.661.569" transform="translate(-616.029 -249.093)" fill="#fff"/>
      <path id="Path_147648" data-name="Path 147648" d="M642.793,283.992h-8.864c-.57,0-.59-.021-.591-.623q0-1.816,0-3.634c0-.094,0-.19,0-.287.009-.189.042-.361.281-.351s.262.187.266.374,0,.379,0,.571c0,.965.009,1.93,0,2.9,0,.324.1.465.429.463q3.823-.014,7.648,0c.335,0,.388-.116.26-.412-.166-.382-.3-.781-.481-1.16a.46.46,0,0,1,.133-.639,2.14,2.14,0,0,1,2.979.035.393.393,0,0,1,.121.507c-.159.389-.308.778-.475,1.161s-.11.5.289.5c2.171,0,4.341,0,6.511.009.3,0,.383-.118.381-.413-.01-1.129-.007-2.258,0-3.385,0-.179-.072-.426.17-.485a.877.877,0,0,1,.76.041.263.263,0,0,1-.093.475c-.252.082-.269.25-.268.465q0,1.633,0,3.266c0,.6-.023.625-.592.625h-8.865m.525-.6c.215.015.4,0,.488-.244.157-.428.32-.856.5-1.277a.25.25,0,0,0-.115-.367,1.487,1.487,0,0,0-1.526-.076.376.376,0,0,0-.217.522c.138.365.287.726.4,1.1.081.264.222.383.474.344" transform="translate(-615.09 -249.093)" fill="#fff"/>
      <path id="Path_147649" data-name="Path 147649" d="M622.813,283.444c1.712,0,3.424-.006,5.136.006.322,0,.433-.069.377-.442a1.761,1.761,0,0,1,1.241-1.962,1.706,1.706,0,0,1,1.992,1.035,1.863,1.863,0,0,1-.666,2.226,1.787,1.787,0,0,1-1.894-.083.927.927,0,0,0-.662-.181q-5.841,0-11.684,0a3.148,3.148,0,0,1-1.076-.176,1.56,1.56,0,0,1-1.069-1.54,1.6,1.6,0,0,1,1.094-1.486,3.251,3.251,0,0,1,.612-.136.589.589,0,0,0,.481-.214.3.3,0,0,1,.393-.075c.146.061.155.208.155.344,0,.747.014,1.5,0,2.244-.008.341.115.445.436.443,1.712-.013,3.424-.006,5.137-.006m6.113-.655a1.044,1.044,0,0,0,1.084,1.152,1.126,1.126,0,0,0,1.106-1.169A1.156,1.156,0,0,0,630,281.61a1.074,1.074,0,0,0-1.07,1.179m-12.255-.418h0c0-.258,0-.514,0-.773a.275.275,0,0,0-.238-.312,1.129,1.129,0,0,0-1.278,1.354,1.112,1.112,0,0,0,1,.791c.416.084.516-.01.523-.447,0-.2,0-.409,0-.613" transform="translate(-614.371 -249.144)" fill="#fff"/>
      <path id="Path_147650" data-name="Path 147650" d="M662.834,287.748c0-.583,0-1.169,0-1.752,0-.165.006-.365.214-.372.274-.009.589-.146.81.116a.26.26,0,0,1-.1.413c-.34.1-.3.358-.3.615,0,1.047,0,2.092,0,3.138,0,.566-.047.611-.574.615-.287,0-.574,0-.862,0a2.521,2.521,0,0,0-1.354.264,1.643,1.643,0,0,1-1.852-.113c-.466-.311-1.018-.139-1.531-.117-.178.009-.148.227-.171.368a.891.891,0,0,1-1.009.842c-.138-.017-.276-.041-.279-.218s.041-.355.241-.359c.452-.007.485-.316.485-.669q0-1.447,0-2.895c0-.158-.034-.356.16-.416.25-.08.41.013.411.313,0,.613,0,1.222,0,1.834,0,.51.016.5.554.523.373.016.537-.073.52-.515a1.671,1.671,0,1,1,3.324-.345c.048.878.047.864.885.86.324,0,.442-.122.432-.456-.017-.556,0-1.114,0-1.672Zm-1.882,1.492a1.084,1.084,0,0,0-1.133-1.158,1.113,1.113,0,0,0-1.063,1.162,1.147,1.147,0,0,0,1.1,1.175,1.132,1.132,0,0,0,1.093-1.179" transform="translate(-615.95 -249.342)" fill="#fff"/>
      <path id="Path_147651" data-name="Path 147651" d="M654.469,262.852v-1.914a.6.6,0,0,1,.264-.6c.219-.117.412.018.573.153.7.581,1.414,1.158,2.095,1.77a.784.784,0,0,1-.032,1.288c-.672.578-1.358,1.141-2.044,1.705a.552.552,0,0,1-.614.155c-.224-.117-.241-.369-.241-.606,0-.652,0-1.3,0-1.955" transform="translate(-615.898 -248.376)" fill="#fff"/>
      <path id="Path_147652" data-name="Path 147652" d="M654.936,288.9c0,.435,0,.869,0,1.3,0,.234-.07.325-.317.345-.615.048-1.228.012-1.842.038-.383.015-.55-.191-.51-.541.064-.546-.034-1.085-.022-1.627,0-.228.118-.551-.283-.593a.724.724,0,0,0-.879.546,2.605,2.605,0,0,0-.02.407c0,.614-.006,1.223,0,1.836,0,.382-.129.588-.534.552a6.017,6.017,0,0,1-1.9-.161,1.34,1.34,0,0,1-.85-1.21c-.039-.377-.011-.76-.012-1.143,0-.2.051-.353.28-.356s.289.143.289.346c0,.314-.009.628.011.938a.832.832,0,0,0,.761.925l.039.009c1.134.254,1.289.123,1.3-1.054a4.176,4.176,0,0,1,.112-1.454,1.068,1.068,0,0,1,.9-.742,8.265,8.265,0,0,1,1.135-.032c.233,0,.229.171.23.339,0,.653.021,1.307,0,1.957-.009.314.115.415.391.4.247-.011.5-.013.744,0,.313.021.413-.133.407-.44-.013-.583-.007-1.169,0-1.752,0-.229-.03-.5.308-.5s.253.275.257.475c.008.394,0,.789,0,1.182Z" transform="translate(-615.642 -249.406)" fill="#fff"/>
      <path id="Path_147653" data-name="Path 147653" d="M677.035,287.478c0-.5,0-1.007,0-1.508,0-.186.016-.382.241-.4.24-.022.525-.119.7.1a.32.32,0,0,1-.117.513c-.18.085-.2.229-.2.4-.027.912.058,1.823-.054,2.73a.365.365,0,0,0,.162.351,1.05,1.05,0,0,0,.429.19c.7.12.775.037.6-.652a1.721,1.721,0,0,1,.577-1.78,1.819,1.819,0,0,1,1.866-.062c.137.091.221.19.15.367a.266.266,0,0,1-.35.174c-.164-.04-.328-.1-.494-.125a1,1,0,0,0-1.212,1.266c.124.729.24.83.945.831.327,0,.654,0,.981,0,.194,0,.383.028.385.292a.315.315,0,0,1-.352.346c-1.044,0-2.089.047-3.131-.05a.6.6,0,0,1-.4-.147c-.318-.349-.6-.2-.947-.024a4.168,4.168,0,0,1-2.158.2c-.2-.01-.225-.208-.224-.376,0-.2.143-.239.3-.241.406,0,.811,0,1.216-.006.819-.009,1.089-.288,1.092-1.126,0-.421,0-.843,0-1.265" transform="translate(-616.662 -249.341)" fill="#fff"/>
      <path id="Path_147654" data-name="Path 147654" d="M674.068,302.642c-.294.826-.591,1.653-.88,2.48-.076.218-.154.386-.424.393s-.4-.161-.481-.39c-.241-.673-.477-1.349-.715-2.026a.782.782,0,0,0-.2-.416.8.8,0,0,0-.049.432c0,.68,0,1.36,0,2.04,0,.2-.056.346-.284.352s-.332-.119-.331-.35q0-1.692,0-3.384c0-.21.067-.388.292-.418.269-.037.543-.025.663.29.185.493.351.993.52,1.493.131.383.253.769.386,1.155a3.047,3.047,0,0,0,.166.324,4.351,4.351,0,0,0,.375-.916c.232-.666.465-1.327.689-2a.479.479,0,0,1,.5-.369c.29-.006.434.094.431.42-.01,1.115,0,2.229,0,3.347,0,.2,0,.393-.271.4-.286,0-.3-.2-.3-.415v-2.442l-.08,0" transform="translate(-616.519 -249.945)" fill="#fff"/>
      <path id="Path_147655" data-name="Path 147655" d="M660.057,296.969c-.3.838-.61,1.672-.9,2.514a.4.4,0,0,1-.431.324.43.43,0,0,1-.429-.339c-.248-.717-.507-1.427-.756-2.142a1.14,1.14,0,0,0-.242-.457v1.982c0,.19,0,.381,0,.572s-.031.362-.266.367-.279-.156-.284-.351c0-.053,0-.109,0-.164q0-1.549,0-3.1c0-.23-.036-.483.291-.521.3-.036.542.017.655.361.235.7.479,1.408.721,2.109a2.489,2.489,0,0,0,.347.792c.231-.639.451-1.236.664-1.836.122-.343.247-.689.345-1.04.1-.379.365-.417.673-.385s.3.291.3.521c0,1.058,0,2.12,0,3.179,0,.206.009.436-.282.436s-.336-.2-.336-.441c0-.8,0-1.6,0-2.394l-.066.01" transform="translate(-615.986 -249.728)" fill="#fff"/>
      <path id="Path_147656" data-name="Path 147656" d="M664.318,298.906c.345-.974.693-1.9.995-2.833a.531.531,0,0,1,.649-.419c.344.03.328.3.328.541,0,1.047,0,2.092,0,3.139,0,.217.02.466-.3.461-.3-.008-.317-.226-.317-.459,0-.787,0-1.573-.061-2.376-.231.636-.462,1.27-.692,1.906-.069.189-.144.38-.2.574-.069.231-.182.373-.442.368s-.369-.143-.447-.371c-.253-.744-.514-1.483-.774-2.225a.5.5,0,0,0-.21-.27v1.4c0,.342,0,.681,0,1.021,0,.206.008.439-.285.429s-.27-.245-.271-.447c0-.735,0-1.468,0-2.2,0-.327,0-.654,0-.979,0-.214-.029-.464.27-.5.282-.032.542-.039.663.331.262.8.548,1.582.826,2.373a1.119,1.119,0,0,0,.273.54" transform="translate(-616.197 -249.728)" fill="#fff"/>
      <path id="Path_147657" data-name="Path 147657" d="M687.13,287.709c0-.571,0-1.141,0-1.709,0-.163-.006-.363.208-.378.252-.015.546-.128.744.092a.276.276,0,0,1-.125.461c-.257.08-.261.263-.26.474q0,1.672,0,3.341c0,.486-.07.545-.524.516-.168-.01-.337,0-.507,0a1.457,1.457,0,0,1-1.2-.373c-.137-.147-.241-.13-.4-.02a3.717,3.717,0,0,1-2.43.378c-.208-.01-.27-.194-.263-.388s.153-.233.3-.235c.443,0,.888,0,1.331-.006.68-.014.945-.3.949-1,0-.924,0-1.848,0-2.771,0-.183-.047-.413.174-.493a.894.894,0,0,1,.725.013.326.326,0,0,1-.079.554c-.23.083-.252.231-.252.436,0,.868.01,1.738-.011,2.607a.557.557,0,0,0,.367.561,1.929,1.929,0,0,0,1.041.073c.207-.025.2-.222.2-.386,0-.583,0-1.168,0-1.752Z" transform="translate(-616.965 -249.341)" fill="#fff"/>
      <path id="Path_147658" data-name="Path 147658" d="M668.99,291.088a1.948,1.948,0,0,1,.539-1.594c.05-.043.1-.115.152-.125.535-.088.748-.5,1-.942a1.563,1.563,0,0,1,1.92-.693,1.821,1.821,0,0,1,0,3.391,1.711,1.711,0,0,1-2.06-.9c-.088-.174-.073-.485-.388-.4a.662.662,0,0,0-.519.6c-.035.35-.022.705-.034,1.059-.006.174-.048.327-.249.355s-.346-.022-.361-.259c-.01-.163,0-.326,0-.49m4.154-1.665a1.067,1.067,0,0,0-1.088-1.167,1.159,1.159,0,0,0-1.108,1.145,1.174,1.174,0,0,0,1.148,1.19,1.071,1.071,0,0,0,1.047-1.169" transform="translate(-616.454 -249.421)" fill="#fff"/>
      <path id="Path_147659" data-name="Path 147659" d="M685.432,296.779c0,.826,0,1.655,0,2.48a1.221,1.221,0,0,1-.05.4c-.056.15-.2.15-.338.134a.258.258,0,0,1-.222-.29q0-1.773,0-3.548a.266.266,0,0,1,.263-.3c.222-.016.444-.048.585.211.38.7.768,1.389,1.153,2.083.1.175.193.355.293.528.044.08.072.206.184.176s.083-.158.083-.248c0-.72,0-1.442,0-2.162a2.57,2.57,0,0,1,.02-.366.236.236,0,0,1,.247-.213.244.244,0,0,1,.282.219,1.757,1.757,0,0,1,.017.284c0,1.034,0,2.069,0,3.1,0,.189.067.455-.2.5s-.543.067-.716-.258c-.461-.869-.939-1.726-1.41-2.59-.031-.056-.066-.112-.1-.168Z" transform="translate(-617.059 -249.728)" fill="#fff"/>
      <path id="Path_147660" data-name="Path 147660" d="M625.646,298.731c.131-.115.074-.276.075-.415.007-.733,0-1.47.006-2.2,0-.2-.013-.441.275-.441s.277.236.278.44q0,1.593,0,3.184c0,.194.052.441-.224.494s-.519.053-.68-.249q-.569-1.07-1.153-2.133a1.451,1.451,0,0,0-.512-.663V297.9c0,.448,0,.894.043,1.343.023.238.045.537-.306.544-.333.007-.3-.275-.3-.5,0-1.019,0-2.041,0-3.059,0-.231-.023-.484.279-.551a.534.534,0,0,1,.655.3c.455.857.924,1.7,1.389,2.553.043.08.063.186.177.21" transform="translate(-614.701 -249.728)" fill="#fff"/>
      <path id="Path_147661" data-name="Path 147661" d="M644.563,289.1c0,.491.021.981,0,1.469a1.366,1.366,0,0,1-2.087,1.126.272.272,0,0,1-.108-.379c.061-.166.171-.246.337-.177a1.488,1.488,0,0,0,.693.1.569.569,0,0,0,.414-.2c.187-.223.131-.393-.151-.45a4,4,0,0,1-.944-.248,1.431,1.431,0,0,1-.88-1.289,1.573,1.573,0,0,1,.689-1.464,2.6,2.6,0,0,1,1.778-.334c.221.015.264.191.264.384,0,.488,0,.977,0,1.467m-.62-.2c0-.244,0-.488,0-.732,0-.121,0-.267-.161-.273a1.2,1.2,0,0,0-1.113.34,1.118,1.118,0,0,0-.159,1.109.924.924,0,0,0,.87.579c.5.064.562-.006.564-.535,0-.164,0-.326,0-.488" transform="translate(-615.415 -249.405)" fill="#fff"/>
      <path id="Path_147662" data-name="Path 147662" d="M655.46,297.731a1.993,1.993,0,0,1-2.039,2.133,2.03,2.03,0,0,1-2.04-2.117,2.042,2.042,0,1,1,4.079-.016M652,297.713a1.491,1.491,0,0,0,1.479,1.588,1.572,1.572,0,0,0-.036-3.128,1.455,1.455,0,0,0-1.443,1.54" transform="translate(-615.78 -249.725)" fill="#fff"/>
      <path id="Path_147663" data-name="Path 147663" d="M644.783,305.526a1.941,1.941,0,0,1-2.028-2.092,2.023,2.023,0,0,1,2.08-2.116,2.086,2.086,0,0,1,2.038,2.129,1.99,1.99,0,0,1-2.089,2.078m.025-3.616a1.434,1.434,0,0,0-1.442,1.493,1.479,1.479,0,0,0,1.44,1.594,1.547,1.547,0,0,0,0-3.086" transform="translate(-615.451 -249.944)" fill="#fff"/>
      <path id="Path_147664" data-name="Path 147664" d="M679.491,297.715a2.046,2.046,0,1,1,2.039,2.165,2.065,2.065,0,0,1-2.039-2.165m3.461,0a1.476,1.476,0,0,0-1.436-1.553,1.55,1.55,0,0,0-1.444,1.573,1.52,1.52,0,0,0,1.478,1.566,1.46,1.46,0,0,0,1.4-1.585" transform="translate(-616.855 -249.725)" fill="#fff"/>
      <path id="Path_147665" data-name="Path 147665" d="M619.565,305.536a2.02,2.02,0,0,1-2.042-2.138,2.085,2.085,0,0,1,2.089-2.076,2.026,2.026,0,0,1,2.019,2.164,1.982,1.982,0,0,1-2.066,2.051m.027-3.627a1.447,1.447,0,0,0-1.447,1.534,1.462,1.462,0,0,0,1.391,1.551,1.546,1.546,0,0,0,.057-3.085" transform="translate(-614.486 -249.944)" fill="#fff"/>
      <path id="Path_147666" data-name="Path 147666" d="M623.526,301.341a2.662,2.662,0,0,1,1.229.2,1.015,1.015,0,0,1,.647.894,1.055,1.055,0,0,1-.5,1.142c-.223.119-.277.247-.123.476.209.311.4.638.588.962.082.141.281.312.077.45a.377.377,0,0,1-.553-.131c-.235-.374-.462-.757-.7-1.132-.085-.138-.165-.276-.337-.321-.468-.127-.654.014-.658.523,0,.272,0,.543-.006.815a.264.264,0,0,1-.3.292c-.2,0-.281-.087-.28-.3.006-1.168,0-2.332,0-3.5,0-.258.113-.376.358-.369.17,0,.34,0,.549,0m-.327,1.275c0,.663,0,.663.565.661.7,0,1.062-.235,1.053-.677-.008-.423-.421-.672-1.119-.672-.5,0-.5,0-.5.689" transform="translate(-614.681 -249.945)" fill="#fff"/>
      <path id="Path_147667" data-name="Path 147667" d="M631.545,297.747c0-.557,0-1.114,0-1.67,0-.237.076-.411.324-.415a5.3,5.3,0,0,1,1.634.085,1.057,1.057,0,0,1,.837.911,1.13,1.13,0,0,1-.453,1.21c-.287.187-.245.348-.081.587.227.331.424.685.641,1.022.146.231.065.313-.17.328a.487.487,0,0,1-.483-.276c-.234-.391-.491-.77-.712-1.171-.192-.348-.492-.261-.763-.223s-.191.309-.2.5c-.011.272,0,.543,0,.815,0,.171.011.342-.22.348a.3.3,0,0,1-.35-.337c0-.571,0-1.142,0-1.712Zm.57-.822c0,.631.1.722.717.644.09-.013.18-.032.27-.04.341-.026.606-.13.643-.555.039-.45-.24-.6-.566-.7-.765-.235-1.065-.046-1.065.651" transform="translate(-615.022 -249.727)" fill="#fff"/>
      <path id="Path_147668" data-name="Path 147668" d="M679.484,303.431c0-.557.007-1.114,0-1.671,0-.289.1-.419.389-.423a4.484,4.484,0,0,1,1.546.2,1.878,1.878,0,0,1,1.306,2.019,1.976,1.976,0,0,1-1.484,1.868,6.25,6.25,0,0,1-1.443.081c-.24,0-.314-.141-.313-.365,0-.572,0-1.143,0-1.713m.575-.026h0c0,.393,0,.786,0,1.181,0,.138.012.288.178.318a1.5,1.5,0,0,0,1.786-.924,1.528,1.528,0,0,0-1.7-2.044c-.2,0-.26.147-.262.329,0,.381,0,.76,0,1.14" transform="translate(-616.855 -249.945)" fill="#fff"/>
      <path id="Path_147669" data-name="Path 147669" d="M637.174,303.4c0-.541.008-1.085,0-1.626-.006-.314.123-.438.419-.441a3.96,3.96,0,0,1,1.688.261,2.074,2.074,0,0,1-.263,3.818,5.991,5.991,0,0,1-1.556.091c-.257,0-.285-.19-.285-.394,0-.568,0-1.138,0-1.709m.563.039h0v.694c0,.842.02.858.844.775a1.386,1.386,0,0,0,1.252-1.289c.1-1.212-.868-1.721-1.83-1.69-.206.007-.262.144-.263.327,0,.4,0,.79,0,1.182" transform="translate(-615.237 -249.945)" fill="#fff"/>
      <path id="Path_147670" data-name="Path 147670" d="M617.873,298.6c0,1.043-.007,1.062-1.021,1.211a1.992,1.992,0,0,1-2.208-.945,2.407,2.407,0,0,1,.063-2.361,2.074,2.074,0,0,1,2.138-.867,4.675,4.675,0,0,1,.53.144c.187.07.441.1.318.431-.111.3-.3.238-.506.135a1.583,1.583,0,0,0-1.474.015,1.639,1.639,0,0,0-.56,2.164,1.5,1.5,0,0,0,1.939.651c.292-.165.2-.443.2-.688s-.21-.233-.379-.241c-.142-.008-.288-.006-.43-.025s-.218-.125-.223-.285a.223.223,0,0,1,.236-.261c.366-.008.732-.006,1.1,0,.193,0,.285.115.285.312v.613" transform="translate(-614.365 -249.726)" fill="#fff"/>
      <path id="Path_147671" data-name="Path 147671" d="M627.8,297.726c0-.53.007-1.06,0-1.588-.006-.337.113-.5.459-.49.535.014,1.07,0,1.605.006.208,0,.416.043.411.318s-.225.253-.407.256c-.366,0-.731.008-1.1,0-.249,0-.361.112-.35.368.006.148,0,.3,0,.447a.281.281,0,0,0,.319.318,4.94,4.94,0,0,1,.665.011c.248.032.661-.173.653.323-.007.45-.392.283-.637.307a5.674,5.674,0,0,1-.665.008c-.225,0-.321.1-.341.34-.068.841-.035.887.757.888.274,0,.548,0,.822.007.178.007.3.086.3.3-.009.192-.137.254-.294.255-.626.006-1.252,0-1.878,0-.268,0-.32-.176-.319-.407,0-.557,0-1.114,0-1.67" transform="translate(-614.879 -249.728)" fill="#fff"/>
      <path id="Path_147672" data-name="Path 147672" d="M616.343,290.583c-.274,0-.548-.007-.822,0-.38.012-.489.2-.312.549a1.673,1.673,0,0,0,.512.552c.11.084.336.147.2.362a.342.342,0,0,1-.486.12,1.665,1.665,0,0,1-.658-.618,2.331,2.331,0,0,1-.27-1.253c0-.124.016-.286.14-.312.393-.085.232-.333.175-.553a1.613,1.613,0,0,1,1.248-2.227,1.9,1.9,0,0,1,1.14.2.261.261,0,0,1,.146.365.252.252,0,0,1-.336.19c-.177-.044-.353-.1-.532-.132a.968.968,0,0,0-1.156,1.232c.025.146.062.292.093.437a.488.488,0,0,0,.561.438c.417-.014.835,0,1.252,0,.219,0,.345.092.34.34,0,.231-.134.3-.329.3h-.9Z" transform="translate(-614.37 -249.403)" fill="#fff"/>
      <path id="Path_147673" data-name="Path 147673" d="M619.389,297.738c0-.542.01-1.088,0-1.629-.008-.334.129-.468.444-.462.547.012,1.1,0,1.645.007.19,0,.386.042.393.3.008.275-.2.278-.388.279-.378,0-.757.007-1.135,0-.258,0-.4.093-.383.379.007.148,0,.3,0,.448,0,.259.13.356.378.34.313-.021.625-.009.939-.019.2-.007.372.022.381.288s-.164.34-.384.341c-.3,0-.6.013-.9,0s-.414.119-.42.434c-.015.8-.026.8.758.8.288,0,.575,0,.862,0,.179,0,.308.078.306.287s-.142.273-.316.274c-.6,0-1.2,0-1.8,0-.261,0-.38-.123-.376-.4.007-.556,0-1.113,0-1.67Z" transform="translate(-614.557 -249.727)" fill="#fff"/>
      <path id="Path_147674" data-name="Path 147674" d="M675.988,303.392c0-.542.016-1.088-.006-1.629-.012-.308.108-.426.384-.424.548,0,1.1,0,1.646,0,.214,0,.4.045.408.322s-.209.265-.391.267c-.366,0-.732.007-1.1,0-.268-.008-.386.116-.373.39,0,.122.006.245,0,.366-.014.255.1.381.343.38.325,0,.651-.012.977,0,.186,0,.385.035.393.3.01.285-.192.328-.4.335-.326.009-.653.009-.98.006-.226,0-.319.106-.337.344-.062.864-.049.885.794.886.274,0,.549,0,.823.009a.252.252,0,0,1,.275.276.26.26,0,0,1-.293.3c-.614,0-1.227,0-1.842,0-.27,0-.32-.173-.32-.4,0-.57,0-1.14,0-1.712Z" transform="translate(-616.721 -249.945)" fill="#fff"/>
      <path id="Path_147675" data-name="Path 147675" d="M637.028,295.658c.265,0,.392.17.48.4.4,1.075.812,2.148,1.207,3.223.058.157.222.377-.047.484a.333.333,0,0,1-.48-.271c-.143-.708-.556-.9-1.219-.839-.735.063-.741.013-1.012.771-.057.157-.11.312-.289.353a.33.33,0,0,1-.335-.041c-.1-.1-.027-.2.008-.3q.659-1.766,1.324-3.528a.349.349,0,0,1,.362-.253m.069.977-.1.014c-.141.387-.284.774-.423,1.165-.033.087-.068.215.046.241a2.429,2.429,0,0,0,.887,0c.07-.01.1-.087.072-.162-.157-.421-.317-.843-.477-1.263" transform="translate(-615.165 -249.728)" fill="#fff"/>
      <path id="Path_147676" data-name="Path 147676" d="M656.836,302.912c0-.392-.006-.787,0-1.182,0-.185.042-.372.273-.368s.269.187.271.372c.007.53,0,1.061,0,1.593,0,.175,0,.354.011.528a1.118,1.118,0,0,0,1.708,1.015.926.926,0,0,0,.465-.919c.019-.653.008-1.3.011-1.958a2.277,2.277,0,0,1,.021-.366.277.277,0,0,1,.3-.264.269.269,0,0,1,.282.28,10.373,10.373,0,0,1-.15,3.036,1.037,1.037,0,0,1-.623.7,2.111,2.111,0,0,1-2.06-.174,1.487,1.487,0,0,1-.51-1.226c-.019-.354,0-.708,0-1.062Z" transform="translate(-615.989 -249.946)" fill="#fff"/>
      <path id="Path_147677" data-name="Path 147677" d="M688.1,305.508a.3.3,0,0,1-.343-.288c-.14-.777-.62-.935-1.306-.873-.666.058-.669.014-.89.665a1.537,1.537,0,0,1-.153.371.343.343,0,0,1-.461.092c-.173-.077-.081-.229-.035-.351.429-1.133.861-2.267,1.285-3.4.076-.2.163-.366.4-.371s.349.165.426.357c.228.561.452,1.125.666,1.692s.422,1.166.641,1.745c.089.235.056.372-.234.367m-1.475-3.25c-.131.323-.219.547-.314.77-.325.765-.244.872.565.807.231-.02.317-.114.234-.337-.143-.387-.3-.771-.485-1.241" transform="translate(-617.06 -249.945)" fill="#fff"/>
      <path id="Path_147678" data-name="Path 147678" d="M632.027,305.227c.014.144-.013.237-.12.263-.159.037-.326.04-.417-.132s-.162-.371-.24-.556c-.026-.064-.044-.129-.073-.19-.211-.44-.6-.237-.909-.239s-.675-.191-.867.245c-.1.223-.2.443-.286.672a.322.322,0,0,1-.452.2c-.23-.082-.114-.276-.062-.414q.622-1.671,1.259-3.338c.08-.211.193-.392.451-.38.237.009.326.186.4.385q.614,1.609,1.232,3.217c.038.1.063.207.083.272m-1.8-1.4c.6.023.656-.057.447-.614-.08-.212-.166-.423-.25-.636-.029-.073-.045-.171-.139-.173s-.132.082-.151.161a5.8,5.8,0,0,1-.345.988c-.076.17-.013.254.165.254.1,0,.207.014.273.02" transform="translate(-614.907 -249.946)" fill="#fff"/>
      <path id="Path_147679" data-name="Path 147679" d="M660.808,305.169c.232-.617.482-1.285.736-1.955.192-.5.391-1.006.58-1.511.071-.188.161-.338.379-.356a.425.425,0,0,1,.441.331q.652,1.72,1.289,3.45c.045.124.106.281-.065.347a.315.315,0,0,1-.442-.132,1.752,1.752,0,0,1-.189-.445.61.61,0,0,0-.8-.539.945.945,0,0,1-.117,0c-.9.021-.84-.178-1.2.838-.072.2-.179.322-.4.313-.187-.008-.265-.091-.208-.34m1.68-1.339c.61-.007.643-.062.411-.636-.076-.186-.131-.381-.2-.571-.03-.085-.034-.2-.145-.215s-.138.1-.171.188c-.1.235-.2.468-.275.711-.156.475-.111.53.379.524" transform="translate(-616.14 -249.945)" fill="#fff"/>
      <path id="Path_147680" data-name="Path 147680" d="M635.985,303.03a9.491,9.491,0,0,1-.042,1.32,1.3,1.3,0,0,1-1.265,1.168,6.21,6.21,0,0,1-.626,0,1.32,1.32,0,0,1-1.365-1.282c-.092-.838.028-1.683-.062-2.523a.286.286,0,0,1,.293-.351c.214,0,.3.146.306.344.01.49.007.978.01,1.466,0,.233-.008.464.008.692a1.1,1.1,0,0,0,1.66,1.016,1.02,1.02,0,0,0,.518-1.02c.017-.6,0-1.2.008-1.792,0-.123,0-.245.006-.367.015-.192.075-.355.3-.344.2.008.248.167.25.343,0,.41,0,.817,0,1.325" transform="translate(-615.063 -249.945)" fill="#fff"/>
      <path id="Path_147681" data-name="Path 147681" d="M674.992,299.9c-.348-.073-.708-.138-1.062-.226-.211-.054-.364-.182-.266-.442.093-.242.26-.212.453-.134a1.923,1.923,0,0,0,1.145.175c.3-.067.545-.209.561-.578a.613.613,0,0,0-.494-.641c-.322-.113-.647-.216-.962-.344a1.076,1.076,0,0,1-.662-1.052,1.01,1.01,0,0,1,.692-.938,2.2,2.2,0,0,1,1.78.163.243.243,0,0,1,.136.363.267.267,0,0,1-.38.174,2.4,2.4,0,0,0-.628-.219,1.907,1.907,0,0,0-.311-.03c-.3.027-.615.1-.672.447s.215.512.5.624a5.031,5.031,0,0,1,1.056.422,1.1,1.1,0,0,1,.542,1.164,1.035,1.035,0,0,1-.842.943c-.192.043-.382.084-.592.129" transform="translate(-616.631 -249.726)" fill="#fff"/>
      <path id="Path_147682" data-name="Path 147682" d="M671.158,295.635a2,2,0,0,1,.951.219c.183.083.273.2.182.415-.082.19-.219.206-.39.145-.209-.078-.419-.152-.632-.215a.927.927,0,0,0-.65.065.473.473,0,0,0-.329.417.464.464,0,0,0,.311.47c.206.086.415.165.627.231a2.47,2.47,0,0,1,.746.352,1.043,1.043,0,0,1,.448,1.126,1.079,1.079,0,0,1-.8.9,2.865,2.865,0,0,1-1.658-.066c-.215-.064-.4-.169-.3-.463s.293-.194.479-.114a1.676,1.676,0,0,0,1.145.144c.28-.08.527-.2.542-.555a.651.651,0,0,0-.5-.644c-.243-.1-.5-.161-.744-.25a1.159,1.159,0,0,1-.869-1.312,1.126,1.126,0,0,1,1.18-.862c.078,0,.157,0,.27,0" transform="translate(-616.478 -249.727)" fill="#fff"/>
      <path id="Path_147683" data-name="Path 147683" d="M654.324,305.511a2.156,2.156,0,0,1-1.038-.152c-.194-.092-.354-.2-.229-.464.114-.244.267-.175.455-.09a1.781,1.781,0,0,0,1.261.125.561.561,0,0,0,.44-.553.544.544,0,0,0-.373-.551,10.57,10.57,0,0,1-1.236-.5,1.031,1.031,0,0,1-.511-1.134,1.065,1.065,0,0,1,.917-.838,2.144,2.144,0,0,1,1.417.178c.161.082.375.146.267.407s-.289.247-.489.134a1.621,1.621,0,0,0-.955-.156c-.265.014-.52.115-.57.4-.055.318.187.493.439.6a7.28,7.28,0,0,1,1.166.468,1.141,1.141,0,0,1,.524,1.257,1.089,1.089,0,0,1-1.016.867c-.156.014-.314,0-.47,0" transform="translate(-615.843 -249.943)" fill="#fff"/>
      <path id="Path_147684" data-name="Path 147684" d="M647.836,297.587a1.506,1.506,0,0,0,2.086,1.6,1.553,1.553,0,0,0,.217-.094c.167-.084.3-.075.382.127a.3.3,0,0,1-.141.412,2.158,2.158,0,0,1-3.166-1.7,2.059,2.059,0,0,1,.953-2.008,2.172,2.172,0,0,1,2.177-.082.283.283,0,0,1,.167.424c-.1.216-.266.192-.433.11a1.536,1.536,0,0,0-1.431-.041,1.434,1.434,0,0,0-.811,1.25" transform="translate(-615.621 -249.726)" fill="#fff"/>
      <path id="Path_147685" data-name="Path 147685" d="M649.01,304.59c.337-.941.636-1.777.935-2.615.017-.05.032-.1.053-.153.106-.243.184-.583.531-.448.33.13.088.417.028.591-.372,1.085-.776,2.16-1.164,3.239a.392.392,0,0,1-.4.31.414.414,0,0,1-.433-.33q-.63-1.754-1.265-3.5c-.04-.11-.073-.225.044-.288a.319.319,0,0,1,.428.066,1.534,1.534,0,0,1,.247.506q.362,1.075.743,2.143a4.226,4.226,0,0,0,.253.483" transform="translate(-615.623 -249.945)" fill="#fff"/>
      <path id="Path_147686" data-name="Path 147686" d="M614.655,303.464c0-.543.007-1.089,0-1.631-.006-.346.145-.5.472-.5.522.006,1.045,0,1.568,0,.207,0,.354.051.357.316,0,.3-.188.272-.371.272-.353,0-.706.012-1.059,0-.283-.009-.394.11-.4.406-.019.709-.016.716.683.724.235,0,.469.032.7.039.182.007.312.07.309.281a.292.292,0,0,1-.3.307c-.313.014-.627.021-.94.011s-.462.113-.448.453,0,.654,0,.98c0,.21-.038.384-.3.377-.238-.006-.266-.177-.267-.366,0-.557,0-1.115,0-1.672Z" transform="translate(-614.376 -249.945)" fill="#fff"/>
      <path id="Path_147687" data-name="Path 147687" d="M665.691,303.166c0,.392,0,.786,0,1.181,0,.573.007.577.577.58.313,0,.625,0,.939,0,.19,0,.34.067.344.3s-.158.284-.343.284c-.587,0-1.173,0-1.759,0-.268,0-.376-.131-.375-.4,0-1.111,0-2.222,0-3.333,0-.2.036-.4.284-.4s.329.175.329.408c0,.46,0,.921,0,1.382Z" transform="translate(-616.304 -249.946)" fill="#fff"/>
      <path id="Path_147688" data-name="Path 147688" d="M639.921,297.688c0-.542,0-1.088,0-1.63,0-.181-.007-.377.239-.387s.333.163.333.4q0,1.307,0,2.609c0,.554.009.56.556.562.327,0,.654,0,.98,0,.186,0,.345.06.337.3-.009.216-.163.259-.331.26-.587,0-1.175,0-1.763,0-.274,0-.361-.139-.356-.408.01-.57,0-1.14,0-1.712" transform="translate(-615.342 -249.728)" fill="#fff"/>
      <path id="Path_147689" data-name="Path 147689" d="M654.845,281.507v2.038c0,.237-.035.447-.331.437-.278-.01-.291-.222-.291-.437q0-2.015,0-4.034c0-.219.03-.42.308-.418s.312.2.312.417c0,.665,0,1.332,0,2" transform="translate(-615.889 -249.094)" fill="#fff"/>
      <path id="Path_147690" data-name="Path 147690" d="M665.537,288.058c0,.652,0,1.3,0,1.951,0,.208.047.484-.265.491-.343.009-.285-.289-.286-.506,0-1.344,0-2.684-.007-4.027,0-.2-.014-.394.257-.4s.3.2.3.416c0,.692,0,1.381,0,2.074" transform="translate(-616.3 -249.341)" fill="#fff"/>
      <path id="Path_147691" data-name="Path 147691" d="M640.989,288.063q0,1.019,0,2.037c0,.2-.017.4-.274.406s-.281-.2-.281-.4q0-2.077,0-4.156c0-.185.008-.364.263-.356.227.006.288.146.288.346q0,1.06,0,2.12Z" transform="translate(-615.362 -249.343)" fill="#fff"/>
      <path id="Path_147692" data-name="Path 147692" d="M687.9,281.52v2.036c0,.218-.021.429-.3.418-.254-.012-.267-.215-.267-.414,0-1.383,0-2.768-.009-4.151,0-.2.056-.314.259-.319s.315.094.315.315v2.115Z" transform="translate(-617.154 -249.094)" fill="#fff"/>
      <path id="Path_147693" data-name="Path 147693" d="M641.336,303.455c0-.542,0-1.086,0-1.628,0-.234.038-.462.319-.467.307,0,.294.258.3.472.006,1.058,0,2.118,0,3.175,0,.041,0,.082-.007.122-.017.206-.066.379-.314.378s-.3-.171-.3-.383v-1.67" transform="translate(-615.396 -249.945)" fill="#fff"/>
      <path id="Path_147694" data-name="Path 147694" d="M668.4,297.782c0,.543-.006,1.089,0,1.63,0,.215-.015.389-.276.388-.223,0-.291-.146-.291-.349,0-1.14,0-2.283,0-3.424,0-.2.058-.358.283-.358s.277.166.277.361c0,.583,0,1.169,0,1.752Z" transform="translate(-616.41 -249.728)" fill="#fff"/>
      <path id="Path_147695" data-name="Path 147695" d="M677.786,297.7v-1.67c0-.192.024-.366.263-.366s.306.16.306.376v3.383c0,.194-.043.36-.271.368-.252.009-.3-.168-.3-.38Z" transform="translate(-616.791 -249.729)" fill="#fff"/>
      <path id="Path_147696" data-name="Path 147696" d="M684.228,303.441v1.669c0,.2-.021.389-.281.394s-.294-.17-.294-.38q0-1.666,0-3.337c0-.223.045-.422.308-.421s.267.212.268.409c0,.556,0,1.113,0,1.667" transform="translate(-617.014 -249.946)" fill="#fff"/>
      <path id="Path_147697" data-name="Path 147697" d="M652.081,303.447c0,.543,0,1.089,0,1.631,0,.207.008.433-.288.426-.263,0-.272-.2-.272-.4q0-1.672,0-3.346c0-.2.013-.386.286-.377s.273.2.274.4q0,.835,0,1.671" transform="translate(-615.785 -249.947)" fill="#fff"/>
      <path id="Path_147698" data-name="Path 147698" d="M683.319,287.984c0-.448,0-.9,0-1.344,0-.208.067-.345.292-.337.2.008.274.134.274.32,0,.91,0,1.822,0,2.73,0,.228-.1.366-.33.359-.246-.008-.24-.2-.241-.384,0-.447,0-.9,0-1.345Z" transform="translate(-617.001 -249.37)" fill="#fff"/>
      <path id="Path_147699" data-name="Path 147699" d="M675.347,287.985v-1.3c0-.212.041-.388.3-.378.24.01.258.187.259.374q0,1.326,0,2.651c0,.183-.01.371-.251.38s-.306-.163-.306-.377v-1.345" transform="translate(-616.696 -249.37)" fill="#fff"/>
      <path id="Path_147700" data-name="Path 147700" d="M667.9,280.154c-.17-.055-.487.127-.555-.166a.972.972,0,0,1,.136-.892.758.758,0,0,1,.764-.2.168.168,0,0,1,.15.163.163.163,0,0,1-.134.176c-.075.021-.154.028-.229.053-.13.04-.263.1-.24.269s.161.152.278.164c.038,0,.078,0,.117,0,.164.015.392-.021.382.232s-.247.175-.4.192a2.164,2.164,0,0,1-.266,0" transform="translate(-616.389 -249.087)" fill="#fff"/>
      <path id="Path_147701" data-name="Path 147701" d="M654.819,286.674c-.171-.064-.446.1-.506-.177a.945.945,0,0,1,.172-.914.728.728,0,0,1,.723-.182.179.179,0,0,1,.15.165.182.182,0,0,1-.152.2c-.075.02-.154.027-.228.051-.129.041-.26.1-.234.273s.165.133.277.158c.182.037.509-.118.5.2s-.351.16-.543.217a.523.523,0,0,1-.155,0" transform="translate(-615.891 -249.335)" fill="#fff"/>
      <path id="Path_147702" data-name="Path 147702" d="M683.533,291.7c.015.026.022.059.04.066.147.074.443.043.345.317s-.356.125-.542.066a.528.528,0,0,1-.373-.471c-.054-.4.038-.519.426-.524a3.253,3.253,0,0,1,.5.024.239.239,0,0,1,.213.252c0,.153-.12.187-.242.21s-.258-.039-.37.06" transform="translate(-616.989 -249.556)" fill="#fff"/>
      <path id="Path_147703" data-name="Path 147703" d="M628.492,261.934a16.066,16.066,0,0,0,2.8,4.646l.794.864a11.925,11.925,0,0,0-2.384,1.4,10.276,10.276,0,0,1-5.283,1.108,10.1,10.1,0,0,1-6.328-2.613,10.735,10.735,0,0,1-2.55-3.379,11.252,11.252,0,0,1-.906-7.262,10.66,10.66,0,0,1,3.4-6,10.226,10.226,0,0,1,12.472-1.1.378.378,0,0,1,.076.62,11.125,11.125,0,0,0-2.733,4.614c-.111.375-.248.376-.555.184a4.156,4.156,0,0,0-3.922-.374,4.706,4.706,0,0,0-2.564,6.036,4.386,4.386,0,0,0,4.2,2.972,4.051,4.051,0,0,0,1.885-.476,7.04,7.04,0,0,0,1.218-.956c.057-.051.124-.09.175-.133Z" transform="translate(-614.367 -247.904)" fill="#fff"/>
      <path id="Path_147704" data-name="Path 147704" d="M634.289,261.284h-.441c-2.458,0-4.921.035-7.379.03a1.991,1.991,0,0,1-1.873-1.3,2.036,2.036,0,0,1,1.791-2.777c.536-.018,1.071,0,1.608,0l7.715.053c.121.045.1.185.115.308a11.272,11.272,0,0,1-.08,3.891.979.979,0,0,0-.06.583,1.426,1.426,0,0,0,.4.494,1.945,1.945,0,0,1-1.105-1.411" transform="translate(-614.752 -248.258)" fill="#fff"/>
    </g>
  </g>
</svg>
