<svg xmlns="http://www.w3.org/2000/svg" xmlns:xlink="http://www.w3.org/1999/xlink" width="136" height="136" viewBox="0 0 136 136">
  <defs>
    <filter id="Rectangle_110162" x="0" y="0" width="136" height="136" filterUnits="userSpaceOnUse">
      <feOffset dy="3" input="SourceAlpha"/>
      <feGaussianBlur stdDeviation="6" result="blur"/>
      <feFlood flood-color="#ececec" flood-opacity="0.161"/>
      <feComposite operator="in" in2="blur"/>
      <feComposite in="SourceGraphic"/>
    </filter>
    <clipPath id="clip-path">
      <path id="Path_145239" data-name="Path 145239" d="M982.862,366.639v4.528a.974.974,0,0,1-.071.367.937.937,0,0,1-.329.415.88.88,0,0,1-.508.162.893.893,0,0,1-.352-.073.941.941,0,0,1-.4-.345.959.959,0,0,1-.155-.527v-4.528h-1.682v4.527a2.786,2.786,0,0,0,.2,1.047,2.687,2.687,0,0,0,.939,1.187,2.505,2.505,0,0,0,2.458.248,2.637,2.637,0,0,0,1.139-.977,2.766,2.766,0,0,0,.442-1.506V366.64h-1.683Z" transform="translate(-979.364 -366.639)" fill="#fff"/>
    </clipPath>
    <clipPath id="clip-path-2">
      <path id="Path_145240" data-name="Path 145240" d="M981.953,356.618a2.5,2.5,0,0,0-1.008.211,2.637,2.637,0,0,0-1.139.976,2.768,2.768,0,0,0-.442,1.507v4.437h1.682v-4.437a.961.961,0,0,1,.071-.365.94.94,0,0,1,.33-.417.87.87,0,0,1,.506-.161.852.852,0,0,1,.352.074.923.923,0,0,1,.4.345.963.963,0,0,1,.153.525v4.437h1.683v-4.437a2.788,2.788,0,0,0-.2-1.048,2.674,2.674,0,0,0-.937-1.184,2.517,2.517,0,0,0-1.447-.46Z" transform="translate(-979.364 -356.618)" fill="#fff"/>
    </clipPath>
    <clipPath id="clip-path-3">
      <path id="Path_145241" data-name="Path 145241" d="M971.466,366.636v4.531a.975.975,0,0,1-.07.367.948.948,0,0,1-.33.415.874.874,0,0,1-.507.162.9.9,0,0,1-.354-.073.934.934,0,0,1-.4-.344.957.957,0,0,1-.154-.527v-4.531h-1.683v4.531a2.767,2.767,0,0,0,.2,1.047,2.663,2.663,0,0,0,.938,1.187,2.505,2.505,0,0,0,2.458.248,2.627,2.627,0,0,0,1.138-.977,2.766,2.766,0,0,0,.443-1.506v-4.53h-1.684Z" transform="translate(-967.968 -366.636)" fill="#fff"/>
    </clipPath>
    <clipPath id="clip-path-4">
      <path id="Path_145242" data-name="Path 145242" d="M970.558,356.618a2.5,2.5,0,0,0-1.008.211,2.646,2.646,0,0,0-1.14.976,2.777,2.777,0,0,0-.442,1.507v4.431h1.683v-4.431a.947.947,0,0,1,.071-.365.928.928,0,0,1,.331-.417.871.871,0,0,1,.506-.161.858.858,0,0,1,.353.074.907.907,0,0,1,.4.345.949.949,0,0,1,.154.525v4.431h1.684v-4.43a2.783,2.783,0,0,0-.2-1.048,2.67,2.67,0,0,0-.938-1.184,2.513,2.513,0,0,0-1.446-.46Z" transform="translate(-967.968 -356.618)" fill="#fff"/>
    </clipPath>
    <clipPath id="clip-path-5">
      <path id="Path_145243" data-name="Path 145243" d="M974.142,362.643h0Zm2.938-3.06a.658.658,0,0,0-.428.189.759.759,0,0,0-.209.419l-.323,1.863v.008l-.4,2.642-.339-1.918a.756.756,0,0,0-.184-.383.616.616,0,0,0-.382-.206.584.584,0,0,0-.444.126.712.712,0,0,0-.232.32l-.675,1.8H966.4a.574.574,0,0,0-.273.069.678.678,0,0,0-.281.28.83.83,0,0,0-.1.393.8.8,0,0,0,.172.5.684.684,0,0,0,.208.172.586.586,0,0,0,.273.067h7.5a.61.61,0,0,0,.374-.133.717.717,0,0,0,.226-.318l.027-.07.607,3.232a.776.776,0,0,0,.209.406.614.614,0,0,0,.431.185h.012a.61.61,0,0,0,.24-.058.656.656,0,0,0,.265-.229.781.781,0,0,0,.126-.323l.341-1.975h0l0-.006.276-1.845.249,1.946h0a.764.764,0,0,0,.176.408.652.652,0,0,0,.173.145.6.6,0,0,0,.223.077h0l.073,0a.6.6,0,0,0,.388-.146.731.731,0,0,0,.23-.347h0l.29-.946h7.257a.574.574,0,0,0,.274-.071.659.659,0,0,0,.281-.28.808.808,0,0,0,.1-.392.79.79,0,0,0-.174-.5.63.63,0,0,0-.207-.171.57.57,0,0,0-.274-.068h-7.719l-.067,0-.574-4.241v0a.777.777,0,0,0-.2-.432.661.661,0,0,0-.194-.145.583.583,0,0,0-.246-.058Z" transform="translate(-965.745 -359.583)" fill="#fff"/>
    </clipPath>
    <clipPath id="clip-path-6">
      <path id="Path_145244" data-name="Path 145244" d="M975.469,381.877a2.176,2.176,0,0,1-.591-.232l-11.635-6.988a2.366,2.366,0,0,1-.487-.417,3.764,3.764,0,0,1-.637-1.016,2.737,2.737,0,0,1-.234-1.018V358.23a2.387,2.387,0,0,1,.1-.651,3.649,3.649,0,0,1,.526-1.079,2.56,2.56,0,0,1,.729-.72l11.635-6.99a2.145,2.145,0,0,1,.591-.231,3.324,3.324,0,0,1,1.536,0,2.12,2.12,0,0,1,.59.231l11.636,6.99a2.237,2.237,0,0,1,.488.415,3.684,3.684,0,0,1,.636,1.016,2.713,2.713,0,0,1,.234,1.02v13.976a2.376,2.376,0,0,1-.1.649,3.727,3.727,0,0,1-.527,1.08,2.615,2.615,0,0,1-.729.722L977.6,381.645a2.193,2.193,0,0,1-.592.232,3.337,3.337,0,0,1-.768.087h-.007a3.326,3.326,0,0,1-.761-.087m-.5-35.554a4.28,4.28,0,0,0-1.193.478l-11.634,6.989a4.37,4.37,0,0,0-1,.835,6.041,6.041,0,0,0-1.047,1.665,5.072,5.072,0,0,0-.421,1.94v13.976a4.724,4.724,0,0,0,.2,1.315,6.037,6.037,0,0,0,.861,1.775,4.786,4.786,0,0,0,1.4,1.347l11.634,6.989a4.312,4.312,0,0,0,1.193.478,5.487,5.487,0,0,0,2.538,0,4.325,4.325,0,0,0,1.193-.478l11.635-6.989a4.4,4.4,0,0,0,.995-.837,5.955,5.955,0,0,0,1.048-1.663,5.05,5.05,0,0,0,.421-1.938V358.23a4.727,4.727,0,0,0-.2-1.317,5.977,5.977,0,0,0-.861-1.775,4.762,4.762,0,0,0-1.4-1.347L978.7,346.8a4.293,4.293,0,0,0-1.193-.478,5.451,5.451,0,0,0-2.538,0" transform="translate(-959.676 -346.173)" fill="#fff"/>
    </clipPath>
  </defs>
  <g id="Group_132145" data-name="Group 132145" transform="translate(18 15)" opacity="0.4">
    <g transform="matrix(1, 0, 0, 1, -18, -15)" filter="url(#Rectangle_110162)">
      <rect id="Rectangle_110162-2" data-name="Rectangle 110162" width="100" height="100" rx="8" transform="translate(18 15)" fill="#fff" opacity="0"/>
    </g>
    <g id="Group_131180" data-name="Group 131180" transform="translate(28.106 17.819)">
      <path id="Path_148134" data-name="Path 148134" d="M957.469,402.985a.7.7,0,0,0-.69.719v2.245h-3.195V403.7a.69.69,0,1,0-1.379,0V409.9a.69.69,0,1,0,1.379,0v-2.58h3.195v2.58a.69.69,0,1,0,1.379,0V403.7a.7.7,0,0,0-.689-.719" transform="translate(-952.205 -346.253)" fill="#fff"/>
      <path id="Path_148135" data-name="Path 148135" d="M960.748,409.906Z" transform="translate(-952.217 -346.264)" fill="#fff"/>
      <path id="Path_148136" data-name="Path 148136" d="M963.973,403.556h0v0Z" transform="translate(-952.222 -346.255)" fill="#fff"/>
      <path id="Path_148137" data-name="Path 148137" d="M964.656,402.838a.7.7,0,0,0-.69.717v4.417l-3.335-4.812c-.006-.01-.013-.017-.019-.028l-.016-.023a.679.679,0,0,0-.539-.271.7.7,0,0,0-.69.719V409.9a.69.69,0,1,0,1.379,0V405.48l3.336,4.813c.006.01.013.017.019.026l.016.025h0a.677.677,0,0,0,.539.27.7.7,0,0,0,.689-.718v-6.339a.7.7,0,0,0-.689-.719" transform="translate(-952.215 -346.254)" fill="#fff"/>
      <path id="Path_148138" data-name="Path 148138" d="M967.136,410.625h-.11a.674.674,0,0,0,.11,0" transform="translate(-952.226 -346.265)" fill="#fff"/>
      <path id="Path_148139" data-name="Path 148139" d="M970.6,407.788h.012l-.995-2.529Z" transform="translate(-952.229 -346.258)" fill="#fff"/>
      <path id="Path_148140" data-name="Path 148140" d="M972.211,410.625h-.11a.674.674,0,0,0,.11,0" transform="translate(-952.233 -346.265)" fill="#fff"/>
      <path id="Path_148141" data-name="Path 148141" d="M968.622,407.788h.013l.982-2.529Z" transform="translate(-952.228 -346.258)" fill="#fff"/>
      <path id="Path_148142" data-name="Path 148142" d="M970.177,403.447h0a.574.574,0,0,0-1.125,0h0l-2.631,6.264a.694.694,0,0,0,.451.874.76.76,0,0,0,.156.029h.109a.623.623,0,0,0,.53-.385l.045-.114.405-1.043h3l.406,1.043.045.114a.622.622,0,0,0,.53.385h.109a.809.809,0,0,0,.157-.029.693.693,0,0,0,.449-.874Zm.419,4.338h-1.978l1-2.529.994,2.529Z" transform="translate(-952.225 -346.253)" fill="#fff"/>
      <path id="Path_148143" data-name="Path 148143" d="M974.708,407.58a1.856,1.856,0,0,1,.493-1.288,1.673,1.673,0,0,1,.715-.446,1.774,1.774,0,0,1,.537-.08q.062,0,.12,0l.029,0,.087.008.018,0a1.484,1.484,0,0,1,.575.21,1.621,1.621,0,0,1,.338.289.606.606,0,0,0,.585.153l.272-.167a.66.66,0,0,0,.029-.871,2.927,2.927,0,0,0-2.053-.852,3.647,3.647,0,0,0-.52.038c-.126.021-.248.046-.365.078a2.9,2.9,0,0,0-1.367.828,3.117,3.117,0,0,0,0,4.187,2.9,2.9,0,0,0,1.367.827,3.263,3.263,0,0,0,.365.077,3.508,3.508,0,0,0,.52.039,2.935,2.935,0,0,0,2.053-.851.66.66,0,0,0-.029-.871l-.272-.167a.6.6,0,0,0-.585.153,1.65,1.65,0,0,1-.338.288,1.468,1.468,0,0,1-.575.21l-.018,0c-.028,0-.057.006-.087.007l-.029,0c-.039,0-.079,0-.12,0a1.807,1.807,0,0,1-.537-.08,1.666,1.666,0,0,1-.715-.447,1.854,1.854,0,0,1-.493-1.288" transform="translate(-952.234 -346.255)" fill="#fff"/>
      <path id="Path_148144" data-name="Path 148144" d="M984.792,404.543a.612.612,0,0,0-.619.605v.2a2.066,2.066,0,0,0-1.731-.81,2.822,2.822,0,0,0-2.147.984,3.182,3.182,0,0,0-.8,2.053,3.224,3.224,0,0,0,.755,2.077,2.737,2.737,0,0,0,2.125.96,2.256,2.256,0,0,0,1.8-.815v.171a.62.62,0,1,0,1.238,0v-4.824a.612.612,0,0,0-.619-.605m-1.08,4.325a1.622,1.622,0,0,1-1.181.528,1.675,1.675,0,0,1-1.211-.528,1.883,1.883,0,0,1,0-2.576,1.678,1.678,0,0,1,1.211-.527,1.625,1.625,0,0,1,1.181.527,1.911,1.911,0,0,1,0,2.576" transform="translate(-952.243 -346.255)" fill="#fff"/>
      <path id="Path_148145" data-name="Path 148145" d="M989.794,405.323a.607.607,0,0,0,0-.175Z" transform="translate(-952.258 -346.256)" fill="#fff"/>
      <path id="Path_148146" data-name="Path 148146" d="M989.148,404.657h0a.114.114,0,0,0,.019,0l-.019,0" transform="translate(-952.257 -346.255)" fill="#fff"/>
      <path id="Path_148147" data-name="Path 148147" d="M989.789,405.14a.565.565,0,0,0-.626-.484l-.018,0a1.843,1.843,0,0,0-.369.1,2.463,2.463,0,0,0-.479.249.93.93,0,0,0-.26.264v-.108a.587.587,0,1,0-1.173,0v4.8a.626.626,0,1,0,1.25,0v-3.31a.736.736,0,0,1,.24-.561,1.182,1.182,0,0,1,.547-.266,1.384,1.384,0,0,1,.339-.043.576.576,0,0,0,.549-.462v-.183" transform="translate(-952.253 -346.256)" fill="#fff"/>
      <path id="Path_148148" data-name="Path 148148" d="M994.448,408.914h0l.013-.013-.013.013" transform="translate(-952.264 -346.261)" fill="#fff"/>
      <path id="Path_148149" data-name="Path 148149" d="M995.081,408.78l.132.078a.68.68,0,0,0-.132-.078" transform="translate(-952.265 -346.262)" fill="#fff"/>
      <path id="Path_148150" data-name="Path 148150" d="M996.04,407.419a3.155,3.155,0,0,0-.989-2.1,2.88,2.88,0,0,0-1.875-.775,2.991,2.991,0,0,0-2.253.944,3.117,3.117,0,0,0,0,4.187,2.994,2.994,0,0,0,2.253.943,3.082,3.082,0,0,0,2.085-.855.665.665,0,0,1,.054-.051.6.6,0,0,0-.048-.8.69.69,0,0,0-.062-.056l-.132-.078a.536.536,0,0,0-.619.121l-.012.013a1.783,1.783,0,0,1-1.292.556,1.727,1.727,0,0,1-1.1-.409,1.524,1.524,0,0,1-.536-1.011h4.012a.532.532,0,0,0,.522-.539v0a.689.689,0,0,0-.006-.082m-4.523-.463a1.675,1.675,0,0,1,.538-.92,1.481,1.481,0,0,1,.966-.34,1.565,1.565,0,0,1,.981.33,1.833,1.833,0,0,1,.6.93Z" transform="translate(-952.258 -346.255)" fill="#fff"/>
      <path id="Path_148151" data-name="Path 148151" d="M982.977,391.122a.936.936,0,1,0-.9-.936.918.918,0,0,0,.9.936" transform="translate(-952.246 -346.235)" fill="#fff"/>
      <path id="Path_148152" data-name="Path 148152" d="M959.172,399.4a.9.9,0,1,0,.864.9.882.882,0,0,0-.864-.9" transform="translate(-952.213 -346.248)" fill="#fff"/>
      <path id="Path_148153" data-name="Path 148153" d="M957.186,399.4a.9.9,0,1,0,.864.9.882.882,0,0,0-.864-.9" transform="translate(-952.21 -346.248)" fill="#fff"/>
      <path id="Path_148154" data-name="Path 148154" d="M970.779,391.95h-7.23a1.543,1.543,0,0,1,1.468-1.993h7.917v0a.718.718,0,0,0,0-1.434h-7.917a2.808,2.808,0,0,0-2.888,3.006v1.147a.716.716,0,0,0,.685.72h7.965a1.5,1.5,0,0,1,1.51,1.573v1.713H959.683V392.82a.694.694,0,1,0-1.387,0v3.859h-3.29v-3.858a.69.69,0,1,0-1.378,0v5.718c0,1.455-.416,1.382-.767,1.382a.65.65,0,0,0,0,1.3c.712,0,2.145-.25,2.145-2.681v-1.067a.7.7,0,0,0,.686.642h3.99v-.647a.7.7,0,0,0,.686.647h12.617a.7.7,0,0,0,.689-.719v-2.43a2.824,2.824,0,0,0-2.9-3.016" transform="translate(-952.205 -346.233)" fill="#fff"/>
      <path id="Path_148155" data-name="Path 148155" d="M995.8,393.93a3,3,0,0,0-1.047-1.324,2.78,2.78,0,0,0-1.615-.519h-1.38a2.72,2.72,0,0,0-2.329-1.131,1.456,1.456,0,0,1-1.369-.966,1.575,1.575,0,0,1-.113-.388c-.041-.229-.33-.322-.569-.322-.372,0-.77.406-.682.7l0,.013a3.174,3.174,0,0,0,1.558,2.183l.014.006-1.126.587a.555.555,0,0,0-.079.044,1.074,1.074,0,0,0-.4.426,1.176,1.176,0,0,0-.13.546v1.324a1.883,1.883,0,0,0,.564,1.572h-3.411v-3.858a.694.694,0,1,0-1.388,0v3.858h-3.9c0-.033-.005-.06-.005-.094v-7.353h0a.692.692,0,1,0-1.384,0h0v8.163a.7.7,0,0,0,.689.718h5.989v-.636a.7.7,0,0,0,.686.636l8.759,0a2.691,2.691,0,0,0,.982-.181c.047-.017.1-.037.142-.057a2.942,2.942,0,0,0,1.27-1.092,3.069,3.069,0,0,0,.455-1.186,3.12,3.12,0,0,0,.04-.5,3.087,3.087,0,0,0-.229-1.172m-4.859,2.748h-1.576a1.508,1.508,0,0,1-1.445-1.571v-1.892a1.059,1.059,0,0,1,.522-.969c.083.027.172.052.255.07a3.431,3.431,0,0,0,.733.076,1.459,1.459,0,0,1,1.454,1.134,1.758,1.758,0,0,1,.057.435v2.716Zm3.633-1.1,0,0c-.013.043-.028.085-.045.126a1.58,1.58,0,0,1-.548.7,1.457,1.457,0,0,1-.84.271h-.812v-3.151h.812a1.433,1.433,0,0,1,.582.123,1.562,1.562,0,0,1,.666.575,1.616,1.616,0,0,1,.187,1.359" transform="translate(-952.239 -346.233)" fill="#fff"/>
      <g id="Group_127142" data-name="Group 127142" transform="translate(27.121 20.437)">
        <g id="Group_124969" data-name="Group 124969" transform="translate(0 0)" clip-path="url(#clip-path)">
          <rect id="Rectangle_17645" data-name="Rectangle 17645" width="8.867" height="8.197" transform="matrix(0.524, -0.852, 0.852, 0.524, -3.223, 5.241)" fill="#fff"/>
        </g>
      </g>
      <g id="Group_127143" data-name="Group 127143" transform="translate(27.121 10.43)">
        <g id="Group_124971" data-name="Group 124971" transform="translate(0 0)" clip-path="url(#clip-path-2)">
          <rect id="Rectangle_17646" data-name="Rectangle 17646" width="8.787" height="8.148" transform="matrix(0.524, -0.852, 0.852, 0.524, -3.182, 5.173)" fill="#fff"/>
        </g>
      </g>
      <g id="Group_127144" data-name="Group 127144" transform="translate(15.741 20.433)">
        <g id="Group_124973" data-name="Group 124973" transform="translate(0 0)" clip-path="url(#clip-path-3)">
          <rect id="Rectangle_17647" data-name="Rectangle 17647" width="8.87" height="8.2" transform="translate(-3.225 5.244) rotate(-58.409)" fill="#fff"/>
        </g>
      </g>
      <g id="Group_127145" data-name="Group 127145" transform="translate(15.741 10.43)">
        <g id="Group_124975" data-name="Group 124975" transform="translate(0 0)" clip-path="url(#clip-path-4)">
          <rect id="Rectangle_17648" data-name="Rectangle 17648" width="8.783" height="8.146" transform="translate(-3.179 5.169) rotate(-58.408)" fill="#fff"/>
        </g>
      </g>
      <g id="Group_127146" data-name="Group 127146" transform="translate(13.522 13.39)">
        <g id="Group_124977" data-name="Group 124977" transform="translate(0 0)" clip-path="url(#clip-path-5)">
          <rect id="Rectangle_17649" data-name="Rectangle 17649" width="19.222" height="22.944" transform="translate(-4.306 7.002) rotate(-58.408)" fill="#fff"/>
        </g>
      </g>
      <g id="Group_127147" data-name="Group 127147" transform="translate(7.461 0)">
        <g id="Group_124979" data-name="Group 124979" transform="translate(0)" clip-path="url(#clip-path-6)">
          <rect id="Rectangle_17650" data-name="Rectangle 17650" width="49.794" height="48.165" transform="matrix(0.524, -0.852, 0.852, 0.524, -16.996, 27.635)" fill="#fff"/>
        </g>
      </g>
    </g>
  </g>
</svg>
