<svg xmlns="http://www.w3.org/2000/svg" xmlns:xlink="http://www.w3.org/1999/xlink" width="136" height="136" viewBox="0 0 136 136">
  <defs>
    <filter id="Rectangle_110162" x="0" y="0" width="136" height="136" filterUnits="userSpaceOnUse">
      <feOffset dy="3" input="SourceAlpha"/>
      <feGaussianBlur stdDeviation="6" result="blur"/>
      <feFlood flood-color="#ececec" flood-opacity="0.161"/>
      <feComposite operator="in" in2="blur"/>
      <feComposite in="SourceGraphic"/>
    </filter>
  </defs>
  <g id="Group_132144" data-name="Group 132144" transform="translate(18.204 15)" opacity="0.4">
    <g transform="matrix(1, 0, 0, 1, -18.2, -15)" filter="url(#Rectangle_110162)">
      <rect id="Rectangle_110162-2" data-name="Rectangle 110162" width="100" height="100" rx="8" transform="translate(18 15)" fill="#fff" opacity="0"/>
    </g>
    <g id="Group_131191" data-name="Group 131191" transform="translate(11.158 41.687)">
      <path id="Path_148679" data-name="Path 148679" d="M1358.036,476.342h16.193l-8.212,14.63Z" transform="translate(-1330.612 -475.251)" fill="#fff"/>
      <path id="Path_148680" data-name="Path 148680" d="M1339.239,485.117l-.646,1.265v4.247H1336.5V476.8h2.088v6.023l2.735-6.023h2.089l-2.905,6.164,2.905,7.664h-2.146Z" transform="translate(-1336.505 -475.125)" fill="#fff"/>
      <path id="Path_148681" data-name="Path 148681" d="M1343.927,476.8v10.668c0,.988.418,1.345,1.083,1.345s1.082-.357,1.082-1.345V476.8h1.974v10.532c0,2.212-1.063,3.476-3.114,3.476s-3.114-1.263-3.114-3.476V476.8Z" transform="translate(-1335.044 -475.127)" fill="#fff"/>
      <path id="Path_148682" data-name="Path 148682" d="M1347.142,476.8h3.3c2.089,0,3.114,1.206,3.114,3.42v6.992c0,2.212-1.025,3.42-3.114,3.42h-3.3Zm2.089,1.976v9.88h1.177c.665,0,1.063-.354,1.063-1.344V480.12c0-.99-.4-1.345-1.063-1.345Z" transform="translate(-1333.594 -475.127)" fill="#fff"/>
      <path id="Path_148683" data-name="Path 148683" d="M1354.644,476.8v10.668c0,.988.416,1.345,1.083,1.345s1.082-.357,1.082-1.345V476.8h1.974v10.532c0,2.212-1.065,3.476-3.114,3.476s-3.114-1.263-3.114-3.476V476.8Z" transform="translate(-1332.112 -475.127)" fill="#fff"/>
      <path id="Path_148684" data-name="Path 148684" d="M1376.84,487.053c-.582.474-1.211,2.946.587,2.375s4.278-3.184,5.268-4.753.5-6.65-4.1-5.462c-2.475.95-1.759,2.849-1.531,3.087s1.126,1.046,2.518-.572c.407-.476,1.983.192,1.038,1.806a15.437,15.437,0,0,1-3.784,3.518" transform="translate(-1325.63 -474.514)" fill="#fff"/>
      <path id="Path_148685" data-name="Path 148685" d="M1374.073,478.949a3.417,3.417,0,0,0-3.481,3.593,2.567,2.567,0,0,0,1.849,2.622h2.364a11.827,11.827,0,0,1-.829.855,3.936,3.936,0,0,1-2.793.865c-.18.038-1.624-.185-1.475,1.448s2.047,1.3,4.268.6a5.8,5.8,0,0,0,3.954-5.538c-.036-2.607-1.614-4.377-3.856-4.445m-.982,3.55v-.417a1.319,1.319,0,0,1,1.151-.39,1.289,1.289,0,0,1,1.009.889Z" transform="translate(-1327.42 -474.54)" fill="#fff"/>
      <path id="Path_148686" data-name="Path 148686" d="M1398.1,479.065c-.529.055-4.464,0-4.894,0s-.8-1.028-.025-1.028h3.779a1.515,1.515,0,0,0,1.14-1.442,1.1,1.1,0,0,0-.981-1.109h-4.179a3.339,3.339,0,0,0-2.765,3.106,3.127,3.127,0,0,0,2.261,3.05h5.482c.638-.059.773,1.139.238,1.139s-8.271.191-8.271.191-.64-3.3-3.836-3.326-3.457,3.105-3.375,3.883.64,2.189,1.675,2.3a16.6,16.6,0,0,0,2.474,0,4.4,4.4,0,0,1-4.122,1.667c-.8.111-2.184,2.993,1.466,2.662a6.3,6.3,0,0,0,5.614-4.551h8.376a3.509,3.509,0,0,0,2.9-3.494,2.986,2.986,0,0,0-2.955-3.049m-13.028,3.908s-.274-.859.768-.829a1.323,1.323,0,0,1,1.276.912Z" transform="translate(-1324.119 -475.486)" fill="#fff"/>
    </g>
  </g>
</svg>
