<svg xmlns="http://www.w3.org/2000/svg" width="100" height="100" viewBox="0 0 100 100">
  <g id="Group_132139" data-name="Group 132139" transform="translate(0.204)" opacity="0.4">
    <rect id="Rectangle_110162" data-name="Rectangle 110162" width="100" height="100" rx="8" transform="translate(-0.204)" fill="#fff" opacity="0"/>
    <g id="Group_131171" data-name="Group 131171" transform="translate(9.709 36.701)">
      <rect id="Rectangle_110167" data-name="Rectangle 110167" width="34.072" height="11.811" transform="translate(0 16.115)" fill="#fff"/>
      <rect id="Rectangle_110168" data-name="Rectangle 110168" width="34.072" height="11.819" fill="#fff"/>
      <path id="Path_148500" data-name="Path 148500" d="M1080.936,389.952l-.152.031a4.705,4.705,0,0,1-1.1.149c-.89,0-1.942-.476-1.942-2.7,0-1.149.181-2.676,1.841-2.676h.009a4.879,4.879,0,0,1,1.215.245l.131.039Zm.274-11.126-.274.053v4.126l-.243-.075-.07-.018a5.3,5.3,0,0,0-1.508-.275c-3.318,0-4.016,2.608-4.016,4.8,0,3,1.619,4.729,4.442,4.729a8.658,8.658,0,0,0,2.965-.435,1.354,1.354,0,0,0,1.112-1.493V378.4c-.79.145-1.608.293-2.408.43" transform="translate(-1012.793 -364.428)" fill="#fff"/>
      <path id="Path_148501" data-name="Path 148501" d="M1088.183,388.929l-.141.042-.506.137a5.031,5.031,0,0,1-1.224.2c-.779,0-1.244-.4-1.244-1.081,0-.443.192-1.19,1.467-1.19h1.648Zm-1.162-7.441a10.855,10.855,0,0,0-3.378.61l-.851.266.283,2,.829-.283a9.4,9.4,0,0,1,2.763-.482c.364,0,1.476,0,1.476,1.252v.547h-1.548c-2.822,0-4.127.935-4.127,2.947,0,1.714,1.2,2.746,3.228,2.746a10.183,10.183,0,0,0,2.245-.314l.041-.011.041.011.253.042c.789.145,1.609.294,2.408.452V384.7c0-2.125-1.234-3.21-3.662-3.21" transform="translate(-1010.177 -363.331)" fill="#fff"/>
      <path id="Path_148502" data-name="Path 148502" d="M1073.677,388.929l-.141.042-.505.137a4.975,4.975,0,0,1-1.225.2c-.779,0-1.244-.4-1.244-1.081,0-.443.191-1.19,1.455-1.19h1.65Zm-1.153-7.441a10.812,10.812,0,0,0-3.379.61l-.85.266.283,2,.829-.283a9.394,9.394,0,0,1,2.762-.482c.365,0,1.475,0,1.475,1.252v.547H1072.1c-2.822,0-4.136.935-4.136,2.947,0,1.714,1.2,2.746,3.237,2.746a10.181,10.181,0,0,0,2.245-.314l.041-.011.041.011.242.042c.8.145,1.608.294,2.408.463v-6.57c.011-2.148-1.224-3.221-3.652-3.221" transform="translate(-1015.326 -363.331)" fill="#fff"/>
      <path id="Path_148503" data-name="Path 148503" d="M1066.8,381.506a6.572,6.572,0,0,0-2.741.634l-.1.05-.091-.074a4.034,4.034,0,0,0-2.458-.621,9.753,9.753,0,0,0-2.9.454,1.419,1.419,0,0,0-1.194,1.515v7.505h2.691v-6.937l.131-.042a3.321,3.321,0,0,1,1.184-.219c.778,0,1.172.431,1.172,1.274v5.936h2.65v-6.053a2.132,2.132,0,0,0-.08-.61l-.091-.18.182-.084a3.1,3.1,0,0,1,1.316-.283c.535,0,1.173.219,1.173,1.274v5.936h2.64v-6.211c0-2.2-1.133-3.263-3.479-3.263" transform="translate(-1019.105 -363.329)" fill="#fff"/>
      <path id="Path_148504" data-name="Path 148504" d="M1089.745,375.794a8.939,8.939,0,0,1-1.569-.149l-.151-.03v-4.054a2.044,2.044,0,0,0-.071-.577l-.081-.168.172-.076c.041-.022.081-.03.131-.053l.03-.022c.061-.019.122-.041.183-.062a.364.364,0,0,1,.071-.02,5.972,5.972,0,0,1,1.386-.169h.009c1.649,0,1.841,1.528,1.841,2.673-.009,2.232-1.072,2.707-1.951,2.707m-.011-7.706h-.072c-1.547,0-3.135.442-3.7,1.3a2.7,2.7,0,0,0-.485,1.568v4.179a1.3,1.3,0,0,1-.081.528l-.091.179h-4.887v-2.908h-.01c-.059-3.062-1.8-4.746-4.319-4.746h-2.458c-.1.748-.183,1.276-.283,2.02h2.448c1.285,0,1.962,1.137,1.962,2.885v2.925l-.172-.093a1.81,1.81,0,0,0-.577-.083h-4.228c-.081.558-.183,1.282-.294,2.008h13c.444-.092.961-.179,1.406-.253a7.032,7.032,0,0,0,2.721.516c2.822,0,4.654-1.967,4.654-5-.011-3-1.782-4.969-4.532-5.031" transform="translate(-1013.72 -368.088)" fill="#fff"/>
      <path id="Path_148505" data-name="Path 148505" d="M1072.328,379.057h.121c2.823,0,4.138-.969,4.138-3.358a3.008,3.008,0,0,0-3.226-3.084h-2.6a1.143,1.143,0,0,1-1.246-1.242c0-.527.193-1.179,1.467-1.179h5.685c.121-.766.182-1.252.293-2.019h-5.908c-2.751,0-4.137,1.2-4.137,3.2,0,1.98,1.2,3.012,3.226,3.012h2.6a1.254,1.254,0,0,1,1.244,1.314,1.3,1.3,0,0,1-1.457,1.358h-.435l-8.325-.019h-1.518c-1.286,0-2.186-.76-2.186-2.519v-1.207c0-1.833.7-2.97,2.186-2.97h2.467c.113-.779.183-1.274.283-2.009h-3.368c-2.519,0-4.259,1.757-4.32,4.821v1.366c.061,3.064,1.8,4.527,4.32,4.527h2.458l4.512.011h3.723Z" transform="translate(-1019.105 -368.058)" fill="#fff"/>
    </g>
  </g>
</svg>
