<svg xmlns="http://www.w3.org/2000/svg" xmlns:xlink="http://www.w3.org/1999/xlink" width="136" height="136" viewBox="0 0 136 136">
  <defs>
    <filter id="Rectangle_110162" x="0" y="0" width="136" height="136" filterUnits="userSpaceOnUse">
      <feOffset dy="3" input="SourceAlpha"/>
      <feGaussianBlur stdDeviation="6" result="blur"/>
      <feFlood flood-color="#ececec" flood-opacity="0.161"/>
      <feComposite operator="in" in2="blur"/>
      <feComposite in="SourceGraphic"/>
    </filter>
    <clipPath id="clip-path">
      <path id="Path_145678" data-name="Path 145678" d="M635.923,384.977h0v2.135h2.05v-2.135Z" transform="translate(-635.921 -384.977)" fill="#fff"/>
    </clipPath>
    <clipPath id="clip-path-2">
      <path id="Path_145679" data-name="Path 145679" d="M638.115,384.977h0v2.135h2.051v-2.135Z" transform="translate(-638.114 -384.977)" fill="#fff"/>
    </clipPath>
    <clipPath id="clip-path-3">
      <path id="Path_145680" data-name="Path 145680" d="M623.493,384.977h0v2.135h2.051v-2.135Z" transform="translate(-623.492 -384.977)" fill="#fff"/>
    </clipPath>
    <clipPath id="clip-path-4">
      <path id="Path_145681" data-name="Path 145681" d="M625.685,384.977h0v2.135h2.051v-2.133h-2.051Z" transform="translate(-625.685 -384.977)" fill="#fff"/>
    </clipPath>
    <clipPath id="clip-path-5">
      <path id="Path_145682" data-name="Path 145682" d="M624.568,382.783h0v2.133h2.05v-2.133Z" transform="translate(-624.568 -382.783)" fill="#fff"/>
    </clipPath>
    <clipPath id="clip-path-6">
      <path id="Path_145683" data-name="Path 145683" d="M652.073,393.612a3.653,3.653,0,1,1,3.65,3.8,3.732,3.732,0,0,1-3.65-3.8M641.9,387.6v9.148h-6.929v-9.122h-2.05v9.122h-3.638v-8.538h-2.05v8.538H623.6v-9.122H621.55v9.721h-6.32a3.44,3.44,0,0,1,0-6.875v-2.136a5.576,5.576,0,0,0,0,11.143h8.121v-.6h3.887v.605h2.05v-.605h22.425V397.82a5.562,5.562,0,0,0,4.01,1.722,5.935,5.935,0,1,0-5.7-5.93,6.056,6.056,0,0,0,.872,3.139h-6.94V387.6Z" transform="translate(-609.875 -387.603)" fill="#fff"/>
    </clipPath>
    <clipPath id="clip-path-7">
      <path id="Path_145684" data-name="Path 145684" d="M627.993,407.259a.453.453,0,0,0,0,.633.418.418,0,0,0,.61,0,.456.456,0,0,0,0-.633.418.418,0,0,0-.61,0" transform="translate(-627.864 -407.127)" fill="#fff"/>
    </clipPath>
    <clipPath id="clip-path-8">
      <path id="Path_145685" data-name="Path 145685" d="M628.988,407.259a.45.45,0,0,0,0,.633.415.415,0,0,0,.608,0,.453.453,0,0,0,0-.633.416.416,0,0,0-.608,0" transform="translate(-628.858 -407.127)" fill="#fff"/>
    </clipPath>
    <clipPath id="clip-path-9">
      <path id="Path_145686" data-name="Path 145686" d="M625.756,406.6a1.433,1.433,0,0,1-.473-.262,1.168,1.168,0,0,1-.31-.412,1.324,1.324,0,0,1-.113-.563,1.191,1.191,0,0,1,.123-.538,1.323,1.323,0,0,1,.327-.418,1.747,1.747,0,0,1,.485-.273,1.607,1.607,0,0,1,.555-.1h.412V406.7h-.412a1.737,1.737,0,0,1-.592-.094m6.963-.125a1.643,1.643,0,0,1-.285-.3,1.663,1.663,0,0,1-.188-.372,1.293,1.293,0,0,1-.071-.441,1.263,1.263,0,0,1,.119-.558,1.249,1.249,0,0,1,.32-.414,1.515,1.515,0,0,1,.471-.261,1.8,1.8,0,0,1,.552-.089h.538V406.7h-1.129a1.794,1.794,0,0,1-.327-.22m-5.959-3.429v.342h-.229a2.806,2.806,0,0,0-.937.148,2.228,2.228,0,0,0-.726.412,1.789,1.789,0,0,0-.47.633,2.058,2.058,0,0,0,.034,1.682,1.755,1.755,0,0,0,.518.622,2.071,2.071,0,0,0,.734.351,3.236,3.236,0,0,0,.846.11H634.8v-3.954h-.978a2.951,2.951,0,0,0-.945.138,2.109,2.109,0,0,0-.714.4,1.662,1.662,0,0,0-.453.628,2.025,2.025,0,0,0-.156.8,1.918,1.918,0,0,0,.07.543,1.836,1.836,0,0,0,.192.456,1.758,1.758,0,0,0,.205.293.578.578,0,0,0,.05.046h-2.163v-3.307h-.622V406.7h-1.9V403.05Z" transform="translate(-624.236 -403.05)" fill="#fff"/>
    </clipPath>
    <clipPath id="clip-path-10">
      <path id="Path_145687" data-name="Path 145687" d="M632.008,402.251a.451.451,0,0,0-.126.32.441.441,0,0,0,.126.315.408.408,0,0,0,.306.133.4.4,0,0,0,.3-.133.443.443,0,0,0,.129-.315.452.452,0,0,0-.129-.32.421.421,0,0,0-.61,0" transform="translate(-631.882 -402.12)" fill="#fff"/>
    </clipPath>
    <clipPath id="clip-path-11">
      <path id="Path_145688" data-name="Path 145688" d="M636.871,401.71l-1.191,2.458-.011.031.008.029a1,1,0,0,0,.089.236.951.951,0,0,0,.167.2l.022.025h2.8a.781.781,0,0,1,.312.072.661.661,0,0,1,.249.2.847.847,0,0,1,.138.284,1.506,1.506,0,0,1,.044.393v1.3H634.67v-5.225h-.622v5.873h6.076v-2.031a2.027,2.027,0,0,0-.075-.539,1.331,1.331,0,0,0-.254-.487,1.534,1.534,0,0,0-.466-.366,1.391,1.391,0,0,0-.608-.123h-2.273l1.115-2.332Z" transform="translate(-634.048 -401.71)" fill="#fff"/>
    </clipPath>
    <clipPath id="clip-path-12">
      <path id="Path_145689" data-name="Path 145689" d="M625.992,364.065l.59.877a2.937,2.937,0,0,1,.868-.388,1,1,0,0,0-.048.3.966.966,0,1,0,1.931,0,1.062,1.062,0,0,0-.046-.288,2.794,2.794,0,0,1,.739.379l.584-.879a3.723,3.723,0,0,0-2.214-.715,4.43,4.43,0,0,0-2.4.716" transform="translate(-625.992 -363.349)" fill="#fff"/>
    </clipPath>
    <clipPath id="clip-path-13">
      <path id="Path_145690" data-name="Path 145690" d="M640.508,382.025a.56.56,0,0,1-.189-.129.607.607,0,0,1-.125-.2.7.7,0,0,1-.046-.256.712.712,0,0,1,.046-.26.562.562,0,0,1,.125-.2.544.544,0,0,1,.189-.129.608.608,0,0,1,.235-.047.6.6,0,0,1,.237.047.563.563,0,0,1,.188.129.588.588,0,0,1,.126.2.682.682,0,0,1,.045.26.672.672,0,0,1-.045.256.638.638,0,0,1-.126.2.581.581,0,0,1-.188.129.641.641,0,0,1-.237.044.652.652,0,0,1-.235-.044m-.045-1.286a.636.636,0,0,0-.228.158.667.667,0,0,0-.153.236.862.862,0,0,0,0,.615.684.684,0,0,0,.153.235.636.636,0,0,0,.228.151.673.673,0,0,0,.28.057.682.682,0,0,0,.282-.057.658.658,0,0,0,.228-.151.726.726,0,0,0,.155-.235.865.865,0,0,0,0-.615.707.707,0,0,0-.155-.236.657.657,0,0,0-.228-.158.7.7,0,0,0-.282-.057.691.691,0,0,0-.28.057" transform="translate(-640.025 -380.682)" fill="#fff"/>
    </clipPath>
    <clipPath id="clip-path-14">
      <path id="Path_145691" data-name="Path 145691" d="M640.514,381.08h.173a.458.458,0,0,1,.084.006.225.225,0,0,1,.06.021.111.111,0,0,1,.039.041.134.134,0,0,1,.012.058.111.111,0,0,1-.04.093.233.233,0,0,1-.144.033h-.184Zm-.116-.121v.823h.116v-.329h.232l.156.33h.135l-.171-.359a.2.2,0,0,0,.1-.076.246.246,0,0,0,.044-.143.25.25,0,0,0-.028-.123A.213.213,0,0,0,640.9,381a.307.307,0,0,0-.1-.037,1.068,1.068,0,0,0-.126-.009Z" transform="translate(-640.398 -380.958)" fill="#fff"/>
    </clipPath>
    <clipPath id="clip-path-15">
      <path id="Path_145692" data-name="Path 145692" d="M633.384,382.59a13.637,13.637,0,0,1-10.178-4.679l-.749.729a14.4,14.4,0,0,0,21.854,0l-.749-.729a13.64,13.64,0,0,1-10.178,4.679" transform="translate(-622.457 -377.911)" fill="#fff"/>
    </clipPath>
    <clipPath id="clip-path-16">
      <path id="Path_145693" data-name="Path 145693" d="M633.632,384.615a20.7,20.7,0,0,1,.929-5.645,20.412,20.412,0,0,1,.572,2.287,20.633,20.633,0,0,1,.357,3.358,8.157,8.157,0,0,1-1.858,0m-1.819-.427a15.5,15.5,0,0,1-1.631-3.773,15.856,15.856,0,0,1-.389-1.764,2.821,2.821,0,0,0,1.614.509,5.144,5.144,0,0,0,1.881-.361l.216-.092a21.167,21.167,0,0,0-.581,2.334,21.873,21.873,0,0,0-.373,3.375c-.249-.062-.5-.142-.738-.228m7.519-5.544a15.284,15.284,0,0,1-.392,1.771,15.477,15.477,0,0,1-1.628,3.77c-.242.087-.489.166-.741.23a21.566,21.566,0,0,0-.953-5.709l.215.092a5.125,5.125,0,0,0,1.88.361,2.809,2.809,0,0,0,1.62-.516m-10.657,3.491a8.72,8.72,0,0,1-1.766-2.714,18.41,18.41,0,0,1,1.734-1.143,16.884,16.884,0,0,0,.5,2.458,16.708,16.708,0,0,0,.975,2.6,8.451,8.451,0,0,1-1.443-1.2m11.3-1.4a16.915,16.915,0,0,0,.5-2.458,19.723,19.723,0,0,1,1.729,1.138,8.71,8.71,0,0,1-1.771,2.725,8.316,8.316,0,0,1-1.432,1.189,16.642,16.642,0,0,0,.973-2.594m-9.836-3.237a18.028,18.028,0,0,1,2.68-.984,6.536,6.536,0,0,0,1.591-.686l.146-.092.15.092a6.491,6.491,0,0,0,1.587.686,18.043,18.043,0,0,1,2.681.984,1.785,1.785,0,0,1-1.267.531,3.988,3.988,0,0,1-1.493-.287,4.14,4.14,0,0,1-1.3-.824l-.361-.335-.361.335a4.158,4.158,0,0,1-1.3.824,3.983,3.983,0,0,1-1.493.287,1.78,1.78,0,0,1-1.263-.531m-6.562-5.2a3.15,3.15,0,0,1-.819-1.58,2.978,2.978,0,0,1,1.52.85,3.179,3.179,0,0,1,.818,1.581,2.946,2.946,0,0,1-1.519-.851m21.246-.9a2.954,2.954,0,0,1,1.569-.86,3.179,3.179,0,0,1-.858,1.859,2.967,2.967,0,0,1-1.57.86,3.177,3.177,0,0,1,.858-1.859m-18.583,4.626v-6.634l.109.117a7.646,7.646,0,0,1,1.591,2.474,7.922,7.922,0,0,1,.557,2.922v0c0,.732,0,1.43.029,2.158a19.361,19.361,0,0,0-1.994,1.254,8.845,8.845,0,0,1-.292-2.3m14.347,1.041c.016-.293.025-.588.025-.883V374.9a7.906,7.906,0,0,1,.558-2.922,7.632,7.632,0,0,1,1.591-2.474l.109-.117V373.3l-.01.3h.01v2.417a8.977,8.977,0,0,1-.294,2.29,19.419,19.419,0,0,0-1.988-1.25m3.369-9.949a2.933,2.933,0,0,1,1.578.861,3.174,3.174,0,0,1,.785,1.428,4.033,4.033,0,0,0-2.263,1.2l-.1.11Zm-18.913,3.657a4.031,4.031,0,0,0-2.3-1.2,3.17,3.17,0,0,1,.838-1.683,2.956,2.956,0,0,1,1.578-.865v3.873Zm10.056-3.449a4.437,4.437,0,0,1,1.224-3.081,4.045,4.045,0,0,1,4.573-.936,4.336,4.336,0,0,1,1.939,2.727l-.032,1.128A3.114,3.114,0,0,1,642,368.7a8.841,8.841,0,0,0-1.826,2.843,9.092,9.092,0,0,0-.642,3.354v1.264a1.989,1.989,0,0,1-.034.346,18.944,18.944,0,0,0-2.918-1.081,5.39,5.39,0,0,1-1.064-.424l.267-.262a1.815,1.815,0,0,1,.589-.411,1.752,1.752,0,0,1,.7-.144h.543v-.564a3.133,3.133,0,0,0-.222-1.156,3.011,3.011,0,0,0-.63-.981,5.954,5.954,0,0,1-1.226-1.909,6.057,6.057,0,0,1-.194-.579,3.114,3.114,0,0,1,1.808-1.879.358.358,0,0,1,.037-.007,1.021,1.021,0,0,0-.061.342.965.965,0,1,0,1.93,0,1.032,1.032,0,0,0-.043-.28,3.553,3.553,0,0,1,.785.346l.54-.907a4.382,4.382,0,0,0-3.493-.515,3.571,3.571,0,0,0-1.735,1.252v-.031m-5.511,8.948,0-1.365v0a9.062,9.062,0,0,0-.643-3.35,8.81,8.81,0,0,0-1.824-2.846,3.182,3.182,0,0,1-.65-1.008,3.476,3.476,0,0,1-.156-.516l-.037-1.128a4.537,4.537,0,0,1,2.3-2.982,11.462,11.462,0,0,1,5.986-1.539,13,13,0,0,1,3.477.461,5.2,5.2,0,0,0-2.477,1.453,5.58,5.58,0,0,0-1.544,3.875,7.252,7.252,0,0,0,.515,2.685,7.041,7.041,0,0,0,1.459,2.277v0a1.888,1.888,0,0,1,.4.61l.074.229a3.052,3.052,0,0,0-.5.166,2.929,2.929,0,0,0-.946.651,5.392,5.392,0,0,1-.451.421,5.81,5.81,0,0,1-.451-.421,2.923,2.923,0,0,0-.944-.651,2.765,2.765,0,0,0-1.109-.231v1.128a1.769,1.769,0,0,1,.7.145,1.811,1.811,0,0,1,.586.41l.267.262a5.434,5.434,0,0,1-1.063.424,18.858,18.858,0,0,0-2.923,1.083Zm-9.454-5.937a10.674,10.674,0,0,1-2.683-6.063,7.738,7.738,0,0,1,1.571-5.452,7.147,7.147,0,0,1,4.87-2.771l.631-.044q2.338-.057,4.619-.208c1.52-.1,3.048-.237,4.576-.411l.1-.011c1.52-.17,3.021-.378,4.5-.611q2.264-.359,4.551-.822l.628-.1a7.041,7.041,0,0,1,5.33,1.624,7.618,7.618,0,0,1,2.669,5.067,9.132,9.132,0,0,1-1.015,5.246,8.684,8.684,0,0,1-3.111,3.323,4.324,4.324,0,0,0-1.062-1.921,4.019,4.019,0,0,0-2.38-1.211A5.577,5.577,0,0,0,641.1,362.1a13.439,13.439,0,0,0-13.086,0,5.618,5.618,0,0,0-2.811,3.768,4.027,4.027,0,0,0-2.393,1.213,4.266,4.266,0,0,0-1.011,1.74l0,.009a4.449,4.449,0,0,0,.241,3.144,10.1,10.1,0,0,1-1.9-1.645m16.871-16.8a5.156,5.156,0,0,0,.781-1.429l.427,1.534-1.489.225c.1-.106.194-.215.281-.33m-7.755-2.556c.575-.164,1.165-.309,1.766-.431.728-.149,1.457-.268,2.183-.347s1.475-.135,2.2-.15c.524-.008,1.053,0,1.582.021a4.009,4.009,0,0,1-.825,2.754,3.728,3.728,0,0,1-2.473,1.431l-.064.007q-2.26.257-4.551.407l-.06,0Zm6.133-2.052c-.769.014-1.538.066-2.3.151s-1.531.21-2.274.36-1.486.341-2.227.568l-.365.11-.3,4.629q-1.721.094-3.419.136l-.364.015-.362.032a8.243,8.243,0,0,0-5.6,3.186,8.9,8.9,0,0,0-1.791,6.371,11.82,11.82,0,0,0,2.958,6.627,11.07,11.07,0,0,0,5.813,3.4l0,1.512a9.941,9.941,0,0,0,2.754,6.917,9.137,9.137,0,0,0,13.3,0,9.953,9.953,0,0,0,2.754-6.915V374.4a4.039,4.039,0,0,0,2.347-1.208,4.315,4.315,0,0,0,1.193-2.878,9.777,9.777,0,0,0,3.926-3.986,10.314,10.314,0,0,0,1.146-5.914,8.769,8.769,0,0,0-3.067-5.829,8.093,8.093,0,0,0-6.125-1.866l-.36.049-.356.063q-1.673.338-3.37.628L638.056,349l-.38-.028c-.577-.04-1.166-.059-1.757-.059-.176,0-.353,0-.531,0" transform="translate(-616.34 -348.914)" fill="#fff"/>
    </clipPath>
  </defs>
  <g id="Group_132143" data-name="Group 132143" transform="translate(18.204 15)" opacity="0.4">
    <g transform="matrix(1, 0, 0, 1, -18.2, -15)" filter="url(#Rectangle_110162)">
      <rect id="Rectangle_110162-2" data-name="Rectangle 110162" width="100" height="100" rx="8" transform="translate(18 15)" fill="#fff" opacity="0"/>
    </g>
    <g id="Group_131132" data-name="Group 131132" transform="translate(24.023 15.205)">
      <g id="Group_125109" data-name="Group 125109" transform="translate(30.735 42.555)">
        <g id="Group_125108" data-name="Group 125108" clip-path="url(#clip-path)">
          <rect id="Rectangle_17724" data-name="Rectangle 17724" width="2.815" height="2.85" transform="matrix(0.882, -0.471, 0.471, 0.882, -0.887, 0.474)" fill="#fff"/>
        </g>
      </g>
      <g id="Group_125111" data-name="Group 125111" transform="translate(33.323 42.555)">
        <g id="Group_125110" data-name="Group 125110" clip-path="url(#clip-path-2)">
          <rect id="Rectangle_17725" data-name="Rectangle 17725" width="2.815" height="2.85" transform="matrix(0.882, -0.471, 0.471, 0.882, -0.887, 0.474)" fill="#fff"/>
        </g>
      </g>
      <g id="Group_125113" data-name="Group 125113" transform="translate(16.068 42.555)">
        <g id="Group_125112" data-name="Group 125112" transform="translate(0)" clip-path="url(#clip-path-3)">
          <rect id="Rectangle_17726" data-name="Rectangle 17726" width="2.815" height="2.85" transform="translate(-0.887 0.474) rotate(-28.094)" fill="#fff"/>
        </g>
      </g>
      <g id="Group_125115" data-name="Group 125115" transform="translate(18.656 42.555)">
        <g id="Group_125114" data-name="Group 125114" transform="translate(0)" clip-path="url(#clip-path-4)">
          <rect id="Rectangle_17727" data-name="Rectangle 17727" width="2.815" height="2.85" transform="matrix(0.882, -0.471, 0.471, 0.882, -0.887, 0.474)" fill="#fff"/>
        </g>
      </g>
      <g id="Group_125117" data-name="Group 125117" transform="translate(17.338 39.966)">
        <g id="Group_125116" data-name="Group 125116" transform="translate(0)" clip-path="url(#clip-path-5)">
          <rect id="Rectangle_17728" data-name="Rectangle 17728" width="2.813" height="2.847" transform="translate(-0.886 0.473) rotate(-28.093)" fill="#fff"/>
        </g>
      </g>
      <g id="Group_125119" data-name="Group 125119" transform="translate(0 45.654)">
        <g id="Group_125118" data-name="Group 125118" clip-path="url(#clip-path-6)">
          <rect id="Rectangle_17729" data-name="Rectangle 17729" width="51.095" height="34.805" transform="translate(-4.959 2.647) rotate(-28.093)" fill="#fff"/>
        </g>
      </g>
      <g id="Group_125121" data-name="Group 125121" transform="translate(21.228 68.693)">
        <g id="Group_125120" data-name="Group 125120" transform="translate(0)" clip-path="url(#clip-path-7)">
          <rect id="Rectangle_17730" data-name="Rectangle 17730" width="1.196" height="1.183" transform="translate(-0.369 0.704) rotate(-62.354)" fill="#fff"/>
        </g>
      </g>
      <g id="Group_125123" data-name="Group 125123" transform="translate(22.4 68.693)">
        <g id="Group_125122" data-name="Group 125122" clip-path="url(#clip-path-8)">
          <rect id="Rectangle_17731" data-name="Rectangle 17731" width="1.196" height="1.183" transform="translate(-0.369 0.704) rotate(-62.355)" fill="#fff"/>
        </g>
      </g>
      <g id="Group_125125" data-name="Group 125125" transform="translate(16.946 63.882)">
        <g id="Group_125124" data-name="Group 125124" clip-path="url(#clip-path-9)">
          <rect id="Rectangle_17732" data-name="Rectangle 17732" width="8.708" height="11.351" transform="translate(-1.767 3.372) rotate(-62.354)" fill="#fff"/>
        </g>
      </g>
      <g id="Group_125127" data-name="Group 125127" transform="translate(25.969 62.785)">
        <g id="Group_125126" data-name="Group 125126" transform="translate(0)" clip-path="url(#clip-path-10)">
          <rect id="Rectangle_17733" data-name="Rectangle 17733" width="1.198" height="1.183" transform="translate(-0.37 0.706) rotate(-62.353)" fill="#fff"/>
        </g>
      </g>
      <g id="Group_125129" data-name="Group 125129" transform="translate(28.525 62.301)">
        <g id="Group_125128" data-name="Group 125128" clip-path="url(#clip-path-11)">
          <rect id="Rectangle_17734" data-name="Rectangle 17734" width="8.027" height="8.11" transform="translate(-2.416 4.613) rotate(-62.354)" fill="#fff"/>
        </g>
      </g>
      <g id="Group_125131" data-name="Group 125131" transform="translate(19.019 17.034)">
        <g id="Group_125130" data-name="Group 125130" transform="translate(0)" clip-path="url(#clip-path-12)">
          <rect id="Rectangle_17735" data-name="Rectangle 17735" width="4.965" height="5.099" transform="translate(-1.248 1.366) rotate(-47.577)" fill="#fff"/>
        </g>
      </g>
      <g id="Group_125133" data-name="Group 125133" transform="translate(35.578 37.487)">
        <g id="Group_125132" data-name="Group 125132" transform="translate(0 0)" clip-path="url(#clip-path-13)">
          <rect id="Rectangle_17736" data-name="Rectangle 17736" width="2.084" height="2.079" transform="matrix(0.675, -0.738, 0.738, 0.675, -0.751, 0.822)" fill="#fff"/>
        </g>
      </g>
      <g id="Group_125135" data-name="Group 125135" transform="translate(36.018 37.813)">
        <g id="Group_125134" data-name="Group 125134" clip-path="url(#clip-path-14)">
          <rect id="Rectangle_17737" data-name="Rectangle 17737" width="1.038" height="1.026" transform="matrix(0.675, -0.738, 0.738, 0.675, -0.41, 0.448)" fill="#fff"/>
        </g>
      </g>
      <g id="Group_125137" data-name="Group 125137" transform="translate(14.847 34.217)">
        <g id="Group_125136" data-name="Group 125136" transform="translate(0)" clip-path="url(#clip-path-15)">
          <rect id="Rectangle_17738" data-name="Rectangle 17738" width="18.987" height="20.011" transform="matrix(0.675, -0.738, 0.738, 0.675, -2.863, 3.133)" fill="#fff"/>
        </g>
      </g>
      <g id="Group_125139" data-name="Group 125139" transform="translate(7.629 0)">
        <g id="Group_125138" data-name="Group 125138" transform="translate(0)" clip-path="url(#clip-path-16)">
          <rect id="Rectangle_17739" data-name="Rectangle 17739" width="51.955" height="51.94" transform="matrix(0.675, -0.738, 0.738, 0.675, -18.568, 20.101)" fill="#fff"/>
        </g>
      </g>
    </g>
  </g>
</svg>
