<svg xmlns="http://www.w3.org/2000/svg" xmlns:xlink="http://www.w3.org/1999/xlink" width="101" height="100" viewBox="0 0 101 100">
  <defs>
    <clipPath id="clip-path">
      <path id="Path_145330" data-name="Path 145330" d="M739.457,251.873A63.918,63.918,0,0,0,728.72,253.4c-1.651.4-3.3.809-4.925,1.321a5.826,5.826,0,0,0-4.112,4.613,18.81,18.81,0,0,0-.388,2.5,69.024,69.024,0,0,0,.217,10.921c.157,2.021.38,4.044.591,6.059.261,2.574.5,5.149.822,7.714a154.1,154.1,0,0,0,3.11,17.019,10.861,10.861,0,0,0,1.443,3.665,3.455,3.455,0,0,0,2.377,1.593,7.583,7.583,0,0,0,1.107.077c2.931,0,5.869-.016,8.8-.023,3.155-.007,6.31,0,9.464,0,0,0,0,.007.015.016h14.084c1.48,0,2.953,0,4.433-.016a2.576,2.576,0,0,0,2.116-1.074A7.607,7.607,0,0,0,768.9,306.1a34.981,34.981,0,0,0,1.389-3.982,122.622,122.622,0,0,0,3.02-17.267c.5-4.256.875-8.533,1.249-12.8a72.542,72.542,0,0,0,.27-8.384,21.491,21.491,0,0,0-.486-4.308,6.021,6.021,0,0,0-3.894-4.565c-.119-.04-.241-.094-.36-.133a60.679,60.679,0,0,0-8.291-1.969,97.091,97.091,0,0,0-12.573-1.111c-.734-.029-1.466-.042-2.2-.042-2.526,0-5.05.15-7.57.337" transform="translate(-719.156 -251.536)" fill="#fff" opacity="0"/>
    </clipPath>
    <clipPath id="clip-path-2">
      <path id="Path_145332" data-name="Path 145332" d="M743.31,295.583a6.034,6.034,0,0,1,.007-3.623,3.257,3.257,0,0,1,.9-1.589,1.306,1.306,0,0,1,.9-.372,1.15,1.15,0,0,1,.688.234c-.083.9-.158,1.8-.232,2.706-.081.965-.172,1.969-.253,2.95-.046.559-.3.667-.755.667a1.261,1.261,0,0,1-1.249-.972m.552,2.14a2.622,2.622,0,0,1-2.608-2.467,6.917,6.917,0,0,1,.59-3.959,3.857,3.857,0,0,1,1.122-1.524,5.48,5.48,0,0,1,.612-.4.984.984,0,0,0-.119.117,4.418,4.418,0,0,0-1.233,2.152,7.183,7.183,0,0,0,.016,4.34,2.385,2.385,0,0,0,2.107,1.742c-.049,0-.1.006-.144.006-.115,0-.227-.008-.343-.011m2.58-1.728c.09-.988.171-1.991.254-2.954.083-.933.156-1.86.238-2.785a1.011,1.011,0,0,0-.254-.786.784.784,0,0,0,.359-.683,2.726,2.726,0,0,1,.762-1.565,1.022,1.022,0,0,1,.075-.1v.022c-.171,2.133-.36,4.3-.538,6.389-.066.754-.128,1.514-.2,2.269l-.007.109a4.012,4.012,0,0,1-.135.894l-.029.048a1.621,1.621,0,0,1-.666.458,5.608,5.608,0,0,1-.973.3,1.761,1.761,0,0,0,1.108-1.618m1.919-11.149a.819.819,0,0,0-.685.533,4.547,4.547,0,0,1-.605.909c-.045.057-.1.117-.143.178a4.568,4.568,0,0,0-.935,1.7,3.441,3.441,0,0,0-3.686.645,5.139,5.139,0,0,0-1.48,1.969,8.072,8.072,0,0,0-.7,4.651,3.77,3.77,0,0,0,3.669,3.484c.128.009.263.009.389.009a6.687,6.687,0,0,0,2.551-.507,2.616,2.616,0,0,0,1.189-.886.345.345,0,0,0,.067-.109l.045-.086a.39.39,0,0,0,.036-.084,4.667,4.667,0,0,0,.217-1.238l.008-.109c.068-.754.128-1.516.2-2.271.179-2.1.367-4.263.538-6.394.016-.138.029-.288.045-.443a7.583,7.583,0,0,0,.06-1.378.6.6,0,0,0-.389-.513,1.05,1.05,0,0,0-.269-.058Z" transform="translate(-740.043 -284.846)" fill="#fff"/>
    </clipPath>
    <clipPath id="clip-path-3">
      <path id="Path_145335" data-name="Path 145335" d="M727.2,297.144c-.083-.008-.171-.008-.262-.008.052-.637.1-1.275.158-1.9.119-1.424.239-2.887.365-4.334a1.849,1.849,0,0,0-.239-1.175,3.29,3.29,0,0,1,.592-.357,5.32,5.32,0,0,1,1.128-.428c-.024.024-.045.039-.068.064a2.352,2.352,0,0,0-.725,1.719c-.008.171-.031.341-.045.52-.015.108-.024.211-.029.311-.127,1.516-.247,3.04-.373,4.559l-.083,1.033c-.045,0-.092,0-.137,0-.093,0-.186,0-.281,0m5.045-3.313c.031-.349.06-.709.1-1.058a21,21,0,0,0,.134-2.38,1.856,1.856,0,0,0-.793-1.585,1.643,1.643,0,0,1,1.421.924,1.29,1.29,0,0,0,.09.388l.023.218v.1l-.016.177v.01l-.126,1.522c-.135,1.628-.277,3.252-.412,4.878,0,.032-.007.071-.007.1-.224,0-.449,0-.68.008.09-.988.186-2.131.269-3.3m-4.926-5.555a3.086,3.086,0,0,0-1.219.949l-.015.025a.722.722,0,0,0,.127,1.048c.068.056.152.126.122.482-.128,1.448-.249,2.917-.369,4.341-.059.693-.111,1.391-.171,2.084v.008a1.023,1.023,0,0,0,.171.856.946.946,0,0,0,.823.242c.127,0,.254.006.389.006.1.009.209.009.321.009a3.308,3.308,0,0,0,.612-.048.553.553,0,0,0,.434-.233,1.313,1.313,0,0,0,.075-.138l.037-.079a.219.219,0,0,0,.023-.039.665.665,0,0,0,.044-.239l.112-1.355c.128-1.515.246-3.04.374-4.557.008-.093.022-.2.029-.289.015-.2.037-.389.044-.59a1.209,1.209,0,0,1,.33-.872,1.38,1.38,0,0,1,1.068-.217.656.656,0,0,1,.658.74,19.2,19.2,0,0,1-.134,2.24c-.037.356-.067.721-.1,1.086-.1,1.293-.2,2.546-.3,3.6a.965.965,0,0,0,.2.741.836.836,0,0,0,.666.248c.337-.015.679-.015,1.016-.023.143,0,.286-.009.429-.009a.587.587,0,0,0,.469-.28,1.584,1.584,0,0,0,.2-.784c0-.039.007-.078.007-.118.142-1.625.276-3.25.411-4.878l.112-1.338v-.015l.029-.4v-.235l-.029-.335a.726.726,0,0,0-.044-.179.757.757,0,0,1-.03-.077.652.652,0,0,0-.039-.264,2.937,2.937,0,0,0-2.8-1.829c-.277-.022-.544-.033-.811-.033a7.185,7.185,0,0,0-3.271.742" transform="translate(-725.774 -287.535)" fill="#fff"/>
    </clipPath>
    <clipPath id="clip-path-4">
      <path id="Path_145338" data-name="Path 145338" d="M735.01,297.056a1.039,1.039,0,0,1-.523-.357,1.687,1.687,0,0,1-.239-1.269,2.216,2.216,0,0,1,.838-1.414,3.262,3.262,0,0,1,.275-.18,2.51,2.51,0,0,0-.456,1.54,2.151,2.151,0,0,0,.635,1.726,2.026,2.026,0,0,0,.232.188,5.066,5.066,0,0,1-.763-.234m1.294-.84a.977.977,0,0,1-.255-.793v-.064a1.365,1.365,0,0,1,.681-1.251,4.36,4.36,0,0,1,1.166-.539c-.007.094-.015.2-.015.29-.06.691-.12,1.4-.2,2.092a.528.528,0,0,1-.471.458,1.936,1.936,0,0,1-.273.024.9.9,0,0,1-.638-.219m-1.121-5.786c-.022-.008-.067-.032-.036-.18a1.435,1.435,0,0,1,.71-.919c.074-.044.148-.092.224-.132a3.2,3.2,0,0,0-.286.414c-.074.133-.134.271-.194.395a3.422,3.422,0,0,1-.186.374.151.151,0,0,1-.133.073.226.226,0,0,1-.1-.025m3.633,5.648c.075-.709.134-1.426.194-2.124.021-.264.045-.538.068-.8a.849.849,0,0,0-.172-.645.792.792,0,0,0,.269-.584c.008-.178.023-.357.044-.545a5.239,5.239,0,0,0-.006-1.641,1.53,1.53,0,0,0-.63-.978,1.389,1.389,0,0,1,1.093.543,2.955,2.955,0,0,1,.172,1.509l-.068.847c-.112,1.354-.231,2.752-.352,4.129-.013.149-.044.312-.074.474-.007.062-.023.125-.031.187a.661.661,0,0,1-.285.352c-.238.116-.478.217-.71.3a1.657,1.657,0,0,0,.486-1.024m-3.56-7.74a2.6,2.6,0,0,0-1.225,1.657,1.31,1.31,0,0,0,.68,1.531,1.277,1.277,0,0,0,1.667-.5c.1-.164.171-.325.246-.483.053-.108.105-.217.158-.319a.858.858,0,0,1,.979-.521.352.352,0,0,1,.33.31,4.3,4.3,0,0,1-.008,1.276c-.008.1-.023.212-.031.321-.643.178-1.3.365-1.943.59a6.641,6.641,0,0,0-1.661.84,3.419,3.419,0,0,0-1.321,2.185,2.918,2.918,0,0,0,.434,2.171,2.212,2.212,0,0,0,1.052.778,5.932,5.932,0,0,0,2.139.411,6.209,6.209,0,0,0,2.78-.691,1.827,1.827,0,0,0,.861-1.012.541.541,0,0,0,.036-.133c.008-.077.023-.155.039-.234a4.772,4.772,0,0,0,.09-.591c.119-1.376.238-2.776.351-4.13l.067-.846a4.133,4.133,0,0,0-.3-2.177.292.292,0,0,0-.037-.071,2.661,2.661,0,0,0-2.182-1.119c-.167-.016-.331-.022-.493-.022a4.949,4.949,0,0,0-2.708.784" transform="translate(-733.079 -287.554)" fill="#fff"/>
    </clipPath>
    <clipPath id="clip-path-5">
      <path id="Path_145341" data-name="Path 145341" d="M756.676,296.581a3.512,3.512,0,0,1-.68-1.7,7,7,0,0,1-.09-1.183,6.613,6.613,0,0,1,1.077-3.63,2.741,2.741,0,0,1,.268-.336,4.557,4.557,0,0,0-.852,2.318,6.2,6.2,0,0,0,.187,2.63,3.639,3.639,0,0,0,.658,1.237,2.457,2.457,0,0,0,1.75.9,2.417,2.417,0,0,0,1.487-.412,2.912,2.912,0,0,1-1.308.857,3.111,3.111,0,0,1-.82.12,2.15,2.15,0,0,1-1.677-.8m4.53-5.935c-.044-.1-.09-.211-.135-.333-.037-.094-.075-.2-.119-.305a2.2,2.2,0,0,0-1.271-1.267,1.845,1.845,0,0,1,.6.118,1.708,1.708,0,0,1,1.227,1.25.467.467,0,0,1-.2.569.2.2,0,0,1-.075.017c0-.009-.016-.017-.029-.049m-5.151-1.267a7.9,7.9,0,0,0-1.294,4.3v.023a7.981,7.981,0,0,0,.113,1.4,4.652,4.652,0,0,0,.964,2.287,3.256,3.256,0,0,0,2.512,1.182,3.981,3.981,0,0,0,1.128-.179,4.127,4.127,0,0,0,2.849-3.345v-.022c.059-.577-.12-.949-.539-1.112-.269-.1-.666-.109-1.024.435a.082.082,0,0,0-.031.039,5.343,5.343,0,0,1-.664.841,1.341,1.341,0,0,1-1.017.4,1.37,1.37,0,0,1-.956-.506,2.314,2.314,0,0,1-.428-.826,5.042,5.042,0,0,1-.142-2.124,3.182,3.182,0,0,1,.853-1.981.987.987,0,0,1,.86-.341,1,1,0,0,1,.666.643c.037.078.067.166.1.249a4.482,4.482,0,0,0,.186.451,1.161,1.161,0,0,0,1.555.576,1.643,1.643,0,0,0,.86-1.968,2.872,2.872,0,0,0-1.98-2.076,3.488,3.488,0,0,0-1.1-.168,4.2,4.2,0,0,0-3.469,1.825" transform="translate(-754.762 -287.555)" fill="#fff"/>
    </clipPath>
    <clipPath id="clip-path-6">
      <path id="Path_145362" data-name="Path 145362" d="M750.726,297.259a2.444,2.444,0,0,1-1.7-1.7,5.678,5.678,0,0,1-.254-1.813,7.388,7.388,0,0,1,.449-2.582c-.037.172-.06.319-.075.43a.759.759,0,0,0,.164.591.693.693,0,0,0,.217.178.772.772,0,0,0-.179.17,1.317,1.317,0,0,0-.156.958,5.111,5.111,0,0,0,.3,1.454,2.911,2.911,0,0,0,1.584,1.734,2.728,2.728,0,0,0,2.3-.141,3.268,3.268,0,0,0,.388-.231,2.876,2.876,0,0,1-2.217,1.073,3.039,3.039,0,0,1-.818-.116m1.009-7.545a1.323,1.323,0,0,1,.172-.008.733.733,0,0,1,.508.17,1.609,1.609,0,0,1,.359.912,19.405,19.405,0,0,1-2.407.418c.172-.6.545-1.393,1.368-1.492m2.214,1.585a3.238,3.238,0,0,0-.74-2.27,2,2,0,0,0-.322-.248c.1.024.2.045.307.078a2.523,2.523,0,0,1,1.51,2.565.061.061,0,0,0-.008.031.256.256,0,0,1-.061.017c-.261.037-.523.085-.785.125a.567.567,0,0,0,.1-.3m-5.315-1.58a8.144,8.144,0,0,0-1.009,4.021v.026a7,7,0,0,0,.321,2.2,3.592,3.592,0,0,0,2.476,2.443,4.274,4.274,0,0,0,1.12.154A3.95,3.95,0,0,0,753.56,298a4.616,4.616,0,0,0,1.981-2.667,1.567,1.567,0,0,0,.1-.527.9.9,0,0,0-.463-.787c-.24-.133-.71-.255-1.137.382a.277.277,0,0,1-.036.053,3.413,3.413,0,0,1-1.136,1.018,1.642,1.642,0,0,1-1.384.11,1.736,1.736,0,0,1-.941-1.059,4.1,4.1,0,0,1-.226-1.111.125.125,0,0,1-.007-.053c.015,0,.031-.009.045-.009l.03-.008c.733-.109,1.473-.226,2.191-.342s1.481-.233,2.219-.35a1.16,1.16,0,0,0,1.025-1.034,3.723,3.723,0,0,0-2.287-3.88,3.647,3.647,0,0,0-1.151-.183,4.424,4.424,0,0,0-3.746,2.164" transform="translate(-747.624 -287.556)" fill="#fff"/>
    </clipPath>
  </defs>
  <g id="Group_132140" data-name="Group 132140" transform="translate(0.035)">
    <rect id="Rectangle_110162" data-name="Rectangle 110162" width="101" height="100" rx="8" transform="translate(-0.035)" fill="#fff" opacity="0"/>
    <g id="Group_131179" data-name="Group 131179" transform="translate(20.378 19.815)" opacity="0.4">
      <path id="Path_148238" data-name="Path 148238" d="M747.34,311.269c-6.033,0-12.073.008-18.105-.016a8.564,8.564,0,0,1-2.183-.294,5.4,5.4,0,0,1-3.207-2.568,13.783,13.783,0,0,1-1.63-4.394c-.606-2.8-1.234-5.6-1.757-8.424-.763-4.089-1.376-8.213-1.773-12.367-.306-3.241-.679-6.479-.956-9.721a81.623,81.623,0,0,1-.345-10.034,22.908,22.908,0,0,1,.486-4.145,8.03,8.03,0,0,1,5.39-6.31c1.645-.567,3.349-.962,5.037-1.382a64.833,64.833,0,0,1,10.922-1.6c3.013-.226,6.025-.421,9.038-.358a108.906,108.906,0,0,1,12.432.92,65.952,65.952,0,0,1,10.04,2.225,9.021,9.021,0,0,1,1.092.426,8.162,8.162,0,0,1,4.844,6.338,27.1,27.1,0,0,1,.456,6.325c-.082,2.683-.21,5.374-.412,8.05-.179,2.45-.47,4.893-.725,7.334-.194,1.875-.351,3.757-.6,5.624a125.788,125.788,0,0,1-2.961,16.248,24.934,24.934,0,0,1-1.666,4.612c-.135.274-.285.536-.442.8a4.93,4.93,0,0,1-4.6,2.7c-3.206-.021-6.414-.008-9.62-.008h-8.77c.008,0,.008.008.008.016m0-.894v.017h2.37c2.854,0,5.719-.008,8.573-.008,2.483,0,4.957-.009,7.438-.009a4.139,4.139,0,0,0,2.22-.543,5.549,5.549,0,0,0,1.906-2.2,24.788,24.788,0,0,0,2.026-5.691,98.174,98.174,0,0,0,1.891-9.772c.366-2.457.718-4.921,1-7.394.329-2.865.56-5.742.866-8.612a103.408,103.408,0,0,0,.62-11.3,25.987,25.987,0,0,0-.4-4.878,8.031,8.031,0,0,0-2.3-4.582,8.6,8.6,0,0,0-3.581-1.889,69,69,0,0,0-13.239-2.464c-3.2-.257-6.4-.521-9.607-.474-2.593.039-5.188.194-7.774.356a59.705,59.705,0,0,0-10.637,1.526c-1.72.428-3.454.838-5.136,1.39a6.817,6.817,0,0,0-4.552,4.614,12.861,12.861,0,0,0-.472,1.944,38.757,38.757,0,0,0-.291,7.387c.105,3.626.472,7.226.838,10.827.411,4.021.769,8.06,1.405,12.056.635,4.013,1.323,8.019,2.294,11.964a33.73,33.73,0,0,0,1.084,3.84c.913,2.411,2.46,3.944,5.6,3.915,5.951-.054,11.9-.017,17.852-.017" transform="translate(-717.344 -249.641)" fill="#fff"/>
      <path id="Path_148239" data-name="Path 148239" d="M747.236,310.265c-5.95,0-11.9-.039-17.851.016-3.14.032-4.688-1.5-5.6-3.911a33.559,33.559,0,0,1-1.083-3.842c-.973-3.942-1.66-7.95-2.3-11.963s-.995-8.027-1.406-12.056c-.373-3.6-.733-7.2-.837-10.826a38.22,38.22,0,0,1,.292-7.39,13.461,13.461,0,0,1,.472-1.944,6.779,6.779,0,0,1,4.552-4.612c1.682-.559,3.416-.974,5.136-1.394a60.209,60.209,0,0,1,10.637-1.524c2.586-.162,5.18-.328,7.775-.357,3.206-.048,6.406.218,9.605.475a68.491,68.491,0,0,1,13.239,2.467,8.533,8.533,0,0,1,3.581,1.889,8.083,8.083,0,0,1,2.3,4.58,25.969,25.969,0,0,1,.4,4.876,103.875,103.875,0,0,1-.62,11.3c-.3,2.873-.538,5.75-.866,8.611-.285,2.475-.636,4.941-1,7.4a98.389,98.389,0,0,1-1.891,9.766,24.7,24.7,0,0,1-2.026,5.694,5.614,5.614,0,0,1-1.906,2.2,4.124,4.124,0,0,1-2.22.543c-2.481.007-4.956.007-7.438.007-2.854.009-5.718.009-8.573.009h-2.37Zm.127-1.26v.008h14.084c1.48,0,2.953,0,4.433-.015A2.576,2.576,0,0,0,768,307.925a7.3,7.3,0,0,0,1.032-1.686,35.869,35.869,0,0,0,1.39-3.984,121.426,121.426,0,0,0,3.021-17.269c.5-4.253.874-8.53,1.248-12.8a69.678,69.678,0,0,0,.27-8.384,21.446,21.446,0,0,0-.487-4.309,6.035,6.035,0,0,0-3.894-4.568c-.12-.045-.24-.092-.36-.13a62.38,62.38,0,0,0-8.29-1.969,94.79,94.79,0,0,0-12.574-1.111,88.341,88.341,0,0,0-9.77.3,64.721,64.721,0,0,0-10.735,1.532c-1.652.4-3.3.81-4.926,1.323a5.833,5.833,0,0,0-4.112,4.61,18.653,18.653,0,0,0-.388,2.5,69.125,69.125,0,0,0,.217,10.921c.156,2.022.381,4.037.591,6.059.261,2.575.5,5.149.822,7.717a157.767,157.767,0,0,0,3.11,17.019,11.264,11.264,0,0,0,1.443,3.661,3.425,3.425,0,0,0,2.377,1.594,7.34,7.34,0,0,0,1.107.079c2.931,0,5.869-.024,8.8-.024q4.755,0,9.478.007" transform="translate(-717.241 -249.531)" fill="#fff"/>
      <g id="Group_127150" data-name="Group 127150" transform="translate(25.742 39.925)">
        <g id="Group_124989" data-name="Group 124989" transform="translate(0 0)" clip-path="url(#clip-path-2)">
          <rect id="Rectangle_17657" data-name="Rectangle 17657" width="9.269" height="14.075" transform="translate(-0.142 0)" fill="#fff"/>
        </g>
      </g>
      <path id="Path_148241" data-name="Path 148241" d="M748.49,285.4a10.994,10.994,0,0,1-.1,1.72q-.359,4.328-.732,8.656a5.029,5.029,0,0,1-.194,1.2c-.016.033-.037.071-.053.1l-.007.026a2.113,2.113,0,0,1-.942.691,6.127,6.127,0,0,1-2.691.458,3.179,3.179,0,0,1-3.139-2.971,7.406,7.406,0,0,1,.65-4.3,4.458,4.458,0,0,1,1.3-1.742,2.869,2.869,0,0,1,3.513-.373c.172.11.329.07.337-.164a3.276,3.276,0,0,1,.889-1.92,6.177,6.177,0,0,0,.815-1.2c.075-.2.179-.234.358-.172m-4.007,11.682a1.186,1.186,0,0,0,1.331-1.2c.165-1.914.321-3.827.485-5.731a.429.429,0,0,0-.165-.4,1.762,1.762,0,0,0-2.377.127,3.841,3.841,0,0,0-1.062,1.873,6.639,6.639,0,0,0,.007,3.983,1.833,1.833,0,0,0,1.779,1.352" transform="translate(-714.234 -244.851)" fill="#fff"/>
      <g id="Group_127151" data-name="Group 127151" transform="translate(9.56 42.974)">
        <g id="Group_124993" data-name="Group 124993" transform="translate(0 0)" clip-path="url(#clip-path-3)">
          <rect id="Rectangle_17659" data-name="Rectangle 17659" width="8.604" height="10.8" transform="translate(-0.033 0)" fill="#fff"/>
        </g>
      </g>
      <path id="Path_148243" data-name="Path 148243" d="M733.7,290.579c0,.039-.008.085-.008.124a.324.324,0,0,1-.007.081c-.172,2.067-.344,4.144-.524,6.212a1.338,1.338,0,0,1-.119.64c-.486.008-.972.008-1.457.022-.247.008-.3-.1-.285-.343.1-1.205.21-2.4.3-3.609.082-1.126.254-2.248.231-3.384a1.233,1.233,0,0,0-1.159-1.313,1.6,1.6,0,0,0-2.025,1.648c-.015.288-.045.568-.075.856-.165,1.991-.321,3.983-.485,5.974v-.008l-.068.139.008-.008a7.266,7.266,0,0,1-1.323.039c-.464.008-.456,0-.419-.458.179-2.139.352-4.284.539-6.425a1.062,1.062,0,0,0-.337-1c-.127-.1-.075-.149,0-.247a2.608,2.608,0,0,1,1.009-.772,7,7,0,0,1,3.79-.651,2.372,2.372,0,0,1,2.317,1.453.655.655,0,0,0,.075.357c.008.11.023.228.031.335v.141c0,.079-.008.139-.008.2" transform="translate(-716.148 -244.491)" fill="#fff"/>
      <g id="Group_127152" data-name="Group 127152" transform="translate(17.845 42.996)">
        <g id="Group_124997" data-name="Group 124997" transform="translate(0 0)" clip-path="url(#clip-path-4)">
          <rect id="Rectangle_17661" data-name="Rectangle 17661" width="8.051" height="11.025" transform="translate(-0.087 0)" fill="#fff"/>
        </g>
      </g>
      <path id="Path_148245" data-name="Path 148245" d="M740.093,288.953a3.587,3.587,0,0,1,.247,1.858c-.143,1.657-.277,3.322-.42,4.979-.021.257-.082.521-.119.777a1.233,1.233,0,0,1-.583.709,5.275,5.275,0,0,1-4.47.264,1.619,1.619,0,0,1-.785-.568,2.711,2.711,0,0,1,.747-3.524,6.25,6.25,0,0,1,1.524-.769c.659-.233,1.331-.42,2-.607.127-.04.291-.046.307-.232a7.707,7.707,0,0,0,.044-2.03.912.912,0,0,0-.8-.77,1.419,1.419,0,0,0-1.563.809c-.142.255-.247.535-.4.785a.724.724,0,0,1-.95.271.714.714,0,0,1-.358-.855,2,2,0,0,1,.965-1.281,4.45,4.45,0,0,1,2.848-.678,2.076,2.076,0,0,1,1.757.864m-4.687,6.361a1.45,1.45,0,0,0,1.832,1.61,1.089,1.089,0,0,0,.935-.979c.112-.974.179-1.945.261-2.919.023-.217-.082-.319-.283-.254a6.409,6.409,0,0,0-1.809.762,2.023,2.023,0,0,0-.935,1.779" transform="translate(-715.167 -244.489)" fill="#fff"/>
      <g id="Group_127153" data-name="Group 127153" transform="translate(42.433 42.996)">
        <g id="Group_125001" data-name="Group 125001" transform="translate(0 0)" clip-path="url(#clip-path-5)">
          <rect id="Rectangle_17663" data-name="Rectangle 17663" width="8.06" height="11.017" transform="translate(0 0)" fill="#fff"/>
        </g>
      </g>
      <path id="Path_148247" data-name="Path 148247" d="M755.263,293.626a7.266,7.266,0,0,1,1.188-3.975,3.575,3.575,0,0,1,3.932-1.437,2.252,2.252,0,0,1,1.6,1.662,1.037,1.037,0,0,1-.524,1.268.6.6,0,0,1-.829-.3c-.1-.211-.172-.445-.269-.669a1.4,1.4,0,0,0-2.437-.491,3.755,3.755,0,0,0-1.025,2.351,5.686,5.686,0,0,0,.165,2.378,2.942,2.942,0,0,0,.539,1.034,1.866,1.866,0,0,0,2.789.157,5.889,5.889,0,0,0,.747-.933c.1-.139.2-.342.389-.263.225.086.187.319.165.514a3.584,3.584,0,0,1-2.437,2.839,2.779,2.779,0,0,1-3.065-.847,4.021,4.021,0,0,1-.822-2,7.383,7.383,0,0,1-.1-1.285" transform="translate(-712.262 -244.489)" fill="#fff"/>
      <path id="Path_148248" data-name="Path 148248" d="M733.778,278.638c-1.405,0-2.841-.016-4.262-.141a7.423,7.423,0,0,1-5.628-3.36A11.467,11.467,0,0,1,721.9,269.4a7.656,7.656,0,0,1,1.488-5.429,4.83,4.83,0,0,1,3.439-1.856,5.723,5.723,0,0,1,3.977,1.064,3.158,3.158,0,0,1,1.248,1.657,2.383,2.383,0,0,1-.358,2.318c-.112.139-.18.263-.023.607a5.979,5.979,0,0,0,.321.584c.06.1.127.2.187.31a4.579,4.579,0,0,1,.546,1.338,2.394,2.394,0,0,1-.456,2.03,3.892,3.892,0,0,1-2.257,1.331.712.712,0,0,1-.748-.4.791.791,0,0,1,.112-.87c.329-.373.419-.733-.015-1.657a6.915,6.915,0,0,0-.546-.9,2.027,2.027,0,0,1,.164-2.865c.044-.052.09-.1.135-.153.142-.166.231-.259.246-.352a.239.239,0,0,0,0-.132,1.506,1.506,0,0,0-1-.692,1.412,1.412,0,0,0-1.106.209,2.042,2.042,0,0,0-.741,1.369,10.7,10.7,0,0,0,.643,5.856,5.408,5.408,0,0,0,.485.911,2.717,2.717,0,0,0,2.422,1.386c1.062.006,2.139.022,3.178.039l1.764.022a3.319,3.319,0,0,0,.358-.022c.755-.079,1.024-.4.98-1.191-.037-.669-.135-1.338-.232-2.038-.044-.288-.082-.584-.119-.87-.277-2.172-.568-4.381-.853-6.512-.1-.815-.217-1.632-.321-2.45-.037-.288-.075-.576-.1-.856-.083-.683-.158-1.322-.285-1.958a1.724,1.724,0,0,1,.8-1.835,7.219,7.219,0,0,1,6.362-1.144,23.89,23.89,0,0,0,6.676.979c1.487-.016,3.871-1,5.449-1.657l.291-.115a.771.771,0,0,1,.949.335.886.886,0,0,1-.134,1.081,15.341,15.341,0,0,1-6.354,3.391,15.763,15.763,0,0,1-6.077-.234,12.163,12.163,0,0,0-3.5-.319q.235,1.795.471,3.6c.388,2.979.8,6.059,1.188,9.085.023.179.052.359.075.547a10.248,10.248,0,0,1,.156,1.943,3.435,3.435,0,0,1-2.287,3.258,7.435,7.435,0,0,1-2.841.483h-1.218c-.225.008-.441.008-.658.008m-6.31-15.043a3.1,3.1,0,0,0-.479.033,3.425,3.425,0,0,0-2.466,1.3,6.058,6.058,0,0,0-1.174,4.364,9.891,9.891,0,0,0,1.719,4.972A6.047,6.047,0,0,0,729.643,277c1.585.139,3.215.13,4.793.13H735.7a6,6,0,0,0,2.279-.389,1.934,1.934,0,0,0,1.346-1.912,8.99,8.99,0,0,0-.142-1.642c-.03-.187-.06-.38-.083-.574-.4-3.026-.8-6.106-1.188-9.085-.172-1.293-.337-2.577-.508-3.866a1.25,1.25,0,0,1,.156-1,1.2,1.2,0,0,1,.912-.412,13.016,13.016,0,0,1,4.187.31,14.619,14.619,0,0,0,5.547.226l.134-.022h-.051a25.321,25.321,0,0,1-7.065-1.034,5.814,5.814,0,0,0-5.172.932c-.217.149-.21.17-.187.271.134.7.217,1.4.3,2.084.031.272.068.56.105.832.1.816.217,1.635.321,2.452.285,2.137.576,4.348.853,6.517.036.28.074.568.119.848.106.708.21,1.437.247,2.178a2.416,2.416,0,0,1-2.287,2.776c-.166.016-.337.03-.524.03l-1.764-.022c-1.039-.017-2.115-.033-3.17-.039a4.147,4.147,0,0,1-3.626-2.064,6.606,6.606,0,0,1-.612-1.165,12.262,12.262,0,0,1-.741-6.7,3.588,3.588,0,0,1,1.323-2.343,2.841,2.841,0,0,1,2.235-.474,2.941,2.941,0,0,1,1.952,1.369,1.536,1.536,0,0,1,.149.335,1.219,1.219,0,0,0-.052-.217,1.653,1.653,0,0,0-.658-.887,4.763,4.763,0,0,0-2.564-.841m2.662,3.991c-.023.031-.052.056-.075.085-.285.335-.306.452-.314.483s.008.149.247.5a8.4,8.4,0,0,1,.665,1.106,4.363,4.363,0,0,1,.434,1.368c.015-.021.036-.036.052-.062a.806.806,0,0,0,.156-.746,3.156,3.156,0,0,0-.374-.887c-.052-.093-.1-.177-.165-.27a7.22,7.22,0,0,1-.417-.763,2.407,2.407,0,0,1-.21-.81" transform="translate(-716.738 -248.868)" fill="#fff"/>
      <path id="Path_148249" data-name="Path 148249" d="M756.171,278.167a13.763,13.763,0,0,1-1.666-.093,6.313,6.313,0,0,1-2.625-.856,4.645,4.645,0,0,1-2.085-3.648c-.218-2.008-.427-4.052-.621-6.03-.09-.878-.179-1.763-.269-2.643-.045-.459-.1-.908-.142-1.362-.1-.956-.2-1.952-.3-2.924,0-.016-.008-.029-.008-.048a.987.987,0,0,1,.726-1.228,1.124,1.124,0,0,1,1.405.716,7.8,7.8,0,0,0,1.382,2.163,5.632,5.632,0,0,1,1.354,3.25c.231,2.318.471,4.669.71,6.946l.067.648a1.631,1.631,0,0,0,.9,1.475,2.05,2.05,0,0,0,.868.148c.568-.009,1.144-.009,1.7-.009,1.181-.006,2.4-.006,3.6-.052,1.166-.041,1.726-.538,2.063-1.821a9.713,9.713,0,0,0,.031-3.959,9.38,9.38,0,0,0-.42-1.673,3.936,3.936,0,0,0-1.861-2.27,1.817,1.817,0,0,1-.822-2.038,1.409,1.409,0,0,1,.778-.848,1.875,1.875,0,0,1,1.442-.133,6.45,6.45,0,0,1,3.558,2.631,10.882,10.882,0,0,1,1.9,5.15,9.164,9.164,0,0,1-.868,5.17,5.725,5.725,0,0,1-3.76,3.034,9.5,9.5,0,0,1-2.34.251c-.285.008-.553.008-.822.021-.366.025-.726.016-1.076.008-.15,0-.3-.008-.456-.008-.4,0-.815.008-1.212.016-.365,0-.747.017-1.128.017m-6.092-15.994c.038.4.083.794.119,1.183.045.458.1.911.143,1.369.089.879.179,1.767.269,2.654.2,1.974.411,4.012.62,6.018a3.15,3.15,0,0,0,1.4,2.52,4.811,4.811,0,0,0,2.041.645,16.4,16.4,0,0,0,2.586.062c.412-.008.83-.022,1.248-.022.157,0,.314,0,.471.006.337.008.658.008.972-.006s.591-.025.874-.033a7.845,7.845,0,0,0,2-.2,4.253,4.253,0,0,0,2.841-2.265,7.538,7.538,0,0,0,.711-4.307,9.443,9.443,0,0,0-1.631-4.427A4.863,4.863,0,0,0,762,263.326a.5.5,0,0,0-.4.014l-.045.025a.252.252,0,0,0,.1.161,5.494,5.494,0,0,1,2.549,3.089,12.755,12.755,0,0,1,.433,6.556,3.426,3.426,0,0,1-3.424,2.933c-1.218.039-2.444.047-3.64.055-.553,0-1.128.009-1.7.009a3.483,3.483,0,0,1-1.481-.28,3.092,3.092,0,0,1-1.742-2.7l-.067-.644c-.239-2.279-.479-4.635-.71-6.954a3.983,3.983,0,0,0-.979-2.381,9.81,9.81,0,0,1-.815-1.034" transform="translate(-713.176 -248.349)" fill="#fff"/>
      <path id="Path_148250" data-name="Path 148250" d="M744.922,277.724c-.217,0-.441-.007-.687-.007h-.12c-.075-.01-.15-.01-.239-.018a7.2,7.2,0,0,1-1.765-.248,2.8,2.8,0,0,1-1.876-1.616c-.029-.071-.06-.149-.1-.22a6.306,6.306,0,0,1-.463-1.337,1.609,1.609,0,0,1,.381-1.557,1.439,1.439,0,0,1,1.5-.263,6.3,6.3,0,0,1,1.285.632l.031.014a1.912,1.912,0,0,0,2.265-.086,2.881,2.881,0,0,0,.867-1.445,7.589,7.589,0,0,0-.583-5.336,3.354,3.354,0,0,0-1.353-1.448,1.139,1.139,0,0,0-1.533.4,4.657,4.657,0,0,0-.4,1.034,1.762,1.762,0,0,1-1.488,1.454,1.964,1.964,0,0,1-1.839-.839,2.674,2.674,0,0,1-.485-2.217,3.987,3.987,0,0,1,3.782-3.274,6.356,6.356,0,0,1,6.033,2.846,11.723,11.723,0,0,1,2.033,5.6,9.884,9.884,0,0,1-.358,4.41,4.694,4.694,0,0,1-3.708,3.437,7.1,7.1,0,0,1-1.189.087m-.732-1.533h.075a7.552,7.552,0,0,0,1.607-.064,3.207,3.207,0,0,0,2.587-2.442,8.356,8.356,0,0,0,.284-3.724,10.219,10.219,0,0,0-1.757-4.878,4.906,4.906,0,0,0-4.724-2.247,2.552,2.552,0,0,0-2.5,2.09,1.091,1.091,0,0,0,.2.949.543.543,0,0,0,.531.28c.067-.007.15-.014.262-.387a5.925,5.925,0,0,1,.553-1.394,2.553,2.553,0,0,1,3.461-.941,4.766,4.766,0,0,1,1.943,2.069,9.114,9.114,0,0,1,.711,6.411,4.477,4.477,0,0,1-1.309,2.217,3.3,3.3,0,0,1-3.955.272l-.029-.018a4.553,4.553,0,0,0-.987-.488.281.281,0,0,1-.052-.017.217.217,0,0,0,.015.069,5.711,5.711,0,0,0,.366,1.029c.029.076.067.154.1.234a1.365,1.365,0,0,0,.957.784,5.938,5.938,0,0,0,1.42.2c.1-.008.172,0,.247,0" transform="translate(-714.54 -248.077)" fill="#fff"/>
      <path id="Path_148251" data-name="Path 148251" d="M757.591,269.518a1.51,1.51,0,0,1-.689-.181,5.286,5.286,0,0,1-2.325-4.869,5.119,5.119,0,0,1,1.577-2.745,2.968,2.968,0,0,1,.358-.272l.031-.022a1.727,1.727,0,0,1,.223-.126c.023-.006.045-.024.067-.032a.716.716,0,0,1,.763.073.767.767,0,0,1,.277.737c-.2,1.135.261,1.992,1.18,3.182a5.893,5.893,0,0,1,.4.574,2.024,2.024,0,0,1-.164,2.56,4.62,4.62,0,0,1-.9.825,1.245,1.245,0,0,1-.806.3m-1.092-5.929a3.419,3.419,0,0,0-.5,1.2,3.877,3.877,0,0,0,1.555,3.195c.008,0,.008.009.016.009a3.5,3.5,0,0,0,.606-.546c.261-.327.269-.434.051-.786a4.5,4.5,0,0,0-.306-.436,7.153,7.153,0,0,1-1.42-2.637" transform="translate(-712.36 -248.092)" fill="#fff"/>
      <path id="Path_148252" data-name="Path 148252" d="M738.026,259.462c-.068-.49-.052-.5.433-.568a12.175,12.175,0,0,1,3.962.305,15.142,15.142,0,0,0,5.809.234,14.573,14.573,0,0,0,5.995-3.213c.053-.055,0-.172-.051-.147-1.608.661-4.27,1.81-6,1.826a24.911,24.911,0,0,1-6.87-1,6.489,6.489,0,0,0-5.763,1.042.964.964,0,0,0-.495,1.06c.187.939.27,1.905.4,2.86.4,2.987.792,5.983,1.181,8.969.127.989.307,1.977.358,2.971a1.674,1.674,0,0,1-1.637,1.983,3.008,3.008,0,0,1-.441.023c-1.644-.023-3.289-.056-4.934-.063a3.429,3.429,0,0,1-3.027-1.726,6.431,6.431,0,0,1-.554-1.034,11.408,11.408,0,0,1-.688-6.276,2.829,2.829,0,0,1,1.032-1.86,2.216,2.216,0,0,1,3.147.692.96.96,0,0,1,.1.685,1.842,1.842,0,0,1-.553.857,1.273,1.273,0,0,0-.111,1.919,8.633,8.633,0,0,1,.6,1,2.068,2.068,0,0,1-.1,2.505,3.152,3.152,0,0,0,1.8-1.058,1.6,1.6,0,0,0,.307-1.391,3.918,3.918,0,0,0-.456-1.114,9.467,9.467,0,0,1-.547-.962,1.263,1.263,0,0,1,.127-1.409,1.584,1.584,0,0,0,.232-1.581,2.406,2.406,0,0,0-.957-1.275,5.03,5.03,0,0,0-3.5-.949,4.135,4.135,0,0,0-2.953,1.581,6.855,6.855,0,0,0-1.332,4.89,10.734,10.734,0,0,0,1.855,5.353,6.771,6.771,0,0,0,5.1,3.047c2.019.172,4.052.126,6.071.134a6.981,6.981,0,0,0,2.579-.435,2.682,2.682,0,0,0,1.817-2.583,13.217,13.217,0,0,0-.231-2.358q-.852-6.451-1.712-12.934" transform="translate(-716.651 -248.78)" fill="#fff"/>
      <path id="Path_148253" data-name="Path 148253" d="M767.024,269.629a10.118,10.118,0,0,0-1.765-4.783,5.6,5.6,0,0,0-3.155-2.34,1.233,1.233,0,0,0-.927.076.738.738,0,0,0-.418.412,1.046,1.046,0,0,0,.464,1.129,4.672,4.672,0,0,1,2.2,2.674,9.922,9.922,0,0,1,.456,1.814,10.286,10.286,0,0,1-.044,4.275,2.7,2.7,0,0,1-2.743,2.383c-1.773.06-3.544.046-5.315.06a2.676,2.676,0,0,1-1.174-.209,2.378,2.378,0,0,1-1.323-2.085q-.391-3.794-.778-7.59a4.8,4.8,0,0,0-1.166-2.817,8.658,8.658,0,0,1-1.517-2.372.409.409,0,0,0-.568-.272c-.262.065-.179.288-.164.459q.215,2.147.441,4.287c.3,2.892.583,5.786.9,8.671a3.93,3.93,0,0,0,1.742,3.088,5.729,5.729,0,0,0,2.333.754,31.594,31.594,0,0,0,3.917.048c.493,0,.994.022,1.487-.009a13.9,13.9,0,0,0,3.021-.248,4.991,4.991,0,0,0,3.3-2.645,8.425,8.425,0,0,0,.793-4.76" transform="translate(-713.092 -248.258)" fill="#fff"/>
      <path id="Path_148254" data-name="Path 148254" d="M747.5,264.552A5.611,5.611,0,0,0,742.114,262a3.263,3.263,0,0,0-3.14,2.683,1.856,1.856,0,0,0,.345,1.58,1.268,1.268,0,0,0,1.181.559c.516-.062.733-.451.874-.925a5.287,5.287,0,0,1,.471-1.213,1.845,1.845,0,0,1,2.5-.669,4.106,4.106,0,0,1,1.651,1.758,8.331,8.331,0,0,1,.651,5.874,3.6,3.6,0,0,1-1.092,1.826,2.607,2.607,0,0,1-3.109.179,5.035,5.035,0,0,0-1.166-.574c-.711-.228-1.115.178-.965.932a7.231,7.231,0,0,0,.516,1.407,2.113,2.113,0,0,0,1.421,1.207,7.925,7.925,0,0,0,1.838.234,9.186,9.186,0,0,0,1.839-.071,3.968,3.968,0,0,0,3.147-2.941,9.241,9.241,0,0,0,.321-4.068,11.143,11.143,0,0,0-1.9-5.227" transform="translate(-714.451 -247.989)" fill="#fff"/>
      <path id="Path_148255" data-name="Path 148255" d="M757.145,268.569a.658.658,0,0,0,.747-.037,3.85,3.85,0,0,0,.763-.694,1.256,1.256,0,0,0,.1-1.671,5.783,5.783,0,0,0-.352-.5,4.721,4.721,0,0,1-1.331-3.789,2.352,2.352,0,0,0-.231.124,1.76,1.76,0,0,0-.283.2,4.418,4.418,0,0,0-1.353,2.34,4.54,4.54,0,0,0,1.936,4.028" transform="translate(-712.275 -248)" fill="#fff"/>
      <path id="Path_148256" data-name="Path 148256" d="M738.026,259.462c-.068-.49-.052-.5.433-.568a12.175,12.175,0,0,1,3.962.305,15.142,15.142,0,0,0,5.809.234,14.573,14.573,0,0,0,5.995-3.213c.053-.055,0-.172-.051-.147-1.608.661-4.27,1.81-6,1.826a24.911,24.911,0,0,1-6.87-1,6.489,6.489,0,0,0-5.763,1.042.964.964,0,0,0-.495,1.06c.187.939.27,1.905.4,2.86.4,2.987.792,5.983,1.181,8.969.127.989.307,1.977.358,2.971a1.674,1.674,0,0,1-1.637,1.983,3.008,3.008,0,0,1-.441.023c-1.644-.023-3.289-.056-4.934-.063a3.429,3.429,0,0,1-3.027-1.726,6.431,6.431,0,0,1-.554-1.034,11.408,11.408,0,0,1-.688-6.276,2.829,2.829,0,0,1,1.032-1.86,2.216,2.216,0,0,1,3.147.692.96.96,0,0,1,.1.685,1.842,1.842,0,0,1-.553.857,1.273,1.273,0,0,0-.111,1.919,8.633,8.633,0,0,1,.6,1,2.068,2.068,0,0,1-.1,2.505,3.152,3.152,0,0,0,1.8-1.058,1.6,1.6,0,0,0,.307-1.391,3.918,3.918,0,0,0-.456-1.114,9.467,9.467,0,0,1-.547-.962,1.263,1.263,0,0,1,.127-1.409,1.584,1.584,0,0,0,.232-1.581,2.406,2.406,0,0,0-.957-1.275,5.03,5.03,0,0,0-3.5-.949,4.135,4.135,0,0,0-2.953,1.581,6.855,6.855,0,0,0-1.332,4.89,10.734,10.734,0,0,0,1.855,5.353,6.771,6.771,0,0,0,5.1,3.047c2.019.172,4.052.126,6.071.134a6.981,6.981,0,0,0,2.579-.435,2.682,2.682,0,0,0,1.817-2.583,13.217,13.217,0,0,0-.231-2.358q-.852-6.451-1.712-12.934" transform="translate(-716.651 -248.78)" fill="#fff"/>
      <path id="Path_148257" data-name="Path 148257" d="M767.024,269.629a10.118,10.118,0,0,0-1.765-4.783,5.6,5.6,0,0,0-3.155-2.34,1.233,1.233,0,0,0-.927.076.738.738,0,0,0-.418.412,1.046,1.046,0,0,0,.464,1.129,4.672,4.672,0,0,1,2.2,2.674,9.922,9.922,0,0,1,.456,1.814,10.286,10.286,0,0,1-.044,4.275,2.7,2.7,0,0,1-2.743,2.383c-1.773.06-3.544.046-5.315.06a2.676,2.676,0,0,1-1.174-.209,2.378,2.378,0,0,1-1.323-2.085q-.391-3.794-.778-7.59a4.8,4.8,0,0,0-1.166-2.817,8.658,8.658,0,0,1-1.517-2.372.409.409,0,0,0-.568-.272c-.262.065-.179.288-.164.459q.215,2.147.441,4.287c.3,2.892.583,5.786.9,8.671a3.93,3.93,0,0,0,1.742,3.088,5.729,5.729,0,0,0,2.333.754,31.594,31.594,0,0,0,3.917.048c.493,0,.994.022,1.487-.009a13.9,13.9,0,0,0,3.021-.248,4.991,4.991,0,0,0,3.3-2.645,8.425,8.425,0,0,0,.793-4.76" transform="translate(-713.092 -248.258)" fill="#fff"/>
      <path id="Path_148258" data-name="Path 148258" d="M747.5,264.552A5.611,5.611,0,0,0,742.114,262a3.263,3.263,0,0,0-3.14,2.683,1.856,1.856,0,0,0,.345,1.58,1.268,1.268,0,0,0,1.181.559c.516-.062.733-.451.874-.925a5.287,5.287,0,0,1,.471-1.213,1.845,1.845,0,0,1,2.5-.669,4.106,4.106,0,0,1,1.651,1.758,8.331,8.331,0,0,1,.651,5.874,3.6,3.6,0,0,1-1.092,1.826,2.607,2.607,0,0,1-3.109.179,5.035,5.035,0,0,0-1.166-.574c-.711-.228-1.115.178-.965.932a7.231,7.231,0,0,0,.516,1.407,2.113,2.113,0,0,0,1.421,1.207,7.925,7.925,0,0,0,1.838.234,9.186,9.186,0,0,0,1.839-.071,3.968,3.968,0,0,0,3.147-2.941,9.241,9.241,0,0,0,.321-4.068,11.143,11.143,0,0,0-1.9-5.227" transform="translate(-714.451 -247.989)" fill="#fff"/>
      <path id="Path_148259" data-name="Path 148259" d="M757.145,268.569a.658.658,0,0,0,.747-.037,3.85,3.85,0,0,0,.763-.694,1.256,1.256,0,0,0,.1-1.671,5.783,5.783,0,0,0-.352-.5,4.721,4.721,0,0,1-1.331-3.789,2.352,2.352,0,0,0-.231.124,1.76,1.76,0,0,0-.283.2,4.418,4.418,0,0,0-1.353,2.34,4.54,4.54,0,0,0,1.936,4.028" transform="translate(-712.275 -248)" fill="#fff"/>
      <path id="Path_148260" data-name="Path 148260" d="M761.581,284.587a3.206,3.206,0,0,1,.366-.677,3.176,3.176,0,0,0,.838-1.8s-1.346-1.113-4.763-1.43a39.847,39.847,0,0,0-9.494.675c-2.406.367-11.983,2.194-18.973-2.271,0,0,3.365,5.289,7.528,6.373a11.536,11.536,0,0,0,8.074-.9c.673-.335,12.371-6.09,16.423.029" transform="translate(-715.707 -245.695)" fill="#fff"/>
      <path id="Path_148261" data-name="Path 148261" d="M728.573,277.682s1.353,2.528,7.386,3.183,10.675.457,12.283-.22a8.627,8.627,0,0,1-5.069-.923c-2.206-1.322-4.47-3.323-9.98-2.583a3.507,3.507,0,0,0-.441.094,10.853,10.853,0,0,1-4.179.449" transform="translate(-715.839 -245.977)" fill="#fff"/>
      <g id="Group_127158" data-name="Group 127158" transform="translate(34.339 42.998)">
        <g id="Group_125015" data-name="Group 125015" transform="translate(0 0)" clip-path="url(#clip-path-6)">
          <rect id="Rectangle_17670" data-name="Rectangle 17670" width="8.432" height="11.007" transform="translate(0 0)" fill="#fff"/>
        </g>
      </g>
      <path id="Path_148263" data-name="Path 148263" d="M753.291,288.221a3.757,3.757,0,0,0-4.239,1.726,7.543,7.543,0,0,0-.926,3.727,6.437,6.437,0,0,0,.283,2.015,3.009,3.009,0,0,0,2.094,2.069,3.588,3.588,0,0,0,4.425-2.682c.068-.226.143-.484-.1-.615s-.345.13-.464.287a4.014,4.014,0,0,1-1.331,1.183,2.144,2.144,0,0,1-3.109-1.268,4.388,4.388,0,0,1-.262-1.284c-.045-.614-.037-.606.56-.7,1.473-.227,2.938-.468,4.41-.694a.576.576,0,0,0,.547-.534,3.1,3.1,0,0,0-1.892-3.23m.015,2.971a20.556,20.556,0,0,1-3.432.591h-.1a.143.143,0,0,1-.142-.171c.075-.559.441-2.357,1.973-2.55,1.823-.225,1.7,2.131,1.7,2.131" transform="translate(-713.218 -244.489)" fill="#fff"/>
    </g>
  </g>
</svg>
