<svg xmlns="http://www.w3.org/2000/svg" width="101" height="100" viewBox="0 0 101 100">
  <g id="Group_132136" data-name="Group 132136" transform="translate(0.239)" opacity="0.4">
    <rect id="Rectangle_110162" data-name="Rectangle 110162" width="101" height="100" rx="8" transform="translate(-0.239)" fill="#fff" opacity="0"/>
    <g id="Group_131173" data-name="Group 131173" transform="translate(15.836 14.116)">
      <path id="Path_148072" data-name="Path 148072" d="M977.645,284.24a69.3,69.3,0,0,0-11.152-11.887c-10.744-9.178-23.5-15.085-33.793-15.767-.248.143-.52.282-.768.447a33.452,33.452,0,0,0-5.271,3.79s-.2.163-.272.236h.022l3.235-.331,1.335-.142c.543-.046,2.082-.189,3.031-.189,10.518,0,24.112,6.026,35.468,15.721,1.312,1.106,2.556,2.26,3.755,3.412,1.583,1.53,3.053,3.107,4.41,4.709m3.823-21.795c-.882-.8-1.81-1.551-2.782-2.306a30.331,30.331,0,0,1,8.506,14.238,24.892,24.892,0,0,1-2.964,19.323,6.5,6.5,0,0,1-.43.658c-.09.141-.158.258-.248.4a.454.454,0,0,1-.092.118,1.93,1.93,0,0,1,.182.374c.023.026.023.072.044.095,0,0,.295-.424.339-.494l.2.543c-.023.022-.271.377-.339.469.068.19.181.565.181.565.045.165.114.33.158.494,1.924,6.613.882,12.029-2.985,15.368-2.579,2.238-6.38,3.415-10.948,3.415-5.361,0-11.695-1.6-18.187-4.544l-1.244-.069c-.838-.049-1.7-.143-2.534-.261l-1.177-.139,3.235,1.859,1.29.683c.021,0,.021.022.044.022l.046.026c7.713,4.047,15.449,6.26,21.806,6.26,4.682,0,8.572-1.225,11.241-3.507,4.253-3.673,5.226-9.72,2.761-17.089a.933.933,0,0,0-.069-.186l-.18-.565c7.713-11.532,4.885-25.96-5.86-35.751" transform="translate(-923.132 -248.274)" fill="#fff"/>
      <path id="Path_148073" data-name="Path 148073" d="M968.638,284.955h0" transform="translate(-908.314 -238.329)" fill="#fff"/>
      <path id="Path_148074" data-name="Path 148074" d="M980.609,291.145c5.61-12.8-.9-27.275-15.516-34.408a40.4,40.4,0,0,0-17.53-4,37.405,37.405,0,0,0-20.222,5.743l-.09.049-.09.022a25.179,25.179,0,0,1,3.324-.235c10.518,0,24.112,6.026,35.468,15.72a63.943,63.943,0,0,1,14.567,17.3,1.7,1.7,0,0,0,.09-.191m3.325,5.623a.427.427,0,0,0-.069.095l-.089.119c-6.357,9.107-17.915,14.542-30.922,14.542a44.57,44.57,0,0,1-4.682-.235h-.091c7.736,4.075,15.495,6.307,21.895,6.307,4.683,0,8.573-1.221,11.242-3.505,4.321-3.742,5.271-9.862,2.715-17.322" transform="translate(-922.863 -249.624)" fill="#fff"/>
      <path id="Path_148075" data-name="Path 148075" d="M969.828,254.979c-15.517-7.625-34.359-5.367-45.579,4.589,0,0-.2.168-.271.236H924l3.37-.351c.158-.117.838-.565.859-.565,10.473-6.825,25.561-7.91,38.182-1.743,14.952,7.294,21.33,22.262,15.743,35.019a27.211,27.211,0,0,1-2.217,4.025c-6.921,10.259-20.606,15.226-34.042,13.485l-1.177-.14,3.326,1.907c.068.045,2.76.3,3.461.353a.968.968,0,0,1,.2.022c13.187.682,26.013-4.448,32.867-14.286a3.029,3.029,0,0,0,.2-.307c9.771-14.471,3.1-33.372-14.952-42.244" transform="translate(-923.978 -250.432)" fill="#fff"/>
      <path id="Path_148076" data-name="Path 148076" d="M959.739,290.445c0-2.774,1.109-3.13,2.081-3.13s2.08.355,2.08,3.108c0,2.8-1.175,3.108-2.058,3.108a1.835,1.835,0,0,1-1.493-.612,3.741,3.741,0,0,1-.611-2.475m-2.511-.022c0,3.176,1.81,5.223,4.637,5.223,2.806,0,4.547-2,4.547-5.248,0-3.2-1.764-5.2-4.591-5.2s-4.593,2-4.593,5.223m-8.121-.046c0,3.2,1.787,5.106,4.751,5.106h.068A5.038,5.038,0,0,0,957,294.66a5.59,5.59,0,0,0-1.155-1.813,4.359,4.359,0,0,1-1.809.519c-1.56-.026-2.42-1.109-2.42-3.062,0-1.339.406-2.942,2.376-2.964a3.907,3.907,0,0,1,1.853.516,5.435,5.435,0,0,0,1.155-1.81,5.665,5.665,0,0,0-3.077-.825c-2.985.046-4.818,2.023-4.818,5.156m-6.966,2.163a5.439,5.439,0,0,0-1.086,1.86,5.836,5.836,0,0,0,3.732,1.108c2.217-.07,3.6-1.344,3.528-3.226a3.25,3.25,0,0,0-.7-1.883,4.8,4.8,0,0,0-1.56-1.081l-.747-.378a4.69,4.69,0,0,1-.836-.469.648.648,0,0,1-.248-.5c0-.186-.024-.588.768-.659a4.293,4.293,0,0,1,2.217.659,5.526,5.526,0,0,0,1.108-1.859,5.478,5.478,0,0,0-3.461-.916c-1.99.165-3.235,1.387-3.166,3.154a2.56,2.56,0,0,0,.814,1.928,5.923,5.923,0,0,0,1.447.943l1.177.586c.566.261.656.565.656.777.023.636-.679.754-1.109.779a4.347,4.347,0,0,1-2.533-.827m-7.285-.047c0-.585.069-.893,1.516-1.386l1.267-.447v1.928c0,.4-.023.4-.248.519a3.471,3.471,0,0,1-1.312.261c-1.223,0-1.223-.59-1.223-.874m-2.51.072c0,1.414.971,2.919,3.709,2.919,2.964,0,4-1.32,4-2.449v-4.941c0-1.083-.43-2.893-3.3-2.893a5.9,5.9,0,0,0-3.846,1.222,5.853,5.853,0,0,0,1.153,1.813c.09-.046.158-.119.271-.189s.248-.14.362-.212a6.03,6.03,0,0,1,.634-.282,3.42,3.42,0,0,1,1.222-.236c1.062,0,1.062.427,1.062.708v.448a.811.811,0,0,1-.225.115l-1.267.424a11.727,11.727,0,0,0-2.51,1.177,2.891,2.891,0,0,0-1.267,2.377m-7.148-.024a5.434,5.434,0,0,0-1.086,1.86,5.837,5.837,0,0,0,3.732,1.108c2.217-.07,3.6-1.344,3.528-3.226a3.238,3.238,0,0,0-.7-1.883,4.791,4.791,0,0,0-1.562-1.081l-.747-.378a4.736,4.736,0,0,1-.836-.469.648.648,0,0,1-.249-.5c0-.186-.023-.588.769-.659a4.291,4.291,0,0,1,2.217.659,5.5,5.5,0,0,0,1.108-1.859,5.475,5.475,0,0,0-3.459-.916c-1.991.165-3.235,1.387-3.167,3.154a2.559,2.559,0,0,0,.814,1.928,5.9,5.9,0,0,0,1.448.943l1.175.586c.566.261.656.565.656.777.023.636-.678.754-1.108.779a4.347,4.347,0,0,1-2.534-.827m3.438-14.213H927.03c-.655,0-.882-.894-.882-1.506a3.267,3.267,0,0,1,.136-1.082,1.279,1.279,0,0,1,.588-.827,2.148,2.148,0,0,1,.678-.141h.159a2.918,2.918,0,0,1,.43.047l.271.072a.37.37,0,0,1,.2.163.684.684,0,0,1,.023.259v3.014Zm22.778-.519v-4.8h-.565c-.158.024-.339.047-.52.072a5.62,5.62,0,0,0-.951.282c-.023,0-.068.026-.091.026V277.5c0,.565-.181.779-.7.8h-.067a1.9,1.9,0,0,1-.339-.02c-.339-.073-.475-.308-.475-.779v-4.517h-.566a1.836,1.836,0,0,0-.361.046c-.046,0-.113.023-.159.023-.023,0-.045.024-.089.024a5.211,5.211,0,0,0-.86.282c-.023,0-.068.026-.09.026V277.5c0,.471-.136.706-.475.779a1.9,1.9,0,0,1-.339.02c-.566,0-.769-.211-.769-.8v-4.517h-.566c-.181.022-.339.046-.543.069-.022,0-.045.024-.068.024a5.235,5.235,0,0,0-.859.282.324.324,0,0,0-.091.046v4.283c-.023.33-.136.519-.406.592a3.117,3.117,0,0,1-.431.046h-.678v-1.272c0-2.045-1-3.13-2.873-3.13h-2.964a2.105,2.105,0,0,1,1.629-1.176,3.5,3.5,0,0,1,1.221,0,4.786,4.786,0,0,1,.68.165l.406.141a2.025,2.025,0,0,0,.295.118c.045-.069.068-.118.114-.186a4.841,4.841,0,0,0,.249-.447c.022-.026.022-.049.045-.072.069-.142.113-.258.181-.4.023-.07.046-.138.068-.209a4.5,4.5,0,0,0,.159-.52,1,1,0,0,0,.022-.118,1.622,1.622,0,0,1-.181-.092,4.456,4.456,0,0,0-.769-.308,4.7,4.7,0,0,0-1.4-.258h-.271a7.867,7.867,0,0,0-1.222.119h-.045a.178.178,0,0,0-.09.022,4.168,4.168,0,0,0-3.212,3.25V274a3.09,3.09,0,0,1-.044.328,6.269,6.269,0,0,0-.046,1.129.308.308,0,0,0,.023.142c0,.023.023.046.023.07a.545.545,0,0,0,.52.376h4.479c.5,0,.769.165.769,1.036V278.3h-7.306v-3.128a2.644,2.644,0,0,0-.2-.966,1.39,1.39,0,0,0-.2-.354,1.6,1.6,0,0,0-.5-.467c-.114-.073-.271-.145-.406-.215a2.763,2.763,0,0,0-.385-.118,5.406,5.406,0,0,0-1.312-.165h-.271a7.715,7.715,0,0,0-1.177.142,2.708,2.708,0,0,0-1.629.987,4.493,4.493,0,0,0-.746,2.754,3.874,3.874,0,0,0,.746,2.471,2.877,2.877,0,0,0,2.262,1.129h1.651v.354c0,.376-.362.612-.973.612h-1.177v.024a4.3,4.3,0,0,0-.249.92c-.044.257-.068.515-.09.751v.426H927.8a3,3,0,0,0,2.623-1.321,2.357,2.357,0,0,0,.317-.821,4.206,4.206,0,0,0,.045-.543V280.4h9.931a4.119,4.119,0,0,0,1.99-.539,2.819,2.819,0,0,0,1.765.565,4.41,4.41,0,0,0,2.148-.615,4.145,4.145,0,0,0,2.149.615,2.458,2.458,0,0,0,2.646-2.614m15,0v-4.8h-.566c-.181.024-.339.047-.542.072a5.624,5.624,0,0,0-.951.282c-.023,0-.068.026-.09.026V277.5c0,.565-.181.779-.7.8h-.068a1.9,1.9,0,0,1-.339-.02c-.341-.073-.476-.308-.476-.779v-4.517h-.566a1.863,1.863,0,0,0-.362.046c-.045,0-.113.023-.158.023-.022,0-.044.024-.09.024a5.247,5.247,0,0,0-.859.282c-.023,0-.069.026-.09.026V277.5c0,.471-.136.706-.475.779a1.9,1.9,0,0,1-.339.02c-.566,0-.769-.211-.769-.8v-4.517H958.4c-.181.022-.339.046-.543.069-.023,0-.046.024-.068.024a5.2,5.2,0,0,0-.859.282.323.323,0,0,0-.09.046v4.283c-.023.33-.136.519-.408.592a3.094,3.094,0,0,1-.429.046h-.046c-.543,0-.723-.212-.723-.8v-6.943h-.566c-.158.023-.339.049-.52.07a5.622,5.622,0,0,0-.951.282c-.022.026-.068.026-.09.047v6.85a2.47,2.47,0,0,0,2.647,2.611,4.124,4.124,0,0,0,1.99-.565,2.8,2.8,0,0,0,1.764.565,4.45,4.45,0,0,0,2.149-.612,4.2,4.2,0,0,0,2.149.612,2.475,2.475,0,0,0,2.6-2.635" transform="translate(-923.978 -243.371)" fill="#fff"/>
    </g>
  </g>
</svg>
