<svg xmlns="http://www.w3.org/2000/svg" width="101" height="100" viewBox="0 0 101 100">
  <g id="Group_132141" data-name="Group 132141" transform="translate(0.035)" opacity="0.4">
    <rect id="Rectangle_110162" data-name="Rectangle 110162" width="101" height="100" rx="8" transform="translate(-0.035)" fill="#fff" opacity="0"/>
    <g id="Group_131197" data-name="Group 131197" transform="translate(18.965 31)">
      <path id="Path_148739" data-name="Path 148739" d="M222.171,372.868a4.22,4.22,0,0,0-.024-.661l-.018.068c.019.314.027.618.022.906a2.521,2.521,0,0,0,.02-.313" transform="translate(-180.075 -360.13)" fill="#fff"/>
      <path id="Path_148740" data-name="Path 148740" d="M243.723,383.874a13.657,13.657,0,0,0-3.319-7.607c-3.381-3.8-7.639-4.722-12.372-3.977a13.835,13.835,0,0,0-4.7,1.762,10.406,10.406,0,0,1-2.385,6.533c-.011.028-.021.043-.03.03a6.388,6.388,0,0,1-.448-.792c-.192-.366-.409-.72-.606-1.086-.146-.27-.286-.542-.424-.817a.2.2,0,0,1-.026.013,19.779,19.779,0,0,0-2.9,6.119c-.237.963-.662,1.247-1.581,1.175-.595-.047-.7-.221-.733-.8-.208-3.934-.094-7.875-.122-11.811a8.175,8.175,0,0,1,.045-.927c.21-1.911-.013-3.841.242-5.751a1.239,1.239,0,0,0-.1-.436c-.494-1.878-2-2.285-3.541-2.571-1.2-.223-1.317-.061-1.22,1.174.008.092,0,.186,0,.279.132,2.746.332,5.493.38,8.239a114.837,114.837,0,0,1-.421,14.473c-.086.789.015.9.723.9q14.311-.033,28.621-.007a8.694,8.694,0,0,0,1.764-.184,3.56,3.56,0,0,0,3.147-3.932m-4.844,1.024c-1.127.054-2.255.087-3.382.113q-1.126.02-2.254.028c-4.134.031-8.269-.056-12.4,0,0,0,0-.154,0-.145,0-1.961,1.178-3.925,2.32-5.409a11.386,11.386,0,0,1,8.521-4.5,8.713,8.713,0,0,1,5.736,1.786c.067.055.133.11.2.168a10.1,10.1,0,0,1,2.5,3.475q.162.356.309.724a10.81,10.81,0,0,1,.6,1.734,1.669,1.669,0,0,1-.492,1.482,2.478,2.478,0,0,1-1.648.542" transform="translate(-181.257 -361.001)" fill="#fff"/>
      <path id="Path_148741" data-name="Path 148741" d="M202.477,391.678a11.463,11.463,0,0,1-8.05-1.393,8.243,8.243,0,0,1-3.791-9.216c1.382-6.052,3.644-8.286,9.294-9.268,1.963-.339,2.782-1.634,2.293-3.639-.1-.391-.164-.649-.75-.488-2.335.654-4.743.392-7.123.418a21.058,21.058,0,0,1-4.546-.553c-2.034-.431-4.111-.736-5.615-2.47-.125-.144-.186-.421-.512-.318a6.208,6.208,0,0,0,1.924,5.219c1.445,1.348,3.274,1.67,5.166,1.9a15.365,15.365,0,0,0-4.527,7.349,11.9,11.9,0,0,0-.231,5.789c1.242,5.393,6.712,9.416,12.02,8.871a5.962,5.962,0,0,0,4.447-2.2" transform="translate(-183.658 -360.826)" fill="#fff"/>
      <path id="Path_148742" data-name="Path 148742" d="M204.642,377.77c-.574-.049-1.346-.08-1.739.424-.258.329.139.9.279,1.36a2.5,2.5,0,0,1,.039.273,30.769,30.769,0,0,1,.189,10.208,20.988,20.988,0,0,1-1.026,4.536c-.425,1.119-1.349,1.759-2.1,2.727,4.377.189,7.093-2.267,7.432-6.595.249-3.187.011-6.383.119-9.57.084-2.467-1.051-3.181-3.189-3.364" transform="translate(-182.11 -359.614)" fill="#fff"/>
      <path id="Path_148743" data-name="Path 148743" d="M197.114,378.208a2.62,2.62,0,0,0-.178,5.235,2.527,2.527,0,0,0,2.6-2.562,2.579,2.579,0,0,0-2.417-2.673" transform="translate(-182.649 -359.571)" fill="#fff"/>
      <path id="Path_148744" data-name="Path 148744" d="M205.117,375.732a2.651,2.651,0,0,0-.078-5.294,2.681,2.681,0,0,0-2.48,2.645,2.639,2.639,0,0,0,2.558,2.649" transform="translate(-181.897 -360.295)" fill="#fff"/>
      <path id="Path_148745" data-name="Path 148745" d="M240.049,381.842a10.723,10.723,0,0,0-.6-1.735q-.146-.369-.309-.725a10.087,10.087,0,0,0-2.5-3.475c-.064-.058-.13-.114-.2-.168a8.717,8.717,0,0,0-5.737-1.786,11.387,11.387,0,0,0-8.521,4.5c-1.141,1.485-2.322,3.449-2.32,5.41,0-.009,0,.143,0,.143,4.134-.057,8.27.03,12.4,0q1.127-.008,2.254-.028c1.128-.024,2.255-.059,3.382-.113a2.474,2.474,0,0,0,1.648-.542,1.669,1.669,0,0,0,.492-1.48m-6.648,1.024a.759.759,0,1,1,.728-.758.745.745,0,0,1-.728.758m.811-2.621a.73.73,0,1,1,.729.758.746.746,0,0,1-.729-.758m1.257,2.621a.759.759,0,1,1,.729-.758.744.744,0,0,1-.729.758m.2-3.838a.759.759,0,1,1,.729-.759.744.744,0,0,1-.729.759m.772.888a.73.73,0,1,1,.729.758.745.745,0,0,1-.729-.758m1.165,2.95a.759.759,0,1,1,.729-.758.744.744,0,0,1-.729.758" transform="translate(-180.286 -359.968)" fill="#fff"/>
      <path id="Path_148746" data-name="Path 148746" d="M236.156,380.719a.76.76,0,1,0,.729.758.745.745,0,0,0-.729-.758" transform="translate(-178.837 -359.337)" fill="#fff"/>
      <path id="Path_148747" data-name="Path 148747" d="M236.486,379.471a.73.73,0,1,0-.729.759.744.744,0,0,0,.729-.759" transform="translate(-178.874 -359.524)" fill="#fff"/>
      <path id="Path_148748" data-name="Path 148748" d="M234.384,377.208a.76.76,0,1,0,.729.759.745.745,0,0,0-.729-.759" transform="translate(-179.002 -359.664)" fill="#fff"/>
      <path id="Path_148749" data-name="Path 148749" d="M234.448,379.772a.73.73,0,1,0-.729.759.743.743,0,0,0,.729-.759" transform="translate(-179.064 -359.495)" fill="#fff"/>
      <path id="Path_148750" data-name="Path 148750" d="M234.2,380.719a.76.76,0,1,0,.729.758.745.745,0,0,0-.729-.758" transform="translate(-179.019 -359.337)" fill="#fff"/>
      <path id="Path_148751" data-name="Path 148751" d="M232.308,380.719a.76.76,0,1,0,.729.758.745.745,0,0,0-.729-.758" transform="translate(-179.195 -359.337)" fill="#fff"/>
      <path id="Path_148752" data-name="Path 148752" d="M217.166,363.793a34.566,34.566,0,0,1,1.333,3.32c.388,1.126.724,2.275,1.013,3.437a24.739,24.739,0,0,1,.888,8.361c-.02.212-.162,1.589-.243,1.828a10.638,10.638,0,0,0,2.289-6.531c0-.286,0-.592-.021-.906-.239-4.165-2.5-10.337-6.475-12.11l.621,1.358c.191.42.4.825.595,1.244" transform="translate(-180.65 -361.156)" fill="#fff"/>
      <path id="Path_148753" data-name="Path 148753" d="M215.927,361.158a.053.053,0,0,1,.017.014l.008-.013h-.025" transform="translate(-180.653 -361.158)" fill="#fff"/>
      <path id="Path_148754" data-name="Path 148754" d="M219.895,379.979a6.737,6.737,0,0,0,.447.794c.009.01.019,0,.029-.033.085-.237.233-1.614.254-1.828a23.808,23.808,0,0,0-.925-8.362q-.453-1.741-1.056-3.436a34.08,34.08,0,0,0-1.388-3.32c-.2-.418-.421-.824-.621-1.242l-.646-1.36-.015-.023a1.383,1.383,0,0,0-.065.424c-.022.155-.043.314-.061.469-.038.313-.072.629-.1.942q-.087.93-.115,1.87a25.2,25.2,0,0,0,.162,3.709,22.31,22.31,0,0,0,.546,2.906,29.813,29.813,0,0,0,1.151,3.462c.223.566.458,1.127.7,1.681.211.491.437.969.676,1.444.137.274.278.548.423.817.2.365.414.719.607,1.085" transform="translate(-180.681 -361.158)" fill="#fff"/>
    </g>
  </g>
</svg>
